<?xml version="1.0" encoding="utf-8"?>
<!-- Generator: Adobe Illustrator 27.7.0, SVG Export Plug-In . SVG Version: 6.00 Build 0)  -->
<svg version="1.1" id="Warstwa_1" xmlns="http://www.w3.org/2000/svg" xmlns:xlink="http://www.w3.org/1999/xlink" x="0px" y="0px"
	 viewBox="0 0 16 16" style="enable-background:new 0 0 16 16;" xml:space="preserve">
<style type="text/css">
	.st0{fill:#CCCCCC;}
</style>
<path class="st0" d="M14.1,10.2l1.7,0.9c0.2,0.1,0.2,0.4,0,0.5l-7.6,3.8c-0.2,0.1-0.4,0.1-0.5,0l-7.6-3.8C0,11.5,0,11.3,0,11.2
	c0-0.1,0.1-0.1,0.1-0.1l1.7-0.9l5.3,2.7c0.5,0.3,1.1,0.3,1.6,0L14.1,10.2L14.1,10.2z M7.7,0.1C7.9,0,8.1,0,8.3,0.1l7.6,3.8
	C16,3.9,16,4.1,16,4.3c0,0.1-0.1,0.1-0.1,0.1L8.3,8.2c-0.2,0.1-0.4,0.1-0.5,0L0.2,4.4C0,4.3,0,4.1,0,4c0-0.1,0.1-0.1,0.1-0.1
	L7.7,0.1z"/>
<path class="st0" d="M14.1,6.6l1.7,0.9c0.2,0.1,0.2,0.4,0,0.5l-7.6,3.8c-0.2,0.1-0.4,0.1-0.5,0L0.2,8C0,7.9,0,7.7,0,7.6
	c0-0.1,0.1-0.1,0.1-0.1l1.7-0.9l5.3,2.7c0.5,0.3,1.1,0.3,1.6,0L14.1,6.6L14.1,6.6z"/>
</svg>
