<?xml version="1.0" encoding="utf-8"?>
<!-- Generator: Adobe Illustrator 27.9.4, SVG Export Plug-In . SVG Version: 9.03 Build 54784)  -->
<svg version="1.1" id="Warstwa_1" xmlns="http://www.w3.org/2000/svg" xmlns:xlink="http://www.w3.org/1999/xlink" x="0px" y="0px"
	 viewBox="0 0 800 800" style="enable-background:new 0 0 800 800;" xml:space="preserve">
<style type="text/css">
	.st0{fill:#9D9D9C;}
</style>
<path class="st0" d="M691,550.7c0,0,0-2.3,0-3.7V253c0-3.8-0.9-7.6-2.7-11c-2.5-5.3-6.7-9.5-12-12L409.7,110.7
	c-3.2-1.5-6.8-2.2-10.3-2.2s-7.1,0.8-10.3,2.2L122.3,230c-4.3,2.2-7.9,5.4-10.5,9.5c-2.6,4-4,8.7-4.2,13.5v294
	c0.2,4.8,1.7,9.4,4.3,13.4c2.6,4,6.1,7.3,10.4,9.6L389,689.3c3.2,1.5,6.8,2.3,10.3,2.3c3.6,0,7.1-0.8,10.3-2.3L676.3,570
	c3.9-1.8,7.2-4.5,9.8-7.8C688.7,558.8,690.3,554.8,691,550.7z M157.7,291.3l216.7,97.3V628l-216.7-97V291.3z M424.3,388.7L641,291.3
	V531l-216.7,97V388.7z M400,160.7L605.7,253L400,345l-205.7-92L400,160.7z"/>
</svg>
