<?xml version="1.0" encoding="UTF-8"?>
<svg id="Warstwa_1" xmlns="http://www.w3.org/2000/svg" baseProfile="tiny" version="1.2" viewBox="0 0 50 50">
  <!-- Generator: Adobe Illustrator 29.8.2, SVG Export Plug-In . SVG Version: 2.1.1 Build 3)  -->
  <defs>
    <style>
      .st0 {
        fill: #ffda00;
        stroke: #65b794;
      }

      .st1 {
        fill: #647f94;
      }
    </style>
  </defs>
  <g id="SVGRepo_iconCarrier">
    <path class="st1" d="M6.2,0h41.9c1,0,1.8.9,1.8,1.9v46.2c0,1-.8,1.9-1.8,1.9H1.8c-1,0-1.8-.9-1.8-1.9s.8-1.9,1.8-1.9h44.5V3.8H6.2c-1.4,0-2.6,1.2-2.6,2.7v39.6c0,1-.8,1.9-1.8,1.9S0,47.1,0,46.1V6.5C0,2.9,2.8,0,6.2,0h0Z"/>
  </g>
  <g id="SVGRepo_iconCarrier1" data-name="SVGRepo_iconCarrier">
    <path class="st0" d="M35.1,19.2h-2.7v-2.8c0-2-1.6-3.7-3.6-3.7h-6.8c-2,0-3.6,1.6-3.6,3.7v2.8h-2.7c-1.8,0-3.3,1.4-3.3,3.2v12.4c0,1.8,1.5,3.3,3.3,3.3h19.4c1.8,0,3.3-1.5,3.3-3.3v-12.4c0-1.8-1.5-3.2-3.3-3.2ZM20.5,16.3c0-.8.7-1.5,1.5-1.5h6.8c.8,0,1.5.7,1.5,1.5v2.8h-9.7v-2.8ZM31.3,31h-3.8v3.8h-4.3v-3.8h-3.8v-4.3h3.8v-3.8h4.3v3.8h3.8v4.3Z"/>
  </g>
</svg>