<?xml version="1.0" encoding="UTF-8"?>
<svg xmlns="http://www.w3.org/2000/svg" version="1.1" viewBox="0 0 91 91">
  <defs>
    <style>
      .cls-1 {
        fill: #e8e100;
      }

      .cls-2 {
        fill: #647f94;
      }

      .cls-3 {
        fill: #65b794;
      }
    </style>
  </defs>
  <!-- Generator: Adobe Illustrator 28.7.7, SVG Export Plug-In . SVG Version: 1.2.0 Build 194)  -->
  <g>
    <g id="Layer_1">
      <g id="SVGRepo_iconCarrier">
        <g>
          <g>
            <path class="cls-1" d="M24,49.4l18.1,18.1,38.1-38.1-18.1-18.1L24,49.4ZM66.4,25.1c1.3,1.3,1.3,3.3,0,4.6l-22.1,22.1c-.6.6-1.5.9-2.3.9s-1.7-.3-2.3-.9c-1.3-1.3-1.3-3.3,0-4.6l22.1-22.1c1.3-1.3,3.3-1.3,4.6,0Z"/>
            <polygon class="cls-3" points="15.7 75.6 35.9 70.4 21.1 55.6 15.7 75.6"/>
            <path class="cls-1" d="M87.6,12.5l-8.6-8.6c-2.5-2.5-7-2.5-9.5,0l-2.8,2.8,18.1,18.1,2.8-2.8c2.6-2.6,2.6-6.9,0-9.5Z"/>
          </g>
          <path class="cls-2" d="M79.6,89.6H3.5c-1.8,0-3.3-1.5-3.3-3.3V5.5C.1,3.7,1.6,2.2,3.5,2.2h51.1c1.8,0,3.3,1.5,3.3,3.3s-1.5,3.3-3.3,3.3H6.8v74.1h72.8c2.6,0,4.7-2.1,4.7-4.7v-41.6c0-1.8,1.5-3.3,3.3-3.3s3.3,1.5,3.3,3.3v41.6c0,6.3-5.1,11.3-11.3,11.3Z"/>
        </g>
      </g>
      <polygon class="cls-3" points="18.9 13.4 18.9 21.6 11.3 21.5 11.3 27.4 19.1 27.3 19 35.2 26.1 35.2 25.8 27.9 34.3 27.6 34.1 21.7 26 21.9 25.8 13.6 18.9 13.4"/>
    </g>
  </g>
</svg>