<?xml version="1.0" encoding="UTF-8"?>
<svg id="Layer_1" xmlns="http://www.w3.org/2000/svg" version="1.1" viewBox="0 0 91 91">
  <!-- Generator: Adobe Illustrator 29.5.1, SVG Export Plug-In . SVG Version: 2.1.0 Build 141)  -->
  <defs>
    <style>
      .st0 {
        fill: #647f94;
      }

      .st1 {
        fill: #65b794;
      }
    </style>
  </defs>
  <g id="SVGRepo_iconCarrier">
    <path class="st0" d="M79.6,89.6H3.5c-1.8,0-3.3-1.5-3.3-3.3V5.5C.1,3.7,1.6,2.2,3.5,2.2h51.1c1.8,0,3.3,1.5,3.3,3.3s-1.5,3.3-3.3,3.3H6.8v74.1h72.8c2.6,0,4.7-2.1,4.7-4.7v-41.6c0-1.8,1.5-3.3,3.3-3.3s3.3,1.5,3.3,3.3v41.6c0,6.3-5.1,11.3-11.3,11.3Z"/>
  </g>
  <g id="SVGRepo_iconCarrier1" data-name="SVGRepo_iconCarrier">
    <path class="st1" d="M67.5,75.9H18.7c-1.2,0-2.1-1-2.1-2.1V22c0-1.2,1-2.1,2.1-2.1h32.7c1.2,0,2.1,1,2.1,2.1s-.9,2.1-2.1,2.1h-30.6v47.5h46.6c1.7,0,3-1.4,3-3v-26.7c0-1.2,1-2.1,2.1-2.1s2.1,1,2.1,2.1v26.7c0,4-3.3,7.3-7.3,7.3Z"/>
  </g>
  <polygon class="st1" points="69.3 7.5 69.3 16 61.7 16 61.7 21 69.3 21 69.3 28 74.5 28 74.5 21.3 80.2 21.3 80.2 16.2 74.4 15.9 74.2 7.5 69.3 7.5"/>
</svg>