<?xml version="1.0" encoding="UTF-8"?>
<svg id="Warstwa_1" data-name="Warstwa 1" xmlns="http://www.w3.org/2000/svg" xmlns:xlink="http://www.w3.org/1999/xlink" viewBox="0 0 470.17 359.73">
  <defs>
    <style>
      .cls-1 {
        fill: #e3f1ed;
      }

      .cls-2 {
        fill: #9c7314;
      }

      .cls-3 {
        fill: #fefeff;
      }

      .cls-4 {
        fill: #8997ab;
      }

      .cls-5 {
        fill: #a3a7c5;
      }

      .cls-6 {
        fill: #585d88;
      }

      .cls-7 {
        fill: #646582;
      }

      .cls-8 {
        fill: #bdaac6;
      }

      .cls-9 {
        fill: #cdd168;
      }

      .cls-10 {
        fill: #97bb2d;
      }

      .cls-11 {
        fill: #d2cae3;
      }

      .cls-12 {
        fill: #a093c4;
      }

      .cls-13 {
        fill: #f08bae;
      }

      .cls-14 {
        fill: #cbc73b;
      }

      .cls-15 {
        fill: #6d942d;
      }

      .cls-16 {
        fill: #b5bcd3;
      }

      .cls-17 {
        fill: #73699b;
      }

      .cls-18 {
        fill: url(#Gradient_bez_nazwy_19);
      }

      .cls-19 {
        fill: #b2aad0;
      }

      .cls-20 {
        fill: #4f2b2f;
      }

      .cls-21 {
        fill: #4a3461;
      }

      .cls-22 {
        fill: #ac9716;
      }

      .cls-23 {
        fill: #b595c2;
      }

      .cls-24 {
        fill: #020202;
      }

      .cls-25 {
        fill: #333d66;
      }

      .cls-26 {
        fill: #dfdcdf;
      }

      .cls-27 {
        fill: #58517f;
      }

      .cls-28 {
        fill: #6d739e;
      }

      .cls-29 {
        fill: #f1e6f3;
      }

      .cls-30 {
        fill: url(#Gradient_bez_nazwy_3);
      }

      .cls-31 {
        fill: #563c51;
      }

      .cls-32 {
        fill: #9390b2;
      }

      .cls-33 {
        fill: #d7b32f;
      }

      .cls-34 {
        fill: #e6f4fa;
      }

      .cls-35 {
        fill: #4e6727;
      }

      .cls-36 {
        fill: #6d423f;
      }

      .cls-37 {
        fill: #91801a;
      }

      .cls-38 {
        fill: url(#Gradient_bez_nazwy_15);
      }

      .cls-39 {
        fill: #a2a727;
      }

      .cls-40 {
        fill: #a03050;
      }

      .cls-41 {
        fill: #342e53;
      }

      .cls-42 {
        fill: url(#Gradient_bez_nazwy_7);
      }

      .cls-43 {
        fill: #896e16;
      }

      .cls-44 {
        fill: #395925;
      }

      .cls-45 {
        fill: #e9e772;
      }

      .cls-46 {
        fill: #7980ab;
      }

      .cls-47 {
        fill: #8f7fb5;
      }

      .cls-48 {
        fill: #baad2b;
      }

      .cls-49 {
        fill: #b4bd4b;
      }

      .cls-50 {
        fill: #51531c;
      }

      .cls-51 {
        fill: url(#Gradient_bez_nazwy_21);
      }

      .cls-52 {
        fill: #221c2a;
      }

      .cls-53 {
        fill: #ed6891;
      }

      .cls-54 {
        fill: #537e2e;
      }

      .cls-55 {
        fill: #fafbef;
      }

      .cls-56 {
        fill: #726e54;
      }

      .cls-57 {
        fill: #3a4b71;
      }

      .cls-58 {
        fill: #856cab;
      }

      .cls-59 {
        fill: #cc93c1;
      }

      .cls-60 {
        fill: url(#Gradient_bez_nazwy_17);
      }

      .cls-61 {
        fill: #c7a6cf;
      }

      .cls-62 {
        fill: #8a2139;
      }

      .cls-63 {
        fill: #8a8392;
      }

      .cls-64 {
        fill: #676620;
      }

      .cls-65 {
        fill: #7a7921;
      }

      .cls-66 {
        fill: #6a4c62;
      }

      .cls-67 {
        fill: #84a22a;
      }

      .cls-68 {
        fill: #e1c7e1;
      }

      .cls-69 {
        fill: #8c6e98;
      }

      .cls-70 {
        fill: #a17eab;
      }

      .cls-71 {
        fill: #ea5476;
      }
    </style>
    <linearGradient id="Gradient_bez_nazwy_17" data-name="Gradient bez nazwy 17" x1="107.41" y1="73.04" x2="173.06" y2="242.81" gradientUnits="userSpaceOnUse">
      <stop offset="0" stop-color="#fdfeff"/>
      <stop offset="1" stop-color="#def1f9"/>
    </linearGradient>
    <linearGradient id="Gradient_bez_nazwy_3" data-name="Gradient bez nazwy 3" x1="270.34" y1="135.7" x2="244.93" y2="220.24" gradientUnits="userSpaceOnUse">
      <stop offset="0" stop-color="#e6d5e9"/>
      <stop offset="1" stop-color="#c6abd2"/>
    </linearGradient>
    <linearGradient id="Gradient_bez_nazwy_7" data-name="Gradient bez nazwy 7" x1="162.08" y1="87.11" x2="326.36" y2="104.13" gradientUnits="userSpaceOnUse">
      <stop offset="0" stop-color="#786c9e"/>
      <stop offset=".48" stop-color="#aa9ecd"/>
      <stop offset=".58" stop-color="#aca0ce"/>
      <stop offset="1" stop-color="#a274ab"/>
    </linearGradient>
    <linearGradient id="Gradient_bez_nazwy_15" data-name="Gradient bez nazwy 15" x1="330.28" y1="260.07" x2="285.51" y2="318.25" gradientUnits="userSpaceOnUse">
      <stop offset="0" stop-color="#8b7db2"/>
      <stop offset="1" stop-color="#aa9fca"/>
    </linearGradient>
    <linearGradient id="Gradient_bez_nazwy_19" data-name="Gradient bez nazwy 19" x1="128.92" y1="278.99" x2="102.91" y2="298.87" gradientUnits="userSpaceOnUse">
      <stop offset="0" stop-color="#edd7ea"/>
      <stop offset="1" stop-color="#d8afd3"/>
    </linearGradient>
    <linearGradient id="Gradient_bez_nazwy_21" data-name="Gradient bez nazwy 21" x1="155.93" y1="293.63" x2="207.37" y2="306.67" gradientUnits="userSpaceOnUse">
      <stop offset="0" stop-color="#616b94"/>
      <stop offset="1" stop-color="#9f97c2"/>
    </linearGradient>
  </defs>
  <g id="Obiekt_generatywny" data-name="Obiekt generatywny">
    <g>
      <path class="cls-9" d="M41.83,317.77c-.64,8.01,13.91,8.13,12.15,0l4.46,2.98-7.69,4.22c1.54,3.84,5.65,3.86,9.18,2.73,4.39-1.41,1.74-4.52,7.19-2.98.55.16.97.32,1.49.5,2.43.81,1.27,1.65,2.23,1.98,1.47.51,5.4-.05,7.19,0l21.08,2.98c.58.68-8.66,4.15-2.48,8.43,3.31,2.29,8.62,1.95,11.9,2.48,23.03,3.73,47.05,4.85,70.18,5.95,3.03.62,5.43.41,8.43.5-.22,1.49,1.33.97,2.23.99,36.04,1.04,72.8,1.26,108.37-2.98,6.04.34,7.05.17,12.9-.99,1.18,1.29,6.08.64,7.69.5,11.19-1.01,22.23-2.31,33.48-2.98,3.93-.23,12.3.91,15.62-.5.46-.2-.24-1.29,1.24-1.98,1.71-.81,7.22-2.08,5.95-4.96,4.76-1.2,14.43-10.77,17.36-14.88,12.37,6.83,31.14,13.01,6.7,21.82-9.73,3.51-23.31,4.44-32.24,7.94-.12.05-1.85,1.54-1.74,1.98-66.87,7.2-129.73,10.15-197.15,6.94-25.56-1.21-132.2-7.53-148.79-19.84-3.37-2.5-4.95-6.01-3.22-10.17,1.02-2.45,16.6-9.27,19.84-10.17.76-.21,4.87-.19,6.45-.5Z"/>
      <path class="cls-9" d="M409.35,315.29c-3.68,1.32-6.85,4.14-10.42,5.21,1.58,3.62,5.68,1.73,8.68,2.23,7.89,1.32,22.11,3.58,25.54-5.95,5.56,1.21,33.61,7.48,31.74,15.62-1.4,6.1-33.75,11.16-39.93,12.15-19.87,3.19-40.25,4.79-60.26,6.94-.11-.45,1.61-1.94,1.74-1.98,8.93-3.49,22.51-4.43,32.24-7.94,24.45-8.81,5.67-14.99-6.7-21.82.83-1.16,1.67-2.72,2.48-3.97.49,1.87,6.24,1,4.96-.5,3.21.27,6.67-.2,9.92,0Z"/>
      <path class="cls-9" d="M414.31,313.8c5.84-.42,13.59,1.83,18.85,2.98-3.43,9.54-17.65,7.27-25.54,5.95-3-.5-7.1,1.39-8.68-2.23,3.57-1.07,6.73-3.89,10.42-5.21,1.22-.43,3.82-1.41,4.96-1.49Z"/>
      <path class="cls-49" d="M55.71,310.33l-6.94-2.73c-.84,1.4,3.86,10.24,6.94,9.18.28.92,1.18,1.11,1.49,1.49,1.2,1.46,3.12,3.36,6.45,3.97,4.05.73,1.85-3.67,5.46-5.46,2.52,1.11,6.7,2.14,9.42,2.48-.99,1.78-1.76,5.11-3.97,5.46-2.11-1.21.53-10.73-7.44,0-5.45-1.54-2.8,1.57-7.19,2.98-3.53,1.13-7.64,1.11-9.18-2.73l7.69-4.22-4.46-2.98c1.75,8.13-12.79,8.01-12.15,0,3.18-.62,6.09-2.18,9.67-1.49-.54-3.07-1.74-2.3-3.22-2.48,1.15-1.33.88-1.47,0-2.98l-.5-3.97c.06.03.16-.98,1.24-.5l6.7,3.97Z"/>
      <path class="cls-48" d="M416.29,311.82c.1,1.42-1.11,1.49-1.98,1.98-1.14.08-3.74,1.05-4.96,1.49-3.25-.2-6.71.27-9.92,0-1.24-.1-3.24-.59-4.46-.99.71-1.14,1.24-2.32,1.98-3.47l19.34.99Z"/>
      <path class="cls-9" d="M48.27,313.8c1.48.18,2.69-.59,3.22,2.48-3.59-.7-6.49.87-9.67,1.49-1.58.31-5.68.28-6.45.5l6.45-5.46c2.55,1.99,4.67.77,6.45.99Z"/>
      <path class="cls-49" d="M268.99,330.17c-3.53,7.94,7.19,10.2,12.4,11.9,6.5,2.12,9.17,3.07,16.37,3.47-35.57,4.23-72.33,4.02-108.37,2.98-.91-.03-2.45.5-2.23-.99,7.19.21,28.35-2.51,32.24-9.18,1.91-3.27.22-3.54,0-6.2-.08-.96.55-1.12.5-1.49l49.1-.5Z"/>
      <path class="cls-49" d="M128.13,333.15c5.49-1.02,11.59-3.09,16.86-3.97,4.71-.79,9.59-1.14,14.38-.99.03.36.39,1.08.5,1.98.83,6.94.81,11.12,8.18,13.89.32.12,5.88,1.46,6.2,1.49,1.39.31,3.2,1.23,4.46,1.49-23.13-1.1-47.15-2.23-70.18-5.95-3.28-.53-8.6-.19-11.9-2.48-6.18-4.28,3.06-7.75,2.48-8.43l-21.08-2.98c8.21.21,16.44.12,24.3-2.48,9.84,11.3,11.97,11,25.79,8.43Z"/>
      <path class="cls-49" d="M358.26,332.15c.69.13,1.98.8,2.98.99,1.75.34,3.66,1.3,4.96,1.49-.39,2.05,1.45,3.35,2.48,4.96-1.48.7-.78,1.79-1.24,1.98-3.32,1.41-11.7.26-15.62.5-5.86-5.28-17.56-4.56-25.3-4.96,1.33-2.79,1.42-5,1.98-7.94,11.7-1.25,18.61.8,29.76,2.98Z"/>
      <path class="cls-67" d="M102.34,324.71c-7.87,2.6-16.09,2.69-24.3,2.48-1.79-.05-5.72.51-7.19,0-.96-.33.2-1.17-2.23-1.98-.87-2.07,4.28-.84,5.95-.5.37.08,2.97,2,3.22,1.98.68-.06,6.51-5.6,5.7-7.44,1.82.06,3.13.11,4.96,0,2.94-.17,6.16-.37,8.93-1.49,1.44,2.43,3.11,4.82,4.96,6.94Z"/>
      <path class="cls-49" d="M351.81,342.07c-11.25.67-22.29,1.96-33.48,2.98-1.6.14-6.51.8-7.69-.5,5.41-1.08,13.36-2.18,15.87-7.44,7.73.4,19.44-.32,25.3,4.96Z"/>
      <path class="cls-49" d="M374.63,334.63c1.27,2.88-4.24,4.15-5.95,4.96-1.03-1.61-2.87-2.91-2.48-4.96,3.21.47,5.14.83,8.43,0Z"/>
      <path class="cls-9" d="M74.56,324.71c-1.67-.34-6.82-1.57-5.95.5-.52-.17-.94-.34-1.49-.5,7.97-10.73,5.33-1.21,7.44,0Z"/>
      <path class="cls-9" d="M399.43,315.29c1.28,1.5-4.47,2.36-4.96.5.05-.08.16-.95.5-1.49,1.23.4,3.22.89,4.46.99Z"/>
      <path class="cls-67" d="M83.49,319.26c.81,1.84-5.03,7.38-5.7,7.44-.25.02-2.85-1.91-3.22-1.98,2.21-.35,2.98-3.68,3.97-5.46,1.5.19,3.37-.05,4.96,0Z"/>
      <path class="cls-9" d="M63.65,322.23c-3.32-.6-5.25-2.51-6.45-3.97l4.46-1.98c.13.28.76-.83.99-.25.4.99.01,4.73.99,6.2Z"/>
    </g>
    <path class="cls-49" d="M97.38,317.77c-2.77,1.12-5.99,1.31-8.93,1.49l7.44-3.47c.06.11,1.09,1.31,1.49,1.98Z"/>
    <g>
      <path class="cls-34" d="M402.4,111.44c-7.53-1.04,1.92,16.96,3.97,20.09,1.19,1.81,8.65,8.93,8.93,10.42.69,3.71-5.37,18.21-4.46,23.31l-2.48-9.92c-3.39-7.01-9.44-12.34-15.87-16.62-3.92.28-.31,12.87.99,15.13,2.65,4.59,11.03,7.14,14.38,10.66.39.41,2.45,3.34,2.48,3.72l-5.21,22.57c-3.13-12.05-4.97-25.74-20.09-26.29-2.56,8.71,5,19.92,11.66,25.79,1.04.92,3.41,1.84,4.22,2.48.98.78,1.39,1.6,2.98,1.74.59,1.04-3.66,15.44-4.46,17.61-.02.05-.28.43-.5.99-2.95-7.33-5.19-15.61-11.66-20.83-.95-.77-11.22-6.89-11.9-6.94-4.13-.34-4.05,7.15-3.72,9.67.6,4.65,6.31,13.04,10.17,15.62,4.69,3.14,11.67,2.89,15.13,6.94-2.02,4.41-4.8,8.67-7.19,12.9-1.78-2.49-7.07-2.7-8.43-3.47-1.08-.61-1.39-2.23-2.23-2.98-2.87-2.55-8.25-8.94-11.9-9.92-9.33-2.5-2.51,13.27,0,17.36-4.21-1.1-5.34-6.2-10.42-2.98-4.11,2.61-1.4,7.01-.5,10.42.28,1.06,1.96,3.04,1.98,3.22.32,2.3-2.91,8.05,1.98,10.17-.08.03-.43.98-.99,1.49-5.28-1.45-10.3,3.47-15.62,3.97-4.73.44-9.39-.96-13.64-2.98-.05-.02.01-.77-.99-.5-.46-2.59-2.08-5.92-2.98-8.43-.36-1.01-.63-1.58-.99-2.48-.84-2.11-1.42-4.41-2.48-6.45,5.6-3.3,11.76-7.97,15.87-12.9,7.11-6.1,11.15-13.03,12.4-22.32s.76-18.89-2.48-27.28c-1.48-3.85-6.2-11.19-8.93-14.38-.21-1.71,1.29-.41,1.98-1.49,7.2-11.22-7.35-53.91-12.9-66.21-4.82-10.69-11-20.77-18.85-29.51.15-.46.48-.59.5-.99,5.3.57,14.96-7.01,18.35-10.91,3.67-4.22,5.59-6.55,6.45-12.4,2.64-.9,6.75,2.02,9.18,3.47,6.46,3.86,14.87,10.15,20.83,14.88,17.29,13.7,36.83,30.79,37.45,54.56Z"/>
      <path class="cls-34" d="M306.18,18.69c-10.22,6.08-9.32,20.82-12.4,30.75-26.06-14.48-60.64-16.36-88.28-5.46l.25-1.98c-4.48.68-9.9.66-14.14,2.48-.73-3.85-1.09-7.95-2.48-11.66-11.18-29.78-52.46-8.81-32.24,18.1-5.61-.67-13.66,3.06-19.1,5.46-16.46,7.25-32.18,18.94-43.89,32.49l15.13-5.21c2.02.31,3.07-1.42,2.73,1.24-11.01,6.25-22.14,13.16-30.75,22.57-.1-.05-.32.02-.5,0-2.55-.22-8.39,7.15-9.42,9.42-2.6.79-2.56,5.69-5.95,5.46-.75-4.47-1.75-8.89-2.48-13.39.77-.07,1.12-1.13,1.49-1.49,2.91-2.88,8.49-7.29,10.42-10.66.84-1.47,3.88-8.19.99-8.68-6.19-1.06-10.83,14.53-13.39,18.35-.05-.31.05-.68,0-.99-.65-4.18-.47-8.75-.99-12.9,3.23-5.45.18-11.36.5-16.86.66-11.47,19.5-25.23,28.52-31.74,26.57-19.19,57.1-32.1,89.28-38.69,43.31-8.86,89.32-7.36,130.19,10.17l-3.47,3.22Z"/>
      <path class="cls-3" d="M453.49,261.72c-1.72.98-12.11,8.39-12.9,9.67-1.93,3.15-1.31,7.42-2.48,9.67-1.09,2.12-12.74,7.81-15.38,9.42.96-.86,1.4-2.08,1.98-2.98,3.71-5.64,5.25-10.88,6.94-17.36,2.24-.13,3.61-1.94,2.98-3.97l27.53-36.21c.37.18.33,7.78.25,8.18-1.43,6.9-14.66,15.93-8.93,23.56Z"/>
      <path class="cls-22" d="M416.29,311.82l-19.34-.99c.57-.88-.03-2.11,1.49-2.98,2.91-1.65,17.61.48,17.86,3.97Z"/>
      <path class="cls-3" d="M205.5,43.99c-4.23,1.67-8.23,3.64-12.15,5.95-.05.03-.46-.67-.74-.5.08-1.73-.68-3.31-.99-4.96,4.23-1.82,9.66-1.8,14.14-2.48l-.25,1.98Z"/>
      <g>
        <path class="cls-35" d="M62.16,106.48c.14.86.37,1.69.5,2.48.73,4.5,1.73,8.92,2.48,13.39,1.73,10.35,3.64,20.85,5.46,31.25.26,1.5.72,3,.99,4.46,1.15,6.16,2.58,12.25,3.97,18.35-.62.4-.42.51-1.49.5-2.11-7.84-3.2-15.8-4.46-23.81-.13-.81-.45-1.7-.5-1.98-1.35-8.45-2.88-16.52-4.46-24.8-.03-.17.33-1.86,0-3.47-1.1-5.41-3.18-10.7-2.98-16.37.02-.48-.18-1.01.5-.99.05.31-.05.68,0,.99Z"/>
        <path class="cls-60" d="M156.89,50.93c1.43,1.9,3.16,3.43,4.96,4.96,4.49,3.81,8.82,6.63,14.88,7.44-6.65,7.56-10.99,14.6-15.87,23.31-10.35,18.45-24.8,54.02-18.85,74.89.04.14.26.98.5.99-3.1,4.51-5.4,10.13-6.94,15.38-1.21,4.11-.52,5.94-.99,9.18-.03.18-1.73,1.16-1.98,2.98-.61,4.3,1.13,10.93,2.48,15.13,1.91,5.91,4.69,10.05,8.43,14.88,5.35,6.89,13.67,14.16,21.33,18.35-.56,2.71-1.72,5.29-2.48,7.94-.39,1.34-1.27,7.02-1.49,7.44-.03.06-.85.87-.99.99-.11.1-.84-.1-.99,0-6.74,4.55-13.32,2.92-20.34.99,1.54-5.31,4.34-12.03,3.47-17.61-.39-2.52-1.77-5.26-4.46-4.22-1.63.63-4.5,4.87-5.46,6.45h-1.49c2.19-4.28,4.91-10.45,1.49-14.88-1.39-1.79-1.85-1.39-3.72-.5-4.9,2.34-14.31,13.18-15.62,18.6-.5,2.08.05,5.23-.5,6.7-1.83-3.04-4.2-5.85-5.95-8.93,4.56-6.78,11.28-10.61,14.38-18.35,2.67-3.43,6.66-20.84,1.74-22.32-3.61-1.08-10.63,5.58-12.65,8.43-4.23,5.97-6.7,19.91-5.95,27.28.1,2.13-1.9-1.12-1.98-1.24-7.99-12.17-14.8-25.25-19.84-38.93,1.61-1.03,8.07-6.85,9.67-8.43,3.52-3.47,15.57-16.25,12.15-21.33-1.98-2.94-12.96,5.47-14.88,7.69-4.4,5.08-5.43,11.9-6.94,18.1-.09.38-.35,1.08-.5,1.49l-5.46-15.87c4.4-4,11.56-6.81,15.38-12.15,2.29-3.2,6.5-13.87,3.97-16.62-1.53-1.66-2.23-.46-3.97.5s-7.36,6.07-8.43,7.69c-2.78,4.19-5.28,17.72-7.44,19.1-1.38-6.1-2.82-12.19-3.97-18.35,4.44-5.63,11.51-8.31,15.87-14.14,1.5-2,8.38-13.37,4.46-14.63-2.67-.86-9.82,3.63-11.9,5.7-3.6,3.58-5.9,9.36-7.44,14.14-.46,1.44-.52,4.48-1.98,4.46-1.81-10.39-3.73-20.9-5.46-31.25,3.39.23,3.36-4.67,5.95-5.46-2.15,4.73-1.27,8.54-1.98,13.64,1.82-.69,2.87-3.37,3.97-4.71,2.16-2.66,12.69-15.98,7.94-18.35,8.61-9.41,19.74-16.32,30.75-22.57.34-2.66-.71-.93-2.73-1.24l-15.13,5.21c11.71-13.55,27.44-25.24,43.89-32.49,5.44-2.39,13.48-6.13,19.1-5.46Z"/>
        <path class="cls-67" d="M92.42,213.61l1.98.74c3.18-9.76,12.35-23.97,11.41-34.22-.04-.41-1.32-1.68-1.49-2.23,6.67-3.66,7.82,6.1,7.44,11.16-.88,11.92-11.5,20.47-18.6,29.01-1.33-.18-.63-3.41-.74-4.46Z"/>
        <path class="cls-67" d="M104.32,177.9c.17.55,1.45,1.82,1.49,2.23.95,10.25-8.22,24.47-11.41,34.22l-1.98-.74c-.42-3.79-.99-9.47-.5-13.14.52-3.87,9.31-20.88,12.4-22.57Z"/>
      </g>
      <g>
        <path class="cls-49" d="M406.87,192.78c.38-.15,1.03-.09.99.5-1.14.78-1.78.72-2.48,1.98-2.3,4.12-2.11,12.68-5.46,16.86h-.5c.81-2.17,5.05-16.56,4.46-17.61-1.59-.13-2-.95-2.98-1.74,1.14-1.42.98-1.14.5-2.73-2.19-7.19-11.38-19.96-16.37-25.54,15.11.55,16.96,14.23,20.09,26.29l5.21-22.57c-.03-.38-2.09-3.31-2.48-3.72l-15.38-25.79c6.43,4.28,12.48,9.61,15.87,16.62l2.48,9.92c-.91-5.1,5.16-19.6,4.46-23.31-.28-1.49-7.74-8.61-8.93-10.42-2.05-3.13-11.5-21.13-3.97-20.09,3.7.51,7.91,11.64,9.92,14.63l3.47,14.38c-.27-5.17,6.21-20.39,5.46-24.3-.28-1.42-6.27-7.02-7.44-8.93-1.62-2.65-8.47-17.74-4.22-19.1,5.29-1.68,14.46,19.05,12.15,24.06.17.4.76.41.99,0,.42-.76,4.17-16.02,3.97-16.86-.12-.5-5.18-5.99-5.95-8.43-3.02-9.52,2.72-38.27,9.42-15.87,4,13.36.44,15.44-2.98,26.29-1.37,4.35-1.93,9.49-3.47,13.89,2.94-4.45,3.82-9.08,8.18-12.65,1.71-1.39,11.08-7.06,12.15-4.22,1.57,4.17-7.39,14.61-10.66,17.11-2.68,2.05-10.5,4.56-11.66,6.7-2.1,3.89-3.22,17.11-4.71,22.07,1.56-2.07,1.86-5.06,3.22-7.19,3.46-5.4,26.3-21.46,17.36-5.95-2.36,4.1-9.54,9.21-13.64,11.66-1.4.84-6.94,2.08-7.69,3.22-.68,1.04-5.13,23.07-4.96,24.3.01.09.74,1,.99.5,6.56-13.71,15.12-24.9,31.99-23.56,2.09.83-3.91,11.43-5.21,13.14-7.62,10-17,10.42-28.27,12.4l-5.21,25.05c.39-.41.68-.77,1.24-.99Z"/>
        <path class="cls-67" d="M464.9,161.04c-2.42,8.36-1.72,16.36-9.67,22.32-2.09,1.57-5.33,1.86-7.19,3.72-2.64,2.64-5.02,11-8.43,13.89-.13,1.59,7.23-3.86,7.94-4.22.56,1.54,1.27.77,2.23.5,4.89-1.39,10.77-1.54,14.63-4.96,16.32.54-6.67,11.83-11.16,12.4-4.15.53-12.45-2.68-14.38-1.98-1.22.44-11.5,19.57-13.14,22.32-.79,1.32-4.5,3.53-.74,3.47s19.57-6.91,24.8-8.43c1.14-.33,4.21-1.3,5.21-.5-6.41,7.67-23.1,13.54-32.73,10.42-.07-.02-.44-1.14-.99-.99.32-.65,1.96-3.51,1.98-3.72.09-.83-.75-3.63-.99-4.71,5.12-2.33.59-9.61,2.98-12.9.51.89,1.09-.13,1.98,2.48.44,1.3.6,2.59.5,3.97-.14,1.75-1.52,4.37-1.98,6.2-.02,1.47,1.37-.33,1.49-.5.9-1.26,7.8-12.63,7.94-13.39.5-2.79-1.12-5.34-1.49-7.69,2.24.05,1.79,4.63,2.23,4.96.75-.67,1.51-1.29,2.23-1.98,1.84-1.75,8.76-13.4,9.42-15.87,7.98-5.76,11.92-16.58,17.36-24.8Z"/>
        <path class="cls-49" d="M464.9,161.04c-5.43,8.22-9.38,19.04-17.36,24.8,2.14-7.99,4.38-31.41,17.11-31.74,6.13-.16,1.03,4.26.25,6.94Z"/>
        <path class="cls-45" d="M435.64,172.94c-2.09,2.35-4.02,5.71-4.46,8.93-7.89,2.43-16.48,6.74-23.31,11.41.04-.58-.61-.64-.99-.5,6.39-7.09,17.58-22.64,28.77-19.84Z"/>
        <path class="cls-49" d="M454.98,219.57c-1-.81-4.07.17-5.21.5-5.23,1.52-20.89,8.37-24.8,8.43s-.05-2.15.74-3.47c9.38-6.22,19.56-16.08,30.75-6.7.02.31-1.34,1.07-1.49,1.24Z"/>
        <path class="cls-49" d="M437.12,174.43c-2.45,3.89,1.8,10.29,2.48,14.63.46,2.94.15,5.78,0,8.68-.52,1.31-1.29,2.54-1.49,3.97-.73.69-1.48,1.32-2.23,1.98-.44-.33,0-4.91-2.23-4.96-.71-4.48-2.45-10.62-2.48-14.88,0-.35-.01-1.89,0-1.98.44-3.22,2.37-6.58,4.46-8.93.89.22,1.13,1.2,1.49,1.49Z"/>
        <path class="cls-9" d="M438.11,282.56c.06-.05.45-.95.5-.99,1.06-.97.9-2.15.99-2.23,6.51-5.96,12.62-11.85,18.35-18.6,2.89,1.96-3.74,12.42-5.46,14.63-2.99,3.86-9.32,10.61-14.38,7.19Z"/>
        <path class="cls-37" d="M438.61,281.56c-.05.05-.44.94-.5.99-3.36,3.2-11,6.15-14.88,9.18,8.57-4.17,15.76-5.38,23.81.5-.59,1.13-.99,1.49-1.98,2.23l-12.65-1.98-7.19.99c-.85-.18-3.06-1.01-3.22-.99-1.08.14-7.65,5.03-9.18,5.95-.97.22-4.93,2.63-5.95,3.47-2.58-.37-5.43,2.07-7.94,2.48.12-.17.4-.88.5-.99.94-1.04,3.4-.42,4.46-3.47.33,1.22,1.02-.02,1.49,0,.05,0-.18.81.25.99,4.95-3.11,10.08-6,15.13-8.93.75-.44,1.24-1.03,1.98-1.49,2.63-1.61,14.28-7.31,15.38-9.42l.5.5Z"/>
        <g>
          <path class="cls-49" d="M442.08,245.85l-32.73,3.97c.67-.82.38-1.34,1.98-2.48.11-.08,1.32.43,2.73-.5,8.4-5.53,24.51-14.98,31.49-3.22-.61,2.26-2.54,1.7-3.47,2.23Z"/>
          <path class="cls-67" d="M442.08,245.85c-9.57,5.44-23.36,11.53-33.73,5.46.36-.51.54-.93.99-1.49l32.73-3.97Z"/>
        </g>
        <path class="cls-2" d="M406.87,301.9c1.02-.84,4.98-3.25,5.95-3.47,3.45-.79,20.88.25,13.14,5.46-7.14,4.8-13.49-1.17-19.1-1.98Z"/>
        <path class="cls-35" d="M422.24,229.98l-10.91,17.36c-1.61,1.14-1.31,1.66-1.98,2.48-.45.56-.63.97-.99,1.49-4.03,5.69-7.22,12.65-11.41,18.35-.04,0-.25,1.01-.74.5-.25-.27-.39-1.3-.74-1.98,2.05-3.76,12.32-16.44,12.9-19.59.3-1.64-.46-3.68-.99-5.21,2.1-1.77,1.6-4.86,1.49-7.44,2.89.68,1.29-1.51,1.98-2.73.27-.46.96-.18.99-.25l-2.23,13.89c2.87-6.04,8.78-12.09,11.66-17.86.56-.15.93.97.99.99Z"/>
        <path class="cls-48" d="M457.95,260.73c-5.74,6.75-11.84,12.64-18.35,18.6-.09.08.06,1.26-.99,2.23l-.5-.5c1.17-2.25.55-6.53,2.48-9.67.78-1.28,11.17-8.69,12.9-9.67,1.41-.8,2.96-2.01,4.46-.99Z"/>
        <path class="cls-49" d="M439.6,197.74c.15-2.9.46-5.74,0-8.68-.68-4.34-4.93-10.74-2.48-14.63,6.44,5.18,5.25,16.38,2.48,23.31Z"/>
        <path class="cls-22" d="M445.06,294.46c-5.73,4.27-13.8.32-19.84-.99l7.19-.99,12.65,1.98Z"/>
        <path class="cls-49" d="M464.4,192.29c-3.86,3.42-9.74,3.57-14.63,4.96-.96.27-1.68,1.04-2.23-.5,5.67-2.86,10.27-4.68,16.86-4.46Z"/>
        <path class="cls-15" d="M399.92,212.13c.27.77,2.42.61,2.98.5.16-.03.35.05.5,0-.29,1.18,1.05,1.48,1.49,1.98,1.51,1.74,2.84,3.95,3.97,5.95.17.31.33.68.5.99l.99,3.22-3.97,1.74-2.48-4.22c.82,1.9,1.81,6.68,3.97,7.19.62,2.38.89,3.95.99,6.45s.61,5.67-1.49,7.44c-.75-2.14-1.62-2.23-2.48-3.47-1.44-2.08-5.69-6.03-6.45-7.94-1.61-4.02-.56-8.75-1.24-12.9-.36,1.99-6.73,11.89-6.7,12.65.01.29,3.14,3.95,3.47,4.71.42.98,2.4,5.17,2.48,5.46,1.91,6.96.76,14.45-3.47,20.34h-.5c-.32-.92-1.4-2.58-1.98-3.47-.96-4.65-1.27-9.41-1.98-14.14-.38-2.53.81-4.13-.99-7.44-3.91-7.18-4.05,2.27-7.44-.25-.03-.09-.77-.88-.99-1.49-1.69-4.58-3.17-7-5.95-10.91,2.52-3.83,2.86-2.2,5.95-.5.84.75,1.15,2.36,2.23,2.98,1.36.77,6.65.98,8.43,3.47,2.39-4.23,5.17-8.49,7.19-12.9.77-1.69,1.25-2.58,1.98-4.46.22-.56.48-.94.5-.99h.5Z"/>
        <path class="cls-9" d="M398.93,213.12c-.74,1.89-1.21,2.78-1.98,4.46-3.46-4.05-10.43-3.8-15.13-6.94-3.86-2.58-9.56-10.98-10.17-15.62-.33-2.52-.41-10.01,3.72-9.67.69.06,10.95,6.17,11.9,6.94,6.47,5.22,8.7,13.5,11.66,20.83Z"/>
        <path class="cls-39" d="M367.19,214.11c-3.12,3.49,4.19,7.93,5.95,10.42,2.78,3.91,4.26,6.33,5.95,10.91-1.82,2.45.95,6,1.49,7.94.62,2.26.42,4.29.99,5.95l-2.48,1.74c2.73-4.77-2.48-6.88-4.96-10.17-2.25-2.98-5.01-6.28-6.94-9.42-2.51-4.09-9.33-19.85,0-17.36Z"/>
        <path class="cls-9" d="M400.92,192.78c-.8-.64-3.18-1.56-4.22-2.48-6.66-5.87-14.21-17.08-11.66-25.79,4.99,5.58,14.18,18.35,16.37,25.54.48,1.58.64,1.31-.5,2.73Z"/>
        <path class="cls-9" d="M407.86,164.51c-3.35-3.53-11.74-6.07-14.38-10.66-1.3-2.25-4.91-14.84-.99-15.13l15.38,25.79Z"/>
        <path class="cls-39" d="M379.09,224.03c-3.09-1.7-3.43-3.34-5.95.5-1.77-2.48-9.07-6.92-5.95-10.42,3.66.98,9.03,7.37,11.9,9.92Z"/>
        <g>
          <path class="cls-9" d="M367.19,231.47c1.94,3.15,4.69,6.44,6.94,9.42-.42,1.49,3.11,9.18,2.98,9.67-.26.96-1.91.67-1.98.74-.99-.03-1.99.04-2.98,0s-1.81-.51-1.98-.5c-2.81-5.76-6.54-10.96-9.92-16.37-1.18-1.89-2.1-4.16-3.47-5.95,5.07-3.22,6.2,1.87,10.42,2.98Z"/>
          <path class="cls-49" d="M370.17,250.81c-1.07.06-9.36,1.25-9.92,1.49-4.89-2.12-1.66-7.86-1.98-10.17-.03-.19-1.7-2.17-1.98-3.22l3.97-4.46c3.38,5.41,7.11,10.61,9.92,16.37Z"/>
          <path class="cls-9" d="M360.25,234.45l-3.97,4.46c-.9-3.4-3.61-7.81.5-10.42,1.37,1.8,2.29,4.06,3.47,5.95Z"/>
        </g>
        <path class="cls-3" d="M431.17,183.86c.03,4.26,1.77,10.4,2.48,14.88.37,2.35,1.99,4.9,1.49,7.69-.14.77-7.03,12.13-7.94,13.39-.12.16-1.51,1.96-1.49.5.46-1.83,1.85-4.45,1.98-6.2,2.98-.39,5.7-6.69,4.46-8.93-1.53-2.77-6.09-.98-6.94-2.23-1.47-2.15.12-10.67-4.96-10.66-1.96,0-4.53,3.3-5.46,4.96-2.52,4.52-.28,4.28-.99,6.7-.25.84-10.19,6.36-10.91,8.68-.56.12-2.7.27-2.98-.5,3.35-4.18,3.16-12.75,5.46-16.86,10.31.65,17.58-6.66,25.79-11.41Z"/>
        <path class="cls-9" d="M431.17,181.87c-.01.1,0,1.64,0,1.98-8.21,4.74-15.48,12.06-25.79,11.41.7-1.26,1.34-1.2,2.48-1.98,6.83-4.67,15.42-8.98,23.31-11.41Z"/>
        <path class="cls-3" d="M404.88,239.9c.86,1.25,1.73,1.33,2.48,3.47.54,1.53,1.29,3.57.99,5.21-.57,3.15-10.85,15.84-12.9,19.59-.75-1.45-1.18-4.43-2.48-5.95,4.23-5.89,5.38-13.37,3.47-20.34l8.43-1.98Z"/>
        <g>
          <path class="cls-15" d="M430.68,263.21c-8.41,3.81-16.23,9.07-25.54,10.42l-7.69-.5c0-.1-1.18-1-.99-1.74,1.04-.19,1.04-.8,1.49-1.24,8.09-8.03,22.16-12.93,32.73-6.94Z"/>
          <path class="cls-54" d="M434.64,266.19c.64,2.03-.74,3.84-2.98,3.97-.15,0-1.06-.44-1.98-.5-10.55-.63-9.94,2.45-18.6,4.46-4.5,1.05-9.06.33-13.14,1.98-.2-.96-.42-1.99-.5-2.98l7.69.5c9.31-1.34,17.13-6.6,25.54-10.42.6.34,3.89,2.73,3.97,2.98Z"/>
          <path class="cls-44" d="M429.68,269.66c-1.08.72-2.34,1.86-2.98,2.98-1.38-.15-2.35.95-3.47,1.49-1.06.51-3.06,1.66-3.97,1.98-1.55.55-6.31,1.76-7.94,1.98-1.11.15-2.99.49-3.97.5-3.21.02-6.49-.72-9.42-1.98-.03-.16.03-.34,0-.5,4.09-1.65,8.64-.94,13.14-1.98,8.66-2.01,8.05-5.1,18.6-4.46Z"/>
        </g>
        <path class="cls-3" d="M403.89,299.92c-1.06,3.05-3.52,2.44-4.46,3.47-.1-4.11,1.56-8.86,1.49-12.9l3.47-.99c-.45,2.41.26,8.23-.5,10.42Z"/>
        <path class="cls-67" d="M407.36,279.58c-.22,2.74-1.51,4.81-1.98,6.94l-4.96,1.98c-.12-2.01-.69-4.43-.99-6.45.68-3.08,4.58-.07,4.96-2.48h2.98Z"/>
        <path class="cls-3" d="M381.57,249.33c.24.71,1.37,2.31,1.98,2.98.45.99-.5,1.88-.5,1.98-2.19-4.28-8.24-.86-11.16.99.72-1.48,2.1-2.79,3.22-3.97.07-.08,1.72.21,1.98-.74.13-.49-3.4-8.18-2.98-9.67,2.48,3.29,7.69,5.4,4.96,10.17l2.48-1.74Z"/>
        <path class="cls-3" d="M407.36,278.59c-.01.33.03.67,0,.99h-8.43c-.2-1.14-.75-1.83-.99-2.98,2.93,1.27,6.21,2,9.42,1.98Z"/>
        <path class="cls-9" d="M405.38,286.52c-.28,1.26-.86,2.25-.99,2.98l-3.47.99c0-.1-.43-.89-.5-1.98l4.96-1.98Z"/>
        <path class="cls-15" d="M404.39,279.58c-.38,2.41-4.28-.6-4.96,2.48-.13-.88-.35-1.63-.5-2.48h5.46Z"/>
        <path class="cls-34" d="M421.25,217.58c.36.95.77,1.98.99,2.98.24,1.08,1.08,3.88.99,4.71-.02.21-1.66,3.07-1.98,3.72-2.88,5.77-8.79,11.82-11.66,17.86l2.23-13.89c2.09-5.25-.26-7.12-2.48-11.41-.16-.31-.32-.69-.5-.99,4.37-.62,8.4-.87,12.4-2.98Z"/>
        <path class="cls-49" d="M422.24,203.2c.78,1.65,2.08,2.89,2.98,4.46-2.39,3.28,2.14,10.56-2.98,12.9-.22-.99-.63-2.03-.99-2.98-1.04-2.74-2.94-4.99-4.46-7.44-.49-.78-1.25-3.18-1.49-4.22l-1.24-.25c-1.36-.06-8.76,6.32-10.66,6.94-.14.05-.33-.03-.5,0,.72-2.32,10.66-7.83,10.91-8.68.72-2.41-1.53-2.18.99-6.7,3.04,1.07,4.29,7.28,7.44,5.95Z"/>
        <path class="cls-9" d="M432.16,205.18l-4.96,4.96c-.89-2.61-1.48-1.59-1.98-2.48-.89-1.57-2.19-2.81-2.98-4.46-1.8-3.79-2.59-6.56-1.98-10.91,5.08,0,3.49,8.51,4.96,10.66.86,1.26,5.41-.54,6.94,2.23Z"/>
        <path class="cls-45" d="M427.7,214.11c.11-1.38-.05-2.67-.5-3.97l4.96-4.96c1.24,2.23-1.49,8.54-4.46,8.93Z"/>
        <path class="cls-22" d="M431.67,270.16c-1.69,6.47-3.23,11.72-6.94,17.36l-1.74,1.49c-.95-.73,2.64-14.47,3.72-16.37.64-1.12,1.9-2.26,2.98-2.98.92.06,1.83.5,1.98.5Z"/>
        <path class="cls-43" d="M426.71,272.64c-1.08,1.89-4.67,15.64-3.72,16.37l1.74-1.49c-.59.89-1.03,2.11-1.98,2.98-.74.45-1.23,1.05-1.98,1.49.02-6.49-.83-12.05,2.48-17.86,1.13-.54,2.09-1.63,3.47-1.49Z"/>
        <path class="cls-3" d="M420.76,291.98c-5.05,2.93-10.18,5.82-15.13,8.93-.43-.18-.2-.99-.25-.99,4.06-4.23,7.19-10.44,6.94-16.37,2.15-2.68,6.08-3.8,6.94-7.44.91-.32,2.91-1.47,3.97-1.98-3.31,5.81-2.46,11.37-2.48,17.86Z"/>
        <path class="cls-65" d="M411.33,278.09c-.75,1.81.95,4.34.99,5.46.25,5.93-2.88,12.13-6.94,16.37-.47-.02-1.15,1.22-1.49,0,.76-2.19.04-8.01.5-10.42.14-.72.71-1.72.99-2.98.47-2.13,1.76-4.21,1.98-6.94.03-.32-.01-.67,0-.99.98,0,2.86-.34,3.97-.5Z"/>
        <path class="cls-54" d="M409.35,221.55c2.22,4.29,4.57,6.16,2.48,11.41-.03.07-.73-.21-.99.25-.7,1.21.9,3.41-1.98,2.73-.1-2.5-.37-4.07-.99-6.45-.24-.91-1.17-2.02-1.49-2.98l3.97-1.74-.99-3.22Z"/>
        <path class="cls-35" d="M390.5,258.75c-2.43-3.72-4.94-4.28-6.94-6.45-.62-.67-1.74-2.27-1.98-2.98-.57-1.66-.37-3.7-.99-5.95.68-2.84.34-3.83-.5-6.45,3.38,2.51,3.53-6.93,7.44.25,1.81,3.31.61,4.91.99,7.44.71,4.73,1.02,9.49,1.98,14.14Z"/>
        <path class="cls-9" d="M421.25,217.58c-4,2.1-8.03,2.36-12.4,2.98-1.13-2-2.45-4.21-3.97-5.95l11.9-4.46c1.52,2.45,3.42,4.7,4.46,7.44Z"/>
        <path class="cls-3" d="M398.44,231.97l-4.46,4.46c-.33-.76-3.46-4.42-3.47-4.71-.04-.76,6.34-10.65,6.7-12.65.68,4.14-.37,8.87,1.24,12.9Z"/>
        <path class="cls-9" d="M404.88,239.9l-8.43,1.98c-.08-.29-2.06-4.47-2.48-5.46l4.46-4.46c.76,1.9,5.01,5.86,6.45,7.94Z"/>
        <path class="cls-49" d="M416.79,210.14l-11.9,4.46c-.44-.5-1.78-.8-1.49-1.98,1.9-.63,9.3-7,10.66-6.94l1.24.25c.24,1.04,1,3.43,1.49,4.22Z"/>
        <path class="cls-55" d="M380.09,236.93c.84,2.62,1.18,3.61.5,6.45-.53-1.94-3.31-5.49-1.49-7.94.22.61.96,1.4.99,1.49Z"/>
        <path class="cls-10" d="M406.37,226.51c.32.95,1.25,2.07,1.49,2.98-2.15-.51-3.15-5.29-3.97-7.19l2.48,4.22Z"/>
        <path class="cls-9" d="M420.26,192.29c-.6,4.36.19,7.12,1.98,10.91-3.15,1.33-4.4-4.88-7.44-5.95.92-1.66,3.5-4.96,5.46-4.96Z"/>
        <path class="cls-49" d="M419.27,276.11c-.87,3.64-4.8,4.76-6.94,7.44-.05-1.12-1.75-3.64-.99-5.46,1.63-.23,6.39-1.43,7.94-1.98Z"/>
      </g>
      <g>
        <path class="cls-3" d="M54.72,173.94c7.48,3.23,13.29,1.91,20.34,4.96l3.47,13.39c-3.25-5.04-11.22-10-17.11-10.91s-19.9.59-9.67,7.44c7.12,4.77,13.89,4.35,21.82,4.96,2,.15,3.92,1,5.95.99.16.3.35.69.5.99.16.33.36.7.5.99,2.19,4.69,4.42,11.33,6.45,16.37-2.23.21-3.32-3.4-4.46-4.71-6.88-7.89-22.46-17.1-31.25-7.94.33,1.96,1.34,3.2,2.48,4.71,1.58,2.1,3.73,3.62,5.95,4.96v1.98c-.79-.37-1.88-.81-2.73-.5s-8.63,14.01-9.18,15.62c-2.14,6.36-.57,12.12-.99,18.6-.57-.55-6.94-10.03-6.94-10.66,0-2.27,8.35-16.66,8.93-23.31,2.05-23.68-12.8-2.19-13.39,8.43-.19,3.51,1.19,6.44.74,9.67-.44-2.45-5.41-9.06-5.7-10.66-.54-2.98,4.05-15.24,4.46-19.34.19-1.91.4-11.64-1.24-12.15-1.5-.42-1.15.95-1.74,1.49-7.67,7.05-7.58,17.09-2.98,25.79-.65.94-1.78-1.39-1.98-1.74-1.18-1.97-7.33-16.7-7.44-18.35-.23-3.47,3.21-6.87,2.98-12.15,9.33,0,14.18-11.88,20.83-17.36,1.74,3.03,8.22,7.05,11.41,8.43Z"/>
        <path class="cls-49" d="M20.5,166.99c.51,2.65,1.87,13.3,1.98,15.87.24,5.28-3.2,8.69-2.98,12.15.11,1.66,6.26,16.38,7.44,18.35.21.34,1.33,2.68,1.98,1.74-.62-4.6-1.79-8.89-.99-13.64.7-4.18,4.3-7.92,3.97-12.15.59-.54.23-1.91,1.74-1.49,1.64.51,1.43,10.24,1.24,12.15-.41,4.1-5,16.36-4.46,19.34.29,1.6,5.26,8.22,5.7,10.66.45-3.23-.94-6.17-.74-9.67.59-10.62,15.44-32.11,13.39-8.43-.58,6.65-8.93,21.05-8.93,23.31,0,.64,6.38,10.12,6.94,10.66,1.88,1.81,1.82-1.43,4.46-.5-2.36,2.31-3.83.62-1.49,4.46-1.42-.04-.87.15-.5.99-1.26.44-2.79.9-3.97,1.49l.25-1.49c-8.14-2.94-18.87-2.41-26.78-4.46-2.42-.63-4.34-3.43-7.19-2.98.53-3.46,11.78-3.77,14.63-3.47,7.54.79,14.07,7.45,21.33,9.42-3.36-3.84-6.77-13.14-11.66-13.89l-25.79-17.36c-.62-6.52,3.34-1.53,6.2-.5,2.53.91,5.56,1.17,7.94,2.48,4.82,2.66,8.17,9.86,12.4,13.39-2.44-5.18-5.49-11.7-8.68-16.37-.46-.67.06-.85-1.49-2.48-2.28-5.56-4.65-11.04-7.44-16.37-.07-.13.74-.54-.5-2.48.14-1.42-.51-4.13-.99-5.46l1.98,1.24.99-24.55Z"/>
        <path class="cls-34" d="M52.74,143.19c4.54,4.81,11.06,7.08,16.86,9.92,1.26,8.01,2.35,15.97,4.46,23.81-2.92-.04-4.41-2.87-5.95-4.96-5.06-6.86-12.69-19.27-23.81-14.88,1.64-4.76,4.63-10.51,8.43-13.89Z"/>
        <path class="cls-67" d="M68.11,171.95c-4.53.51-10.11-6.29-14.14-8.43-.23-.12-3.52-.37-4.46-1.49l17.11,12.65c-4.13,1.2-7.88.03-11.9-.74-3.19-1.38-9.67-5.4-11.41-8.43s-2.84-6.92.99-8.43c11.12-4.39,18.74,8.02,23.81,14.88Z"/>
        <path class="cls-9" d="M45.3,252.3c-6.96,3.45-10.95,5.17-19.1,3.47-4.46-.93-15.47-6.9-14.63-12.4,2.85-.45,4.77,2.35,7.19,2.98,7.91,2.05,18.64,1.52,26.78,4.46l-.25,1.49Z"/>
        <path class="cls-67" d="M18.52,195.76c1.24,1.94.43,2.35.5,2.48-8.6,6.22-31.13-18.64-10.66-11.41,3.14,1.11,8.37,6.11,10.17,8.93Z"/>
        <path class="cls-9" d="M26.45,214.61c1.55,1.63,1.03,1.81,1.49,2.48-6.34,1.06-10.47-3.02-15.62-5.46-1.78-.84-5.24-1.08-6.94-1.98-7.5-3.98-1.51-6.83,4.46-5.46,2.74.63,14.57,8.26,16.62,10.42Z"/>
        <path class="cls-9" d="M20.5,166.99l-.99,24.55-1.98-1.24c-2.52-6.95-5.26-10.33-4.46-18.6.48-5.02,5.29-15.86,7.44-4.71Z"/>
        <path class="cls-67" d="M61.17,92.6c.52,4.15.34,8.71.99,12.9-.68-.02-.48.51-.5.99-3.05-4.04-12.68-8.9-11.41-14.63s6.59.55,7.94,2.98c.56,1.01,1.71,6.12,1.98,6.45,1.3,1.52-.27-9.4-.5-10.42-.82-3.73-6.69-15.77-1.98-18.1.97,6.54,2.64,13.27,3.47,19.84Z"/>
        <path class="cls-9" d="M35.87,235.44c-2.44-.37-5.78.4-8.18,0-5.9-.98-17.03-11.28-17.61-17.36l25.79,17.36Z"/>
        <path class="cls-3" d="M64.64,126.32c1.58,8.28,3.11,16.35,4.46,24.8-.85-.73-2.28-1.69-2.98-2.48-3.32-3.79-4.53-9.04-7.44-12.9,1.38-2.82,6.13-6.12,4.96-9.42.14.08.68-.04.99,0Z"/>
        <path class="cls-49" d="M58.69,135.75c2.91,3.85,4.12,9.11,7.44,12.9-1.3.97-3.34-.76-4.22-1.49-5.9-4.91-10.87-14.43-17.11-19.34-.02-1.06-.33-2.22.74-2.98,1.5-.62,11.86,9.21,13.14,10.91Z"/>
        <path class="cls-49" d="M49.27,294.46c.32,1.56,1.33,1.77,1.98,3.47l-4.96,1.24c.72,1.55,3.47,7.31,0,6.7-1.48-.83-7.05-4.86-8.18-5.95s1.7-.87,0-1.98c-4.96.74,2.5-5.89,5.21-5.95,1.46-.03,4.69,2.02,5.95,2.48Z"/>
        <path class="cls-67" d="M66.13,148.64c.69.79,2.13,1.75,2.98,2.48.05.29.37,1.17.5,1.98-5.81-2.84-12.32-5.11-16.86-9.92-2.58-2.73-7.88-11.68-7.94-15.38,6.24,4.92,11.21,14.43,17.11,19.34.87.73,2.91,2.46,4.22,1.49Z"/>
        <path class="cls-10" d="M63.15,122.35c-4.2.07-9.54-5.13-12.4-8.68s-3.47-8.11-7.44-10.66c3.93-1.76,7.09,2.64,9.42,5.21,3.43,3.78,7.04,10.02,10.42,14.14Z"/>
        <path class="cls-67" d="M63.15,122.35c.47,0,.7.75,1.49.5.33,1.61-.03,3.3,0,3.47-.31-.04-.85.08-.99,0-5.56-3.16-12.91-7.2-16.86-12.15-1.98-2.48-7.08-9.55-3.47-11.16,3.97,2.55,4.6,7.13,7.44,10.66s8.2,8.75,12.4,8.68Z"/>
        <g>
          <path class="cls-22" d="M79.52,290.99c-5.66.84-8.83.35-15.38.5l-21.33-4.46c1-1.07,10.44-3.8,12.15-3.97,9.36-.94,17.28,2.32,24.55,7.94Z"/>
          <path class="cls-65" d="M83.98,290c2.22,2.35,5.1,4.2,7.44,6.45.09.46-.1,1.03,0,1.49-2.28.61-5.51-5.22-6.7-5.46-.75-.15-6.78,2.5-8.18,2.98-3.29,1.11-7.5,3.66-10.91,3.97-5.63.5-6.66-1.42-10.91-2.98.06-2.96-6.22-1.78-7.19-4.46,5.64,1.06,10.98-.37,16.62-.5,6.55-.15,9.71.35,15.38-.5,2.14-.32,2.58,1.9,3.47-.5.25-.67.37-.57.99-.5Z"/>
          <path class="cls-37" d="M64.15,291.48c-5.64.13-10.97,1.56-16.62.5.97,2.69,7.26,1.51,7.19,4.46-1.82-.67-3.63-1.33-5.46-1.98-1.26-.46-4.5-2.51-5.95-2.48-1.81-1.29-2.18-3.15-.5-4.96l21.33,4.46Z"/>
        </g>
        <path class="cls-9" d="M51.25,297.93c1,2.62.68,5.61,1.98,7.69.61.97,3.82,2.58,4.96,3.22-.07.99-1.7,1.09-1.98,1.49h-.5l-6.7-3.97c-1.08-.48-1.18.53-1.24.5-.58-.29-1.11-.78-1.49-.99,3.47.62.72-5.15,0-6.7l4.96-1.24Z"/>
        <path class="cls-10" d="M61.67,75.73c-.32,5.5,2.73,11.41-.5,16.86-.83-6.57-2.5-13.3-3.47-19.84,1.5-1.59,3.24,1.73,3.97,2.98Z"/>
        <path class="cls-67" d="M48.27,310.83c.88,1.51,1.15,1.65,0,2.98-1.78-.22-3.89,1-6.45-.99-5.94-4.63,1.89-9.83,6.45-1.98Z"/>
        <g>
          <path class="cls-48" d="M64.15,272.14c-.02.8-.89,1.33-.99,1.49-4.29-1.18-8.56-2.44-12.9-3.47-2.76-.66-5.89-.74-8.68-1.49-4.12-1.1-7.71-4.25-12.15-3.47,1.15-5.57,20.63-2.69,25.05-.5,2.96,1.47,6.75,5.86,9.67,7.44Z"/>
          <path class="cls-22" d="M50.26,270.16c.41,4.04-.73.99-2.73,2.48,2.78.44,5.81.96,8.43,1.98,1.14.44,2.37.47,1.24,1.98-2.13.3-5.67,1.48-7.69,1.49-5.73.03-21.49-6.08-20.09-12.9,4.44-.77,8.03,2.37,12.15,3.47,2.79.75,5.91.83,8.68,1.49Z"/>
          <path class="cls-37" d="M63.15,273.63c-.51.85-1.25.99-.5,1.98-1.82.31-3.63.74-5.46.99,1.13-1.51-.1-1.54-1.24-1.98-2.62-1.02-5.65-1.55-8.43-1.98,1.99-1.49,3.14,1.56,2.73-2.48,4.33,1.03,8.6,2.29,12.9,3.47Z"/>
        </g>
        <path class="cls-67" d="M80.51,107.47c-2.24,5.05-6.02,10.5-7.94,15.62-.18.49-1.15,3.06.5,2.73-1.1,1.35-2.15,4.02-3.97,4.71.71-5.1-.17-8.91,1.98-13.64,1.04-2.28,6.87-9.64,9.42-9.42Z"/>
        <path class="cls-67" d="M75.55,88.13c-1.49,7.05-9.95,11.83-11.41,19.34-.37.36-.72,1.41-1.49,1.49-.13-.79-.36-1.62-.5-2.48,2.57-3.82,7.21-19.41,13.39-18.35Z"/>
        <path class="cls-10" d="M73.07,125.83c-1.64.33-.68-2.24-.5-2.73,1.92-5.12,5.69-10.57,7.94-15.62.18.02.4-.05.5,0,4.75,2.37-5.77,15.69-7.94,18.35Z"/>
        <path class="cls-10" d="M64.15,107.47c1.45-7.51,9.92-12.3,11.41-19.34,2.89.49-.15,7.21-.99,8.68-1.92,3.37-7.5,7.79-10.42,10.66Z"/>
        <path class="cls-34" d="M82.5,213.61c1.74.03,3.3.61,4.96.99l15.38,26.29c-.83-.65-1.58-1.46-2.48-1.98-4.22-5.15-27.51-18.67-32.98-15.38-2.29,1.38-.66,3.86-1.24,5.95-.62.76-6.79,15.46-6.94,16.62-.64,4.76.57,9.64,1.98,14.14.19.6,3.13,6.11,2.23,6.45-3.53-5.61-10.33-11.42-13.64-16.86-2.34-3.84-.87-2.15,1.49-4.46,4.19-4.11,7.2-7.16,8.93-13.14,1.06-3.69,3.68-18.12-.5-20.09v-1.98c10.7,6.44,12.3,3.27,22.82,3.47Z"/>
        <path class="cls-48" d="M59.68,212.13c4.18,1.97,1.56,16.4.5,20.09-1.73,5.99-4.74,9.03-8.93,13.14-2.64-.94-2.59,2.31-4.46.5.42-6.48-1.15-12.24.99-18.6.54-1.61,8.32-15.31,9.18-15.62s1.94.12,2.73.5Z"/>
        <path class="cls-67" d="M86.96,213.12c.03.07.92.53.5,1.49-1.66-.38-3.22-.96-4.96-.99,1.98-.71-2.73-3.2-3.22-3.47-8.16-4.58-16.22-5.66-25.54-4.96-1.14-1.51-2.15-2.75-2.48-4.71,8.78-9.17,24.37.04,31.25,7.94,1.14,1.31,2.23,4.92,4.46,4.71Z"/>
        <path class="cls-67" d="M76.05,177.9c-.22.2-.88-.74-.99.99-7.05-3.05-12.85-1.73-20.34-4.96,4.02.78,7.77,1.95,11.9.74l-17.11-12.65c.95,1.12,4.24,1.37,4.46,1.49,4.03,2.14,9.6,8.94,14.14,8.43,1.55,2.09,3.03,4.92,5.95,4.96,1.07.01.87-.1,1.49-.5,2.16-1.37,4.66-14.91,7.44-19.1,1.07-1.62,6.68-6.73,8.43-7.69-4.19,5-9.06,8.4-10.91,15.13-2.91,10.6,4.35,1.33,7.44-1.98l7.44-13.64c2.53,2.75-1.68,13.42-3.97,16.62-3.82,5.34-10.98,8.15-15.38,12.15Z"/>
        <path class="cls-10" d="M78.53,192.29c.85,1.32.69,1.89.99,2.48-2.03,0-3.95-.84-5.95-.99.46-1.9.93-1.34-.74-2.48-3.6-2.45-17.71-7.11-21.08-2.48-10.22-6.85,3.96-8.32,9.67-7.44s13.86,5.87,17.11,10.91Z"/>
        <path class="cls-9" d="M82.5,213.61c-10.52-.2-12.11,2.97-22.82-3.47-2.22-1.34-4.37-2.86-5.95-4.96,9.32-.7,17.38.38,25.54,4.96.49.27,5.2,2.76,3.22,3.47Z"/>
        <path class="cls-15" d="M82,196.26c-.57.36-1.09,0-1.49.5-.14-.29-.34-.67-.5-.99.8-.19,1.24-1.29,1.49-1.98.15-.4.4-1.11.5-1.49l21.82-25.79c3.42,5.08-8.64,17.85-12.15,21.33-1.6,1.58-8.06,7.4-9.67,8.43Z"/>
        <path class="cls-35" d="M82,196.26c5.04,13.69,11.85,26.76,19.84,38.93.08.12,2.09,3.37,1.98,1.24.16,1.61.48,1.8.99,2.98.32.73,1.14,1.38,1.49,1.98,1.75,3.08,4.12,5.89,5.95,8.93-.08.22.04.68,0,.99-.53-.09-1.37.14-1.74,0-.09-.04-.74-.98-1.24-1.49-.87-.89-2.48-4.25-3.97-5.95-.35-.4-.42-.91-.99-1.49-.49-.5-.91-1.03-1.49-1.49l-15.38-26.29c.43-.96-.47-1.42-.5-1.49-2.03-5.04-4.26-11.68-6.45-16.37.4-.49.92-.13,1.49-.5Z"/>
        <path class="cls-9" d="M73.57,193.78c-7.93-.61-14.7-.19-21.82-4.96,3.37-4.63,17.48.03,21.08,2.48,1.67,1.14,1.21.58.74,2.48Z"/>
        <path class="cls-39" d="M28.93,215.1c-4.61-8.7-4.69-18.74,2.98-25.79.33,4.23-3.27,7.98-3.97,12.15-.79,4.75.38,9.04.99,13.64Z"/>
        <path class="cls-35" d="M76.05,177.9l5.46,15.87c-.25.69-.69,1.79-1.49,1.98-.15-.3-.34-.69-.5-.99-.3-.58-.14-1.16-.99-2.48l-3.47-13.39c.11-1.74.77-.79.99-.99Z"/>
        <g>
          <path class="cls-65" d="M78.53,283.05c.46,1.45,4.22,5.64,5.46,6.94-.63-.07-.74-.17-.99.5-2.88-1.2-14.05-16.1-15.13-16.37-.26-.06-4.4,1.35-5.21,1.49-.75-1-.01-1.14.5-1.98.1-.16.97-.69.99-1.49.43.23,2.46,1.74,2.48.25-4.35-6.05-14.52-15.09-17.36-21.58-.37-.85-.92-1.03.5-.99,3.31,5.44,10.11,11.26,13.64,16.86.9-.33-2.04-5.85-2.23-6.45,1.06-.71.88-.41,1.49.5.94,1.4,1.06,2.94,1.74,4.46l.74-2.48c.18,1.45.58,3.05.99,4.46.2.7-.23,2.14,0,2.73.85,2.2,8.77,10.48,11.41,11.9-4.66-8.53-7.08-15.69-3.97-25.3.46-1.42,6.05-11.7,6.94-12.65.06-.06.86-.39.99-.5.12,3.69.38,8.55,0,12.15-.83,7.91-5.23,20.46-2.98,27.53Z"/>
          <path class="cls-22" d="M89.94,247.34c-.49.17-1.66-.3-1.98.25-.24.41.72,7.27.99,8.18.19.64-.29,1.41.74,1.98,2.94-2.02,6.55-1.41,9.92-1.49l.5.99c-.5,1.06-1.3,1.88-1.74,2.98-12.54-3.21-7.44-1.73-9.92,5.21-.69,1.93-4.26,4.98-3.97,7.69-1.91,2.92-2.87,7.88-5.95,9.92-2.25-7.07,2.15-19.61,2.98-27.53.38-3.6.12-8.46,0-12.15,5.05-3.94,3.64.57,5.46,2.73,1.41,1.67,2.28-.56,2.98,1.24Z"/>
        </g>
        <path class="cls-14" d="M74.56,232.96c-.45,2.66,1.03,5.69.99,8.43-.13,10.25-3.7,17.7-9.42,25.79-.41-1.42-.82-3.01-.99-4.46-1.59-13.14,4.42-21.18,3.97-29.76l.99-5.46c3.47-.59,1.82,3.23,4.46,5.46Z"/>
        <path class="cls-34" d="M93.9,269.16c-.22.72-.26,2.53-.5,3.47-9.16,6.22-4.46,13.92-2.98,21.82.11.6.74.73.99,1.98-2.34-2.24-5.22-4.1-7.44-6.45-1.23-1.3-4.99-5.5-5.46-6.94,3.08-2.04,4.04-7,5.95-9.92.48-.73,2.49-4.36,2.73-4.46,1.55-.67,4.94.75,6.7.5Z"/>
        <path class="cls-10" d="M89.44,238.41c2.77,1.08,7.54,3.75,10.17,4.46.23.06,5.1.79,4.71-.5.57.58.64,1.09.99,1.49-5.19.33-10.47,1.73-15.38,3.47-.69-1.8-1.57.43-2.98-1.24-1.82-2.16-.4-6.67-5.46-2.73-.13.11-.93.43-.99.5l-4.96-2.48c.03-2.75-1.44-5.77-.99-8.43,3.17,2.66,11.12,3.99,14.88,5.46Z"/>
        <path class="cls-3" d="M80.51,243.87c-.89.95-6.48,11.23-6.94,12.65-3.11,9.61-.69,16.76,3.97,25.3-2.64-1.42-10.56-9.71-11.41-11.9-.23-.59.2-2.03,0-2.73,5.73-8.09,9.3-15.54,9.42-25.79l4.96,2.48Z"/>
        <path class="cls-39" d="M70.1,227.5l-.99,5.46c0-.14-1-1.84-.5-2.73-.28-.47-.81.24-.99.5-1.42,2.01-4.74,15.4-4.96,17.86-.31,3.4,1.62,9.35,0,12.15-.6-.9-.43-1.2-1.49-.5-1.41-4.49-2.63-9.38-1.98-14.14.16-1.16,6.32-15.86,6.94-16.62.3-.36,3.09-1.83,3.97-1.98Z"/>
        <path class="cls-49" d="M69.11,232.96c.45,8.58-5.56,16.62-3.97,29.76l-.74,2.48c-.67-1.52-.8-3.06-1.74-4.46,1.62-2.8-.31-8.75,0-12.15.22-2.46,3.54-15.84,4.96-17.86.18-.26.71-.97.99-.5-.5.89.49,2.59.5,2.73Z"/>
        <path class="cls-49" d="M62.16,309.84c.62.5.85,1.7.99,2.48.16.85-.76,1.29-.5,2.23l1.49-1.24c1.51,1.47,3,2.61,4.96,3.47-3.61,1.79-1.41,6.19-5.46,5.46-.98-1.47-.59-5.21-.99-6.2-.24-.58-.87.53-.99.25-.74-1.64-1.5-3.3-2.23-4.96-1.07,1.83-1.08,5.04-4.22,4.46-.27-1.75-.07-3.95.99-5.46.28-.4,1.91-.49,1.98-1.49.7.39,3.01.22,3.97.99Z"/>
        <path class="cls-55" d="M55.71,310.33h.5c-1.06,1.51-1.26,3.71-.99,5.46.07.42.35.53.5.99-3.08,1.06-7.78-7.78-6.94-9.18l6.94,2.73Z"/>
        <path class="cls-67" d="M61.67,316.28l-4.46,1.98c-.31-.38-1.2-.56-1.49-1.49-.14-.46-.43-.57-.5-.99,3.14.58,3.15-2.64,4.22-4.46.73,1.66,1.49,3.31,2.23,4.96Z"/>
        <path class="cls-3" d="M54.72,296.44c4.25,1.56,5.28,3.48,10.91,2.98l3.97,5.46c-1.44.13-3.2.75-4.46,1.49-1.84,1.08-2.38,1.04-2.98,3.47-.95-.77-3.27-.6-3.97-.99-1.14-.64-4.35-2.26-4.96-3.22-1.31-2.08-.98-5.07-1.98-7.69-.65-1.7-1.66-1.91-1.98-3.47,1.82.66,3.64,1.32,5.46,1.98Z"/>
        <path class="cls-34" d="M91.42,297.93c.49,2.27.28,4.99.99,7.94-3.58-1.09-7.22-.96-10.91-.99l-4.96-9.42c1.41-.47,7.44-3.12,8.18-2.98,1.18.23,4.42,6.06,6.7,5.46Z"/>
        <path class="cls-48" d="M81.5,304.88c-2.4-.02-8.34.03-10.42.5-.25-.02-1.41-.5-1.49-.5l-3.97-5.46c3.41-.31,7.62-2.86,10.91-3.97l4.96,9.42Z"/>
        <path class="cls-67" d="M71.59,158.06c-.27-1.46-.73-2.96-.99-4.46,1.47.01,1.52-3.03,1.98-4.46,3.6,1.15,7.62-3.89,9.92-6.2,3.85-3.87,7.47-8.54,9.42-13.64,3.91,1.26-2.96,12.63-4.46,14.63-4.36,5.82-11.43,8.51-15.87,14.14Z"/>
        <path class="cls-67" d="M132.09,225.52c-5.68,7.38-10.1,16.37-11.9,25.79-.9.13-2.02-.03-2.98,0-1.39.04-3.72.21-4.96,0,.04-.31-.08-.77,0-.99.54-1.47,0-4.62.5-6.7,1.32-5.42,10.73-16.26,15.62-18.6,1.87-.89,2.33-1.3,3.72.5Z"/>
        <path class="cls-10" d="M103.82,166.5l-21.82,25.79c1.52-6.2,2.55-13.02,6.94-18.1,1.92-2.22,12.9-10.63,14.88-7.69Z"/>
        <path class="cls-10" d="M91.92,129.3c-1.95,5.1-5.58,9.77-9.42,13.64-2.3,2.31-6.32,7.35-9.92,6.2,1.54-4.78,3.84-10.56,7.44-14.14,2.08-2.07,9.23-6.57,11.9-5.7Z"/>
        <path class="cls-49" d="M130.61,240.4c-.74,1.44-4.82,7.3-5.95,8.43-.58.58-1.93,2.38-2.23,2.48-.5.17-1.56-.1-2.23,0,1.8-9.42,6.22-18.41,11.9-25.79,3.43,4.43.7,10.6-1.49,14.88Z"/>
        <path class="cls-67" d="M95.39,149.14l-7.44,13.64c-3.09,3.32-10.35,12.59-7.44,1.98,1.85-6.73,6.72-10.13,10.91-15.13,1.74-.95,2.44-2.15,3.97-.5Z"/>
        <g>
          <path class="cls-10" d="M110.77,228.99c-2.21,3.37-3.37,7.3-5.95,10.42-.51-1.18-.83-1.37-.99-2.98-.74-7.37,1.72-21.3,5.95-27.28,1.56-1.68,8.66-5.15,9.42-1.74.25,1.13-8.69,18.27-8.43,21.58Z"/>
          <path class="cls-67" d="M120.69,223.04c.57-1.41.37-5.45,1.98-7.19-4.85-.31-5.96,6.7-7.94,9.42-1.06,1.47-3.26,2.63-3.97,3.72-.26-3.31,8.68-20.44,8.43-21.58-.76-3.42-7.86.05-9.42,1.74,2.02-2.85,9.04-9.52,12.65-8.43,4.92,1.48.94,18.89-1.74,22.32Z"/>
          <path class="cls-67" d="M120.69,223.04c-3.1,7.74-9.82,11.57-14.38,18.35-.34-.6-1.17-1.25-1.49-1.98,2.59-3.12,3.74-7.04,5.95-10.42.71-1.09,2.9-2.25,3.97-3.72,1.98-2.73,3.09-9.73,7.94-9.42-1.62,1.74-1.42,5.78-1.98,7.19Z"/>
        </g>
        <path class="cls-67" d="M138.54,255.77c-2.7-.74-4.54-1.91-6.45-2.48,2.71-6.02,8.58-12.53,5.46-19.34,2.69-1.04,4.07,1.7,4.46,4.22.87,5.58-1.94,12.3-3.47,17.61Z"/>
        <path class="cls-10" d="M132.09,253.29c-.38-.11-1.96-.22-1.98.5-1.23-1.65-3.59-1.09-2.48-3.97,1.92-2.08,2.96-6.92,4.46-9.42.95-1.58,3.83-5.82,5.46-6.45,3.12,6.81-2.75,13.32-5.46,19.34Z"/>
        <path class="cls-1" d="M132.09,240.4c-1.51,2.5-2.54,7.35-4.46,9.42-1.63,1.77-3.09,2.01-2.98-.99,1.13-1.13,5.21-6.99,5.95-8.43h1.49Z"/>
        <path class="cls-67" d="M100.35,238.91c-2.11-1.23-7.02-1.89-9.18-3.97l-1.74,3.47c-3.76-1.46-11.71-2.79-14.88-5.46-2.65-2.22-.99-6.05-4.46-5.46-.88.15-3.67,1.62-3.97,1.98.58-2.09-1.05-4.57,1.24-5.95,5.47-3.29,28.77,10.22,32.98,15.38Z"/>
        <path class="cls-15" d="M100.35,238.91c.9.53,1.65,1.34,2.48,1.98.58.45,1,.99,1.49,1.49.39,1.28-4.48.56-4.71.5-2.63-.71-7.39-3.38-10.17-4.46l1.74-3.47c2.16,2.08,7.07,2.74,9.18,3.97Z"/>
        <path class="cls-34" d="M105.31,243.87c1.49,1.7,3.1,5.07,3.97,5.95-2.92.7-3.1.24-5.46,1.98-.75.55-1.38,2.39-1.49,2.48-.3.26-1.13-.38-1.24,1.49h-12.15c-.27-.92-1.23-7.78-.99-8.18.33-.55,1.49-.07,1.98-.25,4.91-1.74,10.19-3.14,15.38-3.47Z"/>
        <path class="cls-49" d="M98.37,260.24c-.94,2.34-4.07,7.66-4.46,8.93-1.75.26-5.15-1.16-6.7-.5-.24.1-2.25,3.73-2.73,4.46-.29-2.71,3.28-5.76,3.97-7.69,2.48-6.94-2.62-8.42,9.92-5.21Z"/>
        <path class="cls-33" d="M90.43,294.46c-1.49-7.9-6.19-15.6,2.98-21.82-1.8,7.11-1.9,14.6-2.98,21.82Z"/>
        <g>
          <path class="cls-50" d="M65.14,306.36c-3.72,2.88.76,5.91,3.72,6.45,3.42.63,19.46.03,23.31-.5,1.62-.22,1.56-.09.74-1.49h.99c.56,1.59,1.22,3.48,1.98,4.96l-7.44,3.47c-1.83.11-3.14.06-4.96,0-1.59-.05-3.46.19-4.96,0-2.72-.34-6.91-1.37-9.42-2.48-1.96-.86-3.45-2-4.96-3.47-.16-.16-.39-1.07-.99-.99-.15-.78-.37-1.98-.99-2.48.59-2.43,1.14-2.39,2.98-3.47Z"/>
          <path class="cls-37" d="M81.5,304.88c3.69.03,7.33-.09,10.91.99.41,1.72.9,3.3,1.49,4.96h-.99c-2.64,0-27.61.74-27.28-2.73,1.26-.91,4.06-2.41,5.46-2.73,2.08-.47,8.02-.51,10.42-.5Z"/>
          <path class="cls-64" d="M69.6,304.88c.08,0,1.23.48,1.49.5-1.4.31-4.19,1.81-5.46,2.73-.33,3.47,24.64,2.73,27.28,2.73.81,1.4.88,1.27-.74,1.49-3.85.53-19.89,1.12-23.31.5-2.96-.54-7.44-3.57-3.72-6.45,1.26-.74,3.03-1.36,4.46-1.49Z"/>
        </g>
        <path class="cls-55" d="M64.15,313.31l-1.49,1.24c-.27-.94.66-1.38.5-2.23.6-.08.83.84.99.99Z"/>
      </g>
    </g>
    <g>
      <g>
        <g>
          <path class="cls-23" d="M350.82,201.71c-3.04.67-4.8,5.25-6.94,7.69-17.73,20.16-50.46,32.46-76.88,33.97,2.34-3.25,3.27-8.55,5.46-11.9,12.78-7.44,27-12.9,37.45-23.81.41.31.17,10.61,1.74,3.47,16.39-6.19,29.66-20.69,36.7-36.7,3.24,8.39,3.68,18.42,2.48,27.28Z"/>
          <path class="cls-29" d="M220.38,122.85c.31.06.67-.03.99,0,1.55.14,2.66-.47,3.47-.5,11.93-.42,23.75-.83,35.71,0,1.63.11,3.34-.15,4.96,0,.47.04.52.45.99.5,2.12.22,3.87.68,5.95.99,3.92.58,7.53,1.16,11.41,1.98,2.58.55,5.39.84,7.94,1.49.82.21,5.04,1.54,6.45,1.98.26.08.74-.08.99,0,12.01,3.92,25.19,12.02,34.22,20.83,2.74,2.67,4.68,6.28,7.94,8.43-.69,1.07-2.2-.22-1.98,1.49-5.92-6.93-16.79-15.04-24.8-19.34-39.55-21.24-99.98-19.21-141.85,0-1.98.91-7.63,5.44-8.43,2.48,9.18-5.73,19.22-10.04,29.51-13.39.39-.37-.14-1.35-.25-1.98,2.22.66,5.18-.49,7.44-.99,2.49-.55,14.13-2.44,15.13-2.98.12-.07,1.2-2.23,1.24-2.48h.5c2.33.46.5,1.14,2.48,1.49Z"/>
          <path class="cls-70" d="M350.82,201.71c-1.25,9.29-5.29,16.22-12.4,22.32-15.67,13.45-56.42,26.71-76.88,25.79-.96-.04-1.29.86-1.98.25,1.9-1.96,5.94-4.62,7.44-6.7,26.42-1.52,59.15-13.81,76.88-33.97,2.14-2.43,3.9-7.02,6.94-7.69Z"/>
          <path class="cls-61" d="M322.55,236.93c-14.82,8.73-30.85,12.35-47.61,15.38-5.59,1.01-11.08.76-16.37,1.49-.17-2.02,4.64-2.46,2.98-3.97,20.45.92,61.2-12.34,76.88-25.79-4.11,4.92-10.28,9.6-15.87,12.9Z"/>
          <path class="cls-23" d="M170.78,147.15c-2.77,4.91-1.85,12.63,1.24,17.36.3-1.44-.13-2.99-.25-4.46.88.52,1.54,1.62,1.98,2.48,5.28,10.16,2.14,14.05,12.4,26.04,2.26,2.64,7.74,5.47,7.94,8.68-2.67,3.43-13.66,9.71-17.61,8.43-1.48-.48-2.76-5.96-4.46-6.94-3.01.45,5.07,13.4,2.73,15.87-14.4-6.63-25.15-16.07-33.97-29.26l-2.73,8.93c-1.14-1.73-2.19-4-3.97-5.21l.99,16.12c-1.35-4.2-3.09-10.83-2.48-15.13.26-1.82,1.96-2.8,1.98-2.98.47-3.24-.21-5.06.99-9.18l5.21,5.95c5.23-15.21,16.2-28.52,30.01-36.7Z"/>
          <path class="cls-29" d="M314.62,140.71l-.99.25c1.25,1.02,1.79,1.77,2.48,3.22-4.42-5.09-10.28-6.07-16.37-3.47.63-1.44.24-1.95-1.24-2.48-15.45-5.55-55.66-7.68-71.92-5.95-13.86,1.47-29.58,4.57-42.41,9.42-2.64-.34-7.56.66-9.92,1.98l-1.49-2.98c41.87-19.21,102.3-21.24,141.85,0Z"/>
          <path class="cls-23" d="M185.66,205.68c1.22-.52,3.45-1.32,4.46-1.98,12.92,8.5,26.14,15.98,41.91,17.86,13.73,1.63,35.7-1.01,48.61-5.95,2.51-.96,16.2-9.74,17.61-6.7s-8.72,8.05-11.16,9.18c-23.62,10.94-62.88,10.96-86.3-.5-4.37-2.14-13.56-7.41-15.13-11.9Z"/>
          <path class="cls-66" d="M311.64,211.13c-1.57,7.14-1.33-3.16-1.74-3.47-10.44,10.91-24.66,16.37-37.45,23.81,1.11-1.71,2.98-2.09,3.72-3.97-4.04.23-9.53,2.95-13.14,3.47-.19.03-1.46-.07-1.98,0-4.14.52-10.29.97-14.38.99-8.25.04-16.57-1.62-24.8-.99-3.52-2.26-7.01-2.41-11.16-3.47,2.27,1.67,2.4,2.85,3.72,4.96l-20.83-11.9c-5.86-3.47-11.94-6.83-16.62-11.9l-1.24,5.95c-.37-.16-.03.44-.99,0,2.34-2.47-5.74-15.42-2.73-15.87,1.7.99,2.99,6.47,4.46,6.94,3.94,1.28,14.93-5.01,17.61-8.43.16,2.7-1.87,5.07-3.97,6.45-1.01.67-3.24,1.46-4.46,1.98-.98.42-6.32,1.16-6.45,2.23,33.83,29.9,95.46,30.46,128.46-.99-.24-.98-18.19-4.32-15.13-10.66,1.95,3.21,14.49,9.64,17.36,8.93,1.54-.38,3.47-7.91,4.96-7.44,1.85.59-2.71,11.04-3.22,13.39Z"/>
          <path class="cls-29" d="M193.6,149.63c.13,1.02.98,1.57-.25,2.98-3.6-4.01-8.88-8.5-14.38-5.46-4.67,2.58-3.17,11.18-5.21,15.38-.45-.86-1.1-1.96-1.98-2.48-.37-4.55-1.29-8.56,1.49-12.65,4.84-7.11,16.07-4.2,20.34,2.23Z"/>
          <path class="cls-69" d="M184.17,141.7c3.92.51,9.01,4.73,9.42,7.94-4.26-6.43-15.5-9.34-20.34-2.23-2.78,4.09-1.86,8.09-1.49,12.65.12,1.47.55,3.02.25,4.46-3.09-4.73-4.01-12.45-1.24-17.36.46-.82,2.75-3.07,3.47-3.47,2.36-1.32,7.28-2.32,9.92-1.98Z"/>
          <g>
            <path class="cls-30" d="M299.74,140.71c-2.28.97-6.38,3.86-5.95,6.45.69,4.16,3.28-1.48,6.7-2.48,12.77-3.73,10.24,11.16,11.41,11.41,2.81-4.1-.1-8.67-.74-12.9,6.06,4.4,4.27,14.06,1.74,19.84,6.1-4.57,6.28-12.41,3.22-18.85-.69-1.46-1.23-2.21-2.48-3.22l.99-.25c8.01,4.3,18.88,12.42,24.8,19.34,2.73,3.19,7.44,10.54,8.93,14.38-7.05,16.01-20.32,30.51-36.7,36.7.52-2.35,5.07-12.8,3.22-13.39-1.49-.47-3.42,7.06-4.96,7.44-2.87.71-15.41-5.72-17.36-8.93-3.07,6.34,14.89,9.68,15.13,10.66-32.99,31.45-94.63,30.89-128.46.99.13-1.07,5.47-1.82,6.45-2.23,1.57,4.49,10.75,9.76,15.13,11.9,23.42,11.45,62.68,11.44,86.3.5,2.44-1.13,12.62-6.01,11.16-9.18s-15.1,5.73-17.61,6.7c-12.9,4.94-34.87,7.58-48.61,5.95-15.77-1.88-28.99-9.35-41.91-17.86,2.1-1.38,4.13-3.75,3.97-6.45-.19-3.21-5.68-6.04-7.94-8.68-10.26-11.99-7.12-15.88-12.4-26.04,2.04-4.19.54-12.79,5.21-15.38,5.51-3.05,10.79,1.45,14.38,5.46,1.23-1.41.38-1.96.25-2.98-.41-3.21-5.5-7.43-9.42-7.94,12.83-4.85,28.54-7.95,42.41-9.42,16.26-1.72,56.47.4,71.92,5.95,1.48.53,1.87,1.04,1.24,2.48Z"/>
            <g>
              <path class="cls-29" d="M254.35,134.75c2.19-.05,13.86-.28,14.63,1.74.11,3.03-2.93,3.44-4.46,4.96-.13.13.18,1.9-1.74,3.22-2.54,1.74-8.14,1.73-10.91.5-2.16-.97-3.82-4.66-5.95-5.46-2.32-.87-7.31,0-9.67-2.23-.02-1.16,16.15-2.68,18.1-2.73Z"/>
              <path class="cls-66" d="M306.18,159.06c-6.05,7.49-17.42,9.51-9.92-3.72.77-1.36,3.61-4.45,4.96-5.21l1.49,11.16,3.47-2.23Z"/>
              <path class="cls-70" d="M316.1,144.18c3.05,6.44,2.88,14.28-3.22,18.85,2.54-5.78,4.33-15.44-1.74-19.84-5.82-4.22-13.45-1.57-17.36,3.97-.43-2.59,3.67-5.47,5.95-6.45,6.09-2.6,11.95-1.61,16.37,3.47Z"/>
              <path class="cls-66" d="M186.16,166c-2.5-3.03-.79-9.09.5-12.9,5.52,3.72,12.49,18.59-.5,12.9Z"/>
              <path class="cls-31" d="M186.65,153.11c-1.29,3.81-3,9.86-.5,12.9-5.61-2.46-13.67-13.88-4.22-14.88,2.96-.31,3.14.93,4.71,1.98Z"/>
              <path class="cls-29" d="M311.14,143.19c.64,4.22,3.55,8.8.74,12.9-1.16-.24,1.36-15.14-11.41-11.41-3.41,1-6.01,6.64-6.7,2.48,3.91-5.54,11.54-8.19,17.36-3.97Z"/>
              <path class="cls-66" d="M306.18,159.06l-3.47,2.23-1.49-11.16c8.08-4.54,10.43,2.15,4.96,8.93Z"/>
            </g>
          </g>
          <path class="cls-68" d="M221.87,230.97c1.2.77,3.73,3.99,5.21,4.96,11.39,7.44,27.74,6.89,35.96-4.96,3.61-.53,9.1-3.25,13.14-3.47-.74,1.88-2.61,2.26-3.72,3.97-2.18,3.36-3.12,8.66-5.46,11.9-1.5,2.07-5.54,4.74-7.44,6.7.69.61,1.03-.29,1.98-.25,1.66,1.51-3.14,1.95-2.98,3.97-6.17.85-9.94,3.81-17.61,3.47-5.26-.23-8.95-2.93-12.65-3.47-4.62-4.03-1.44-3.91-1.49-4.22-.18-1.05-4.58-3.75-4.96-4.22-.17-.21-.85-.8-.99-.99-2.1-2.82-4.22-8.35-6.45-11.9-1.32-2.11-1.45-3.29-3.72-4.96,4.15,1.06,7.64,1.21,11.16,3.47Z"/>
          <path class="cls-61" d="M174.25,143.68c-.72.4-3.01,2.65-3.47,3.47-13.81,8.19-24.77,21.49-30.01,36.7l-5.21-5.95c1.54-5.25,3.85-10.87,6.94-15.38,5.06-7.36,14.28-14.64,21.82-19.34.8,2.96,6.45-1.57,8.43-2.48l1.49,2.98Z"/>
          <path class="cls-70" d="M138.05,194.27c19.15,29.18,48.77,44.44,82.83,50.09.15.2.82.78.99.99l2.48,4.22c-28.7-2.12-58.99-9.84-80.84-29.51-3.74-4.83-6.52-8.97-8.43-14.88l-.99-16.12c1.78,1.21,2.83,3.47,3.97,5.21Z"/>
          <path class="cls-23" d="M221.87,245.36c.38.47,4.78,3.17,4.96,4.22.05.3-3.13.19,1.49,4.22-4.31-.63-9.97-.22-14.38-.99-15.49-2.72-35.28-6.83-49.1-14.38-7.66-4.19-15.98-11.46-21.33-18.35,21.85,19.67,52.14,27.39,80.84,29.51l-2.48-4.22Z"/>
          <path class="cls-23" d="M174.75,214.61c.96.44.63-.16.99,0,.06.03-.2.81.25.99,5.39,2.23,11.82,4.2,17.61,4.96l20.83,11.9c2.23,3.56,4.35,9.09,6.45,11.9-34.06-5.65-63.68-20.92-82.83-50.09l2.73-8.93c8.83,13.19,19.57,22.64,33.97,29.26Z"/>
          <path class="cls-62" d="M246.67,231.97c-2.21,7.49-12-6.21-11.41,5.7.24.45,8.92.12,10.17.25.61.06,1.37,1.96,1.49,1.98.44.07,7.55-2.44,8.43-2.98,2-1.21,4.92-3.75,5.7-5.95.52-.07,1.79.03,1.98,0-8.22,11.85-24.57,12.4-35.96,4.96-1.48-.97-4.01-4.19-5.21-4.96,8.23-.63,16.55,1.03,24.8.99Z"/>
          <path class="cls-40" d="M261.05,230.97c-.79,2.2-3.7,4.74-5.7,5.95-.88.53-7.99,3.05-8.43,2.98-.12-.02-.88-1.92-1.49-1.98-1.24-.13-9.93.2-10.17-.25-.59-11.91,9.2,1.79,11.41-5.7,4.1-.02,10.24-.47,14.38-.99Z"/>
          <path class="cls-23" d="M193.6,220.56c-5.79-.76-12.22-2.73-17.61-4.96-.45-.19-.18-.96-.25-.99l1.24-5.95c4.68,5.08,10.76,8.43,16.62,11.9Z"/>
        </g>
        <g>
          <path class="cls-58" d="M341.4,158.56c-3.25-2.15-5.2-5.76-7.94-8.43,1.99-4.81,2.11-10.88,1.98-16.12-.43-17.71-6.58-40.66-15.38-56.05-1.91-3.34-10.22-12.55-10.91-14.38-.28-.74.48-.7.5-.74,7.84,8.74,14.03,18.83,18.85,29.51,5.55,12.3,20.1,54.99,12.9,66.21Z"/>
          <path class="cls-47" d="M304.7,115.91c-.1-16.03-11.24-26.32-26.78-19.34-10.4,4.67-14.7,14.73-12.4,25.79-1.62-.15-3.33.11-4.96,0-6.15-21.16,18.78-41.19,37.94-29.26,7.06,4.39,12.8,15.81,6.2,22.82Z"/>
          <path class="cls-47" d="M182.68,58.37c-15.41,16.04-29.87,47.46-31.25,69.69-.37,5.97.75,11.25,2.48,16.86,1.62-2.68.03.68,2.48.74-1.6,1.29-3.93,3.49-5.46,4.96-9.96-21.54,4.18-43.56,9.92-63.98,4.88-8.71,9.22-15.75,15.87-23.31,1.09-1.24,3.55-4.39,4.96-4.96.2-.08.68.04.99,0Z"/>
          <path class="cls-47" d="M224.84,122.35c-.81.03-1.92.63-3.47.5.93-9.28-2.78-17.66-10.42-22.82-6.06-4.09-10.61-5.17-17.86-2.98,1.82-4.18,9.55.09,7.94-5.95,14.21.67,29.44,16.69,23.81,31.25Z"/>
          <path class="cls-17" d="M201.04,91.11c1.61,6.04-6.11,1.77-7.94,5.95-7.81,2.37-11.67,10.55-11.9,18.35-5.36-3.25-2.49-11.58.5-15.62,4-5.42,12.64-8.99,19.34-8.68Z"/>
          <g>
            <path class="cls-42" d="M293.78,49.45c2.59,1.44,5.03,2.71,7.44,4.46,1.13.82,2.72,2.47,3.97,3.47,1.36,1.1,3.02,4.26,4.96,4.46-.02.4-.35.53-.5.99-.01.04-.78,0-.5.74.69,1.84,9,11.05,10.91,14.38,8.8,15.39,14.94,38.34,15.38,56.05.13,5.24,0,11.31-1.98,16.12-9.03-8.81-22.21-16.91-34.22-20.83,4.42-3.24,5.49-8.2,5.46-13.39,6.6-7.01.86-18.42-6.2-22.82-19.16-11.92-44.09,8.11-37.94,29.26-11.96-.83-23.78-.42-35.71,0,5.63-14.56-9.6-30.58-23.81-31.25-6.7-.32-15.35,3.26-19.34,8.68-2.98,4.05-5.85,12.37-.5,15.62-.18,6.09,1.57,9.99,4.96,14.88-11.42,5.06-19.49,7.14-29.76,15.38-2.45-.06-.86-3.43-2.48-.74-1.73-5.62-2.85-10.9-2.48-16.86,1.38-22.23,15.84-53.65,31.25-69.69,1.01-1.05,1.92-2.51,2.98-3.47.57-.52,6.55-5.22,6.94-5.46.28-.17.7.52.74.5,3.92-2.31,7.93-4.28,12.15-5.95,27.64-10.91,62.22-9.03,88.28,5.46Z"/>
            <g>
              <path class="cls-20" d="M193.6,77.22c3.64,4.74,5.51-1.69,8.68-3.97-1.75.19-6.67,1.79-7.69,2.98,1.86-4.98,14.71-7.6,17.36-3.22,1.99,3.29-1.06,2.6-1.24,2.73-3.38,2.36-18.89,11.34-17.11,1.49Z"/>
              <path class="cls-20" d="M290.31,72.76l-7.44-.74c3.63.95,6.05,8.17,9.92,3.72,2.71,9.05-14.54-.21-17.86-1.24.08-7.69,11.08-5.23,15.38-1.74Z"/>
              <path class="cls-68" d="M308.42,123.35c1.23-.27,3.12.19,4.46,0,5.51,1.85-10.29,7.86-8.68,3.22.11-.46,3.71-3.11,4.22-3.22Z"/>
              <path class="cls-8" d="M174.01,124.83c2.46-.9,8.92.87,8.18,4.71-.32.43-10.22-1.09-9.42-3.47.4-.26.92-1.12,1.24-1.24Z"/>
              <path class="cls-36" d="M290.31,72.76c1.12.91,2.02,1.45,2.48,2.98-3.87,4.45-6.29-2.77-9.92-3.72l7.44.74Z"/>
              <path class="cls-47" d="M324.78,116.9c2.28-.62.87,3.3,2.73.25l.74,5.21c-1.22-3.39-2.57,3.48-6.2-2.23-.09-.75,1.87-2.99,2.73-3.22Z"/>
              <path class="cls-36" d="M193.6,77.22c.14-.75.86-.84.99-.99,1.02-1.19,5.93-2.79,7.69-2.98-3.17,2.28-5.04,8.7-8.68,3.97Z"/>
              <path class="cls-23" d="M315.86,116.9c3.28-.65,2.43,4.58-.5,3.97-2.03-.43-.92-3.69.5-3.97Z"/>
              <path class="cls-32" d="M169.54,118.88c2.02-.47,4.46,3.85.74,3.22-2.05-.34-2.47-2.82-.74-3.22Z"/>
            </g>
          </g>
          <path class="cls-27" d="M150.94,150.63c-3.28,3.16-6.7,6.9-8.93,10.91-5.95-20.87,8.5-56.44,18.85-74.89-5.74,20.42-19.88,42.44-9.92,63.98Z"/>
          <g>
            <path class="cls-47" d="M334.95,38.53c-.85,5.85-2.78,8.18-6.45,12.4l-3.22,1.98c-1.22-1.73.63-2.69.74-2.98,2.97-.85,4.16-4.91,4.96-7.44,8.37-12.06-5.08-27.63-18.1-24.8-8.19,1.78-13.63,12.45-12.15,20.34.48,2.55,2.02,3.73,2.48,5.95l-1.98,9.92c-2.41-1.75-4.85-3.03-7.44-4.46,3.08-9.93,2.18-24.67,12.4-30.75,14.07-8.38,31.17,3.39,28.77,19.84Z"/>
            <path class="cls-27" d="M326.02,49.94c-.12.28-1.96,1.25-.74,2.98l3.22-1.98c-3.39,3.9-13.05,11.48-18.35,10.91-1.94-.21-3.6-3.37-4.96-4.46l.5-1.49c5.05,4.49,16.49-3.07,19.84-7.69.6-.83,3.34-5.97,3.47-6.7,1.85,2.01-1.88,5.81-2.98,8.43Z"/>
            <path class="cls-12" d="M330.98,42.5c-.8,2.53-1.99,6.59-4.96,7.44,1.1-2.62,4.82-6.42,2.98-8.43.59-3.27-.07-7.94-2.48-10.42-.08-5.74-8.34-4.84-11.66-2.48-2.24,1.59-1.8,3.35-1.98,3.47-1.06.72-1.13-1.68-2.73-.74-.62.36-3.8,6.93-3.97,7.94-.78,4.69,2.92,11.25-2.73,15.62-1.35-3.63.59-6.87-.25-10.91-.46-2.22-2-3.4-2.48-5.95,2.61-10.58,14.87-22.25,26.04-15.38,7.11,4.38,6.18,13.64,4.22,19.84Z"/>
            <path class="cls-11" d="M330.98,42.5c1.96-6.2,2.89-15.46-4.22-19.84-11.17-6.88-23.43,4.8-26.04,15.38-1.48-7.89,3.96-18.55,12.15-20.34,13.02-2.83,26.47,12.74,18.1,24.8Z"/>
            <path class="cls-47" d="M326.52,31.09c-3.27-3.35-7.58-3.51-10.91-.5-2.19,1.98-4.85,5.86-4.96,8.93-1.74,3.4-.45,4.72-.99,7.94l-3.97,8.43-.5,1.49c-1.24-1.01-2.84-2.65-3.97-3.47l1.98-9.92c.84,4.05-1.1,7.28.25,10.91,5.65-4.37,1.95-10.93,2.73-15.62.17-1.01,3.35-7.57,3.97-7.94,1.6-.94,1.66,1.46,2.73.74.18-.12-.26-1.88,1.98-3.47,3.32-2.36,11.57-3.26,11.66,2.48Z"/>
            <path class="cls-21" d="M326.52,31.09c2.41,2.47,3.07,7.14,2.48,10.42-.13.72-2.87,5.87-3.47,6.7-3.35,4.62-14.79,12.18-19.84,7.69l3.97-8.43c-.28,1.67-2.51,8.65-1.24,8.93,2.16-.25,6.25-1.39,7.69-2.98,7.09-3.24,14.55-11.4,10.91-19.59-1.96-4.4-7.48-5.4-11.41-3.22,3.33-3.02,7.64-2.86,10.91.5Z"/>
            <path class="cls-13" d="M316.1,53.41c2.18-2.4,3.76-14.39.25-16.37-2.33-1.31-4.61.34-5.7,2.48.11-3.07,2.77-6.95,4.96-8.93,3.92-2.17,9.45-1.18,11.41,3.22,3.64,8.19-3.82,16.35-10.91,19.59Z"/>
            <path class="cls-53" d="M316.1,53.41c-1.44,1.59-5.53,2.72-7.69,2.98-1.27-.27.96-7.26,1.24-8.93.54-3.21-.75-4.54.99-7.94,1.1-2.14,3.37-3.79,5.7-2.48,3.51,1.98,1.93,13.97-.25,16.37Z"/>
          </g>
          <g>
            <path class="cls-24" d="M304.7,115.91c.03,5.19-1.03,10.15-5.46,13.39-.25-.08-.73.08-.99,0-.81-1.08.42-1.56.99-2.48,9.5-15.17-2.61-34.92-20.83-29.76l-.5-.5c15.55-6.98,26.69,3.31,26.78,19.34Z"/>
            <path class="cls-24" d="M285.35,110.45c.16.13,2.87,2.79,2.98,2.98.53.92.44,2.45.5,3.47.06.97-.36,1.58-.5,2.48-.07.47.09,1.02,0,1.49,0,.03-.35-.19-.5.5-.02.09-.9.82-.99,1.49l-2.98,2.98c-3.88-.82-7.49-1.4-11.41-1.98-6.32-1.28-3.8-9.06-2.48-13.39h.5c1.15,5.17,9.17,3.06,6.45-1.49,2.41-2.77,6.4-.13,8.43,1.49Z"/>
            <path class="cls-26" d="M299.24,126.82c3.68-12.3-.61-24.59-14.63-25.79l2.23,2.48c-5.88-2.51-12.07-1.59-15.87,3.97-1.31,1.92-.68,1.96-.99,2.98-1.32,4.33-3.84,12.11,2.48,13.39-2.09-.31-3.83-.77-5.95-.99-3.39-8.56,3.02-23.27,11.9-25.79,18.22-5.17,30.33,14.59,20.83,29.76Z"/>
            <path class="cls-57" d="M286.84,103.51c9.09,3.88,11.19,16.53,4.96,23.81-2.54-.65-5.36-.94-7.94-1.49l2.98-2.98c-.66,4.94,1.32,1.77,2.73,1.98.13.02,1.19,1.89,2.23,1.24,1.7-1.05,3.14-10.18,1.24-11.66s-1.17,2.54-1.24,2.98l-2.98-.5c-.06-1.03.03-2.56-.5-3.47,6.48-2.41-1.5-9.76-2.98-2.98-2.03-1.62-6.02-4.26-8.43-1.49-1.37-2.29-3.92-1.59-5.46-.99-.29.11-.57-.16-.5-.5,3.8-5.55,9.99-6.48,15.87-3.97Z"/>
            <path class="cls-3" d="M299.24,126.82c-.57.92-1.8,1.4-.99,2.48-1.4-.44-5.62-1.77-6.45-1.98,6.23-7.28,4.13-19.93-4.96-23.81l-2.23-2.48c14.03,1.2,18.31,13.5,14.63,25.79Z"/>
            <path class="cls-52" d="M277.91,96.56l.5.5c-8.89,2.52-15.29,17.23-11.9,25.79-.47-.05-.52-.45-.99-.5-2.3-11.06,2-21.13,12.4-25.79Z"/>
            <path class="cls-25" d="M286.84,122.85c.09-.67.97-1.4.99-1.49l1.98,1.24-1.49-1.74c.09-.46-.07-1.02,0-1.49h3.22c1.47-.94.18-1.55.25-1.98s-.74-4.51,1.24-2.98.46,10.6-1.24,11.66c-1.04.65-2.11-1.22-2.23-1.24-1.4-.22-3.39,2.96-2.73-1.98Z"/>
            <path class="cls-3" d="M276.92,108.96c2.72,4.55-5.3,6.66-6.45,1.49l.99-2.48c1.54-.6,4.08-1.3,5.46.99Z"/>
            <path class="cls-3" d="M288.33,113.43c-.11-.18-2.81-2.84-2.98-2.98,1.47-6.78,9.45.56,2.98,2.98Z"/>
            <path class="cls-6" d="M291.8,117.39c-.07.43,1.22,1.04-.25,1.98h-3.22c.14-.9.55-1.51.5-2.48l2.98.5Z"/>
            <path class="cls-63" d="M287.83,121.36c.14-.68.49-.46.5-.5l1.49,1.74-1.98-1.24Z"/>
            <path class="cls-4" d="M271.47,107.97l-.99,2.48h-.5c.31-1.02-.32-1.06.99-2.98-.07.34.21.61.5.5Z"/>
          </g>
          <g>
            <path class="cls-3" d="M213.93,107.47c-5.01-4.09-11.91-3.77-16.37.74,7.24,1.64,5.05,3.45,1.98,7.19-4.43-.24-4.36-4.85-4.71-4.96-5.65,6.14-2.35,11.12-1.24,17.36.11.63.64,1.62.25,1.98-10.29,3.35-20.33,7.66-29.51,13.39-7.55,4.71-16.76,11.98-21.82,19.34-.24-.01-.46-.85-.5-.99,2.23-4.01,5.65-7.75,8.93-10.91,1.53-1.47,3.85-3.67,5.46-4.96,10.27-8.24,18.34-10.32,29.76-15.38.73-.33,2.07-.4,1.98-1.24-2.16-1.93-3.35-3.89-3.97-6.7,4.33-.06,1.67-1.47,2.48-3.72,2.27-6.27,7.88-13.43,14.63-15.13,3.48-.87,12-.68,12.65,3.97Z"/>
            <path class="cls-24" d="M210.96,100.04l-.5.5c-15.17-9.09-29.88,5.49-26.29,21.82.62,2.81,1.81,4.76,3.97,6.7.09.84-1.25.91-1.98,1.24-3.39-4.89-5.14-8.78-4.96-14.88.24-7.81,4.09-15.98,11.9-18.35,7.24-2.2,11.8-1.11,17.86,2.98Z"/>
            <path class="cls-26" d="M210.46,100.53c7.07,4.24,11.06,14.24,9.92,22.32-1.98-.35-.15-1.02-2.48-1.49,1.05-5.15.29-10.42-3.97-13.89-.65-4.65-9.17-4.84-12.65-3.97-6.75,1.7-12.36,8.86-14.63,15.13-.81,2.25,1.85,3.66-2.48,3.72-3.6-16.33,11.12-30.91,26.29-21.82Z"/>
            <path class="cls-24" d="M217.4,121.36c-.04.25-1.12,2.41-1.24,2.48-1,.53-12.64,2.42-15.13,2.98-.53-1.12-1.92-1.89-2.48-2.98-.32-.63-.33-.96-.5-1.49-.51-1.6-.65-2.79-.5-4.46.93-1.53,1.09-1.39,1.98-2.48,5.53.3,2.65-4.09,5.7-4.96,5.8-1.64,13.03,5.21,12.15,10.91Z"/>
            <path class="cls-57" d="M213.93,107.47c4.26,3.47,5.02,8.74,3.97,13.89h-.5c.88-5.7-6.35-12.55-12.15-10.91-3.06.87-.17,5.26-5.7,4.96,3.07-3.74,5.26-5.55-1.98-7.19,4.46-4.51,11.35-4.83,16.37-.74Z"/>
            <path class="cls-57" d="M199.55,115.41c-.89,1.09-1.05.95-1.98,2.48-.04.07-1.21-.1-1.49.74-.04.13,1.01,2.35.99,2.48-.03.28-4.16,4.89.99,1.24.17.53.17.86.5,1.49-.26-.33-1.59,1.33-.74,1.49.93.17.96-1.22.74-1.49.56,1.08,1.95,1.85,2.48,2.98-2.26.5-5.22,1.65-7.44.99-1.11-6.24-4.41-11.22,1.24-17.36.35.11.28,4.72,4.71,4.96Z"/>
            <path class="cls-52" d="M221.37,122.85c-.32-.03-.68.06-.99,0,1.14-8.08-2.85-18.08-9.92-22.32l.5-.5c7.64,5.16,11.35,13.53,10.42,22.82Z"/>
            <path class="cls-7" d="M197.56,117.89c-.15,1.68-.01,2.86.5,4.46-5.15,3.65-1.03-.96-.99-1.24.02-.13-1.03-2.35-.99-2.48.28-.85,1.44-.67,1.49-.74Z"/>
            <path class="cls-7" d="M198.56,123.84c.21.27.19,1.66-.74,1.49-.84-.16.48-1.82.74-1.49Z"/>
          </g>
          <g>
            <path class="cls-28" d="M191.61,44.49c.31,1.65,1.07,3.23.99,4.96-.39.24-6.37,4.94-6.94,5.46l-.74-9.92c-1.15-.91-1.79,9.79.74,9.92-1.06.96-1.97,2.42-2.98,3.47-.31.04-.79-.08-.99,0,.32-2.46-2.51-4.8-2.98-7.19-1-5.08.82-8.99-2.48-14.63l7.44-2.98c1.14,1.76,1.51,4.37,2.98,5.7.67-5.98-2.83-14.55-8.18-17.61-13.98-7.98-33.37,9.03-22.07,22.82.42.85,3.08,3.3,3.47,3.97,1.52,2.62,1.93,5.87,2.48,6.94l-.5.5c-1.8-1.53-3.53-3.06-4.96-4.96-20.22-26.92,21.05-47.89,32.24-18.1,1.39,3.7,1.75,7.8,2.48,11.66Z"/>
            <path class="cls-46" d="M183.68,33.57l-7.44,2.98c-7.79-13.32-24.68-4.12-15.87,11.41l-.5.5c-.39-.67-3.06-3.12-3.47-3.97-9.84-20.02,14.09-31.29,27.28-10.91Z"/>
            <path class="cls-16" d="M183.68,33.57c-13.19-20.38-37.12-9.11-27.28,10.91-11.29-13.79,8.09-30.8,22.07-22.82,5.36,3.06,8.86,11.63,8.18,17.61-1.47-1.33-1.84-3.94-2.98-5.7Z"/>
            <path class="cls-6" d="M185.66,54.9c-2.54-.13-1.89-10.83-.74-9.92l.74,9.92Z"/>
            <g>
              <path class="cls-41" d="M176.24,36.55c3.3,5.64,1.48,9.55,2.48,14.63.47,2.39,3.3,4.73,2.98,7.19-1.41.57-3.87,3.72-4.96,4.96-6.06-.81-10.39-3.63-14.88-7.44l.5-.5c1.77,3.45,7.13,2.71,6.45.74-.19-.55-6.79-5.3-8.43-8.18-8.81-15.52,8.09-24.73,15.87-11.41Z"/>
              <path class="cls-27" d="M162.35,55.4c-.55-1.07-.96-4.32-2.48-6.94l.5-.5c1.64,2.89,8.24,7.63,8.43,8.18.69,1.97-4.68,2.7-6.45-.74Z"/>
              <path class="cls-13" d="M176.73,41.51c-1.54-3.1-5-5.24-7.44-1.74-2.57,3.69,1.38,9.97,0,14.14-22.47-13.98-1.21-35.52,7.44-12.4Z"/>
              <path class="cls-71" d="M176.73,41.51c2.44,4.93.62,11.42,3.47,16.62-4.3-.04-7.47-2.08-10.91-4.22,1.38-4.16-2.57-10.45,0-14.14s5.9-1.37,7.44,1.74Z"/>
            </g>
          </g>
        </g>
      </g>
      <g>
        <g>
          <path class="cls-27" d="M329.99,254.78c1.36,4.52.6,10.25,1.49,14.63.07.36,2.4,3.34,2.98,6.45,2.06,11.05-.77,35.61,2.48,44.14,1.59,4.16,13.3,8.72,17.86,8.18,1.1,1.32,2.96,2.6,4.46,3.47l-.99.5c-11.14-2.17-18.05-4.22-29.76-2.98-.79.08-2.48-.53-4.22,0-3.67,1.12-8.16,5.43-8.93,9.42-1.32.1-.51-1.42-.74-1.98,2.34-3.58,6.7-7.38,10.66-8.93.84-.33,1.63.82,2.48.5.19-.07,1.7-3.52,1.74-3.72,1.47-7.35.96-62.03-.5-70.18,1-.27.94.47.99.5Z"/>
          <path class="cls-29" d="M372.15,251.31c-3.3,4.23-9.21,4.72-13.89,6.2,2.85,1.52,8.26.32,10.17-1.74,1.3.86.17,1.26-.25,1.98-6.83.24-6.03,5.29-10.17,7.94-3.21,2.05-7.93,2.86-10.66-.25-.7-5.74,8.04-5.89,9.67-7.19.21-.17-.39-2.12,2.23-4.46.57-.51.91-1.45.99-1.49.56-.24,8.85-1.43,9.92-1.49.18-.01,1.01.45,1.98.5Z"/>
          <g>
            <path class="cls-29" d="M390.5,258.75c.58.89,1.66,2.55,1.98,3.47s1.67,5.12-.25,4.96c-.79-.07-9.15-12.1-9.18-12.9,0-.1.95-.99.5-1.98,2,2.17,4.52,2.73,6.94,6.45Z"/>
            <g>
              <path class="cls-68" d="M375.13,251.31c-1.13,1.17-2.5,2.49-3.22,3.97,2.92-1.86,8.97-5.27,11.16-.99.03.79,8.39,12.83,9.18,12.9,1.91.16.56-4.08.25-4.96h.5c1.3,1.52,1.73,4.5,2.48,5.95.35.68.49,1.72.74,1.98.49.51.7-.5.74-.5.48.02,1.01-.19.99.5-.44.44-.45,1.05-1.49,1.24-.19.74.98,1.64.99,1.74.08.98.3,2.01.5,2.98.03.16-.03.34,0,.5.24,1.15.79,1.84.99,2.98.15.85.36,1.6.5,2.48.3,2.02.87,4.44.99,6.45.07,1.1.49,1.88.5,1.98.08,4.04-1.59,8.79-1.49,12.9-.1.11-.37.82-.5.99-.24.34-1.04,2.84-.5,3.47-1.52.86-.92,2.1-1.49,2.98-.75,1.15-1.28,2.34-1.98,3.47-.33.53-.45,1.41-.5,1.49-.81,1.25-1.65,2.81-2.48,3.97-2.93,4.11-12.6,13.68-17.36,14.88-3.3.83-5.22.47-8.43,0-1.3-.19-3.21-1.15-4.96-1.49-.23-.94-1.26-1.07-1.98-1.49-1.51-.88-3.36-2.15-4.46-3.47-11.35-13.61-7.61-39.12,0-53.81,3.2-6.19,10.54-11.71,13.39-16.62.42-.72,1.55-1.12.25-1.98-1.91,2.06-7.32,3.25-10.17,1.74,4.68-1.48,10.59-1.97,13.89-6.2.98.04,1.99-.03,2.98,0Z"/>
              <path class="cls-61" d="M393.97,299.42c.02-.73.42-2.54-.74-2.48-6.04,19.73-33.72,21.8-36.45-1.24-.2-1.71,2.18-4.72-.99-4.71,4.7-12.48,15.73-33.71,31.49-21.33,7.11,5.58,9.15,20.6,8.18,29.01-.19,1.65-.13,1.53-1.49.74Z"/>
              <path class="cls-61" d="M393.97,299.42c-.45,19.86-21.7,37.8-36.21,18.6-6.81-9.01-5.72-17.09-1.98-27.03,3.17-.01.79,3,.99,4.71,2.73,23.04,30.41,20.97,36.45,1.24,1.17-.06.76,1.75.74,2.48Z"/>
              <path class="cls-56" d="M361.24,333.15c-1-.19-2.29-.86-2.98-.99l.99-.5c.73.42,1.76.55,1.98,1.49Z"/>
            </g>
          </g>
          <g>
            <path class="cls-17" d="M359.25,253.79c-2.62,2.34-2.02,4.3-2.23,4.46-1.63,1.3-10.37,1.46-9.67,7.19,2.73,3.11,7.46,2.3,10.66.25,4.14-2.64,3.34-7.69,10.17-7.94-2.85,4.91-10.19,10.43-13.39,16.62-7.61,14.69-11.35,40.2,0,53.81-4.56.53-16.27-4.02-17.86-8.18-3.25-8.53-.42-33.1-2.48-44.14-.58-3.11-2.9-6.09-2.98-6.45-.89-4.38-.13-10.11-1.49-14.63,4.25,2.02,8.91,3.42,13.64,2.98,5.32-.5,10.35-5.41,15.62-3.97Z"/>
            <path class="cls-47" d="M342.39,269.66c1.22,4.38,2.62,7.91,7.94,5.95-.12.39.69.59.5,1.24-3.21,10.52-7.95,20.62-10.17,31.49-2.35.54-.75-32.55-.25-35.46.13-.73.48-3.66,1.98-3.22Z"/>
            <path class="cls-47" d="M350.33,275.61c-5.32,1.96-6.72-1.58-7.94-5.95-1.56-5.6-2.14-7.92,4.71-7.94-2.76,6.26.59,7.13,6.2,7.19.54.74-2.79,6.07-2.98,6.7Z"/>
          </g>
        </g>
        <g>
          <path class="cls-17" d="M326.02,245.85c-12.5,10.63-31.06,13.18-46.87,15.87-1.24.72.22,7.05.25,8.93.3,18.79-5.24,38.05-9.92,56.05-.08-.61-1.01-3.09-.99-3.47,0-.13.87-1.51.99-2.48,1.3-10.56,4.88-20.7,6.45-31.25s2.02-16.83.99-27.28c-.02-.25.62-4.74.5-4.96,15.81-4.85,32.8-6.11,47.61-13.89.36.9.63,1.47.99,2.48Z"/>
          <path class="cls-27" d="M325.03,243.37c-14.82,7.78-31.8,9.03-47.61,13.89l-.99-.5-1.49-4.46c16.76-3.02,32.8-6.65,47.61-15.38,1.06,2.03,1.64,4.34,2.48,6.45Z"/>
          <path class="cls-29" d="M314.62,336.62c.24.57-.57,2.09.74,1.98.77-3.99,5.25-8.3,8.93-9.42,1.74-.53,3.43.08,4.22,0-.56,2.94-.65,5.14-1.98,7.94-2.51,5.26-10.46,6.36-15.87,7.44-5.84,1.16-6.85,1.33-12.9.99-7.19-.4-9.87-1.35-16.37-3.47,3.66.62,9.02,3.38,12.65,1.49,2.27-1.18,0-8.83.74-11.41.35.9,1.23,2.16,1.49,2.98.34,1.09.17,3.13.99,3.97-.11,1.55.08,3.15,0,4.71.94,2.33,15.48,1.02,16.37-1.98.62-2.1-4.14-14.06-6.2-14.63-3.16-.88-3.88,2.88-6.7,2.98,1.28-2.31,2.03-3.58,3.97-5.46,6.25-.34,7.86,6.94,9.92,11.9Z"/>
          <path class="cls-8" d="M271.47,328.19c-.71.73-1.92,1.38-1.98,1.49-.59-.98.15-1.77,0-2.98,4.68-17.99,10.22-37.26,9.92-56.05,2.1-.86,1.97-.23,2.48,1.74,3.05,11.72,3.77,38.69-2.98,49.1-1.64,2.52-5.33,4.52-7.44,6.7Z"/>
          <path class="cls-29" d="M294.78,332.15c-.75,2.58,1.52,10.23-.74,11.41-3.62,1.89-8.99-.87-12.65-1.49-5.21-1.7-15.93-3.96-12.4-11.9.3-.66.48-.47.5-.5.07-.1,1.27-.76,1.98-1.49,2.2-.49,5.73,1.25,6.94,2.98.66.94.93,3.32,1.24,4.46.82.07,1.22-2.5,1.24-2.98,6.87-9.77,8.75-13.74,13.89-.5Z"/>
          <path class="cls-29" d="M297.26,339.1c.23-3.12,1.98-6.24,3.47-8.93,2.81-.1,3.53-3.86,6.7-2.98,2.06.57,6.82,12.53,6.2,14.63-.89,3-15.43,4.31-16.37,1.98.08-1.56-.11-3.16,0-4.71Z"/>
          <g>
            <path class="cls-38" d="M329,254.29c1.45,8.15,1.96,62.83.5,70.18-.04.2-1.54,3.65-1.74,3.72-.85.32-1.63-.83-2.48-.5-3.96,1.55-8.32,5.35-10.66,8.93-2.06-4.97-3.67-12.24-9.92-11.9-4.21.23-6.26,7.75-8.43,10.42-.26-.81-1.14-2.07-1.49-2.98-5.14-13.25-7.02-9.27-13.89.5.04-.85-.76-2.83-.74-3.97l-1.74,2.48c-1.21-1.73-4.75-3.47-6.94-2.98,2.11-2.17,5.8-4.17,7.44-6.7,6.75-10.41,6.03-37.39,2.98-49.1-.51-1.97-.38-2.6-2.48-1.74-.03-1.88-1.49-8.21-.25-8.93,15.81-2.7,34.37-5.24,46.87-15.87.89,2.51,2.51,5.84,2.98,8.43Z"/>
            <path class="cls-27" d="M304.7,324.71c-1.93,1.88-2.69,3.15-3.97,5.46-1.49,2.69-3.24,5.81-3.47,8.93-.82-.83-.65-2.88-.99-3.97,2.18-2.66,4.22-10.19,8.43-10.42Z"/>
            <path class="cls-17" d="M280.89,332.65c-.02.48-.42,3.05-1.24,2.98-.31-1.14-.58-3.53-1.24-4.46l1.74-2.48c-.02,1.14.78,3.12.74,3.97Z"/>
            <g>
              <path class="cls-19" d="M311.39,269.66c5.37-.34,9.85.1,12.15,5.7,3.33,8.1,1.4,31.41-3.97,38.69-6.2,8.4-26.43,10.73-30.25-.5-.61-1.8-.36-32.38.5-34.72,2.23-6.12,15.72-8.81,21.58-9.18Z"/>
              <path class="cls-19" d="M295.52,298.92c8.05-1.3,10.4,16.3,1.98,16.37-1.73-2.85-8.68-10.37-6.2-14.14.95-1.44,2.67-1.98,4.22-2.23Z"/>
            </g>
          </g>
        </g>
        <g>
          <path class="cls-61" d="M276.92,262.22c1.03,10.45.59,16.63-.99,27.28l-1.98-20.58h-1.49c-.8,3.71-1.37,7.53-2.48,11.16-2.98-2.51-18.38-5.72-22.57-5.95-10.49-.58-20.11,1.92-28.52,8.18-.82,2.52,5.65,14.65,4.46,18.1-3.06-3.93-8.68-6.78-7.94-13.14.23-1.97,2.88-4.07,2.98-4.46.18-.73-3.11-13.97-3.47-14.63l30.5,1.49c-4.53-.67-1.7-1.89-2.23-5.46,11.35.06,22.46-1.02,33.73-1.98Z"/>
          <path class="cls-23" d="M275.93,289.5c-1.57,10.54-5.15,20.68-6.45,31.25-4.8.36-9.57.72-14.38.99,1.72-5.85,4.29-16.84,7.44-21.82.44-.69.98-1.34,1.49-1.98,3.14-3.97,14.32-10.81,5.95-17.86,1.11-3.63,1.68-7.45,2.48-11.16h1.49l1.98,20.58Z"/>
          <path class="cls-27" d="M268.49,323.23c-.02.38.92,2.86.99,3.47.15,1.2-.59,2,0,2.98-.02.03-.2-.17-.5.5l-49.1.5c-.22-1.51-1.11-4.01-1.49-5.95.04-.77.92-.48,1.49-.5,9.27-.22,19.22,1.36,29.01.99,6.47-.24,13.16-1.22,19.59-1.98Z"/>
          <path class="cls-70" d="M277.42,257.26c.13.22-.52,4.71-.5,4.96-11.26.97-22.38,2.04-33.73,1.98-10.71-.05-21.14-.95-31.74-2.48.04-1.15-.08-2.33,0-3.47-.15-1.61,1.1-.93,1.98-.74,3.69.78,7.43,2.79,11.16,3.22,15.56,1.8,36.37-1.47,51.83-3.97l.99.5Z"/>
          <path class="cls-3" d="M269.48,320.75c-.12.97-.99,2.35-.99,2.48-6.43.77-13.12,1.74-19.59,1.98-9.8.37-19.74-1.22-29.01-.99-.65-.87-.46-1.51-.5-2.48,4.6.71,9.25.46,13.89.5,7.33.06,14.51-.09,21.82-.5,4.81-.27,9.58-.63,14.38-.99Z"/>
          <path class="cls-69" d="M276.43,256.77c-15.46,2.5-36.27,5.77-51.83,3.97-3.73-.43-7.47-2.44-11.16-3.22-.88-.19-2.14-.87-1.98.74,0-.1-.83-.62-.5-1.98.22-.89,2.6-2.4,2.98-3.47,4.41.78,10.07.36,14.38.99,3.7.54,7.39,3.24,12.65,3.47,7.67.34,11.43-2.62,17.61-3.47,5.29-.73,10.78-.48,16.37-1.49l1.49,4.46Z"/>
          <path class="cls-29" d="M269.98,280.08c-1.84,5.98-4.58,11.72-5.95,17.86-.51.64-1.05,1.29-1.49,1.98-11.72,6.75-24.67,7.98-37.2,2.48-.65-1.05-1.51-1.38-1.98-1.98,1.19-3.45-5.28-15.58-4.46-18.1,8.41-6.26,18.03-8.76,28.52-8.18,4.19.23,19.59,3.45,22.57,5.95Z"/>
          <path class="cls-23" d="M214.92,268.17c.36.66,3.65,13.9,3.47,14.63-.09.39-2.75,2.49-2.98,4.46-.74,6.36,4.88,9.22,7.94,13.14.47.61,1.34.93,1.98,1.98,2.88,4.68,5.07,14.58,7.94,19.84-4.64-.04-9.28.21-13.89-.5-.66-16.62-7.62-35.24-7.94-55.05,1.81-.13,2.58-.16,3.47,1.49Z"/>
          <path class="cls-23" d="M243.19,264.2c.53,3.57-2.3,4.79,2.23,5.46l-30.5-1.49c-.89-1.65-1.67-1.62-3.47-1.49-.02-1.15-.02-2.32,0-3.47,0-.49-.02-1,0-1.49,10.6,1.53,21.04,2.43,31.74,2.48Z"/>
          <path class="cls-61" d="M262.54,299.92c-3.15,4.98-5.72,15.97-7.44,21.82-7.31.41-14.49.56-21.82.5-2.87-5.26-5.06-15.16-7.94-19.84,12.53,5.5,25.48,4.27,37.2-2.48Z"/>
          <path class="cls-68" d="M264.03,297.93c1.37-6.13,4.12-11.87,5.95-17.86,8.36,7.04-2.81,13.89-5.95,17.86Z"/>
          <path class="cls-27" d="M211.45,263.21c-.02,1.15-.02,2.32,0,3.47.32,19.81,7.27,38.44,7.94,55.05.04.97-.16,1.61.5,2.48-.57.01-1.45-.27-1.49.5-4-20.4-9.09-36.51-8.93-58.03,0-.88.47-1.09.5-1.98.01-.49.03-1,0-1.49h1.49Z"/>
        </g>
        <g>
          <path class="cls-57" d="M159.87,254.78c1.08,4.85-.82,10.19-.99,15.13-.27,7.76.99,15.37.99,23.06,0,2.47-.03,4.97,0,7.44.12,9.08-1.21,18.93-.5,27.77-4.79-.15-9.67.2-14.38.99,4.52-2.27,7-4.95,7.94-9.92,2.15-11.48.1-27.31,1.49-39.43.73-6.42,2.17-11.19,2.98-17.86.28-2.33,1.62-4.74,1.49-7.19.15-.1.88.1.99,0Z"/>
          <path class="cls-27" d="M152.93,319.26c-.93,4.97-3.41,7.65-7.94,9.92-5.27.88-11.37,2.95-16.86,3.97,1.91-1.88,4.68-2.9,6.45-4.96,7.19.26,14.07-3.42,18.35-8.93Z"/>
          <g>
            <path class="cls-3" d="M127.63,249.82c-1.11,2.88,1.25,2.32,2.48,3.97.34.46.68.99.99,1.49-.26,4.84-3.41.57-3.72.5-1.29-.3-1.89.52-1.98.5-2.4-.69-6.65-3.06-8.18-4.96.95-.03,2.08.13,2.98,0,.67-.1,1.73.17,2.23,0,.3-.1,1.65-1.9,2.23-2.48-.12,3,1.35,2.76,2.98.99Z"/>
            <path class="cls-29" d="M131.6,258.25c3.14.33,7.31,1.68,8.93,4.46.24,3.64-2.6,2.42-5.21,1.49-.68-.24-.71-1.35-.99-1.49-.06-.03-.93,1.03-.99.99-2.45-1.37-8.4-6.15-1.74-5.46Z"/>
            <g>
              <path class="cls-18" d="M112.26,251.31c1.24.21,3.57.04,4.96,0,1.53,1.9,5.78,4.27,8.18,4.96.1.03.69-.79,1.98-.5.31.07,3.46,4.35,3.72-.5.69,1.1,1.62,1.45.5,2.98-6.66-.69-.71,4.09,1.74,5.46.06.03.93-1.02.99-.99.28.14.31,1.25.99,1.49,2.61.93,5.45,2.15,5.21-1.49,3.37,5.79-5.18,5.47-8.68,3.47-3.76-2.15-4.45-8.85-10.66-8.18,17.25,14.43,29.28,51.62,13.39,70.18-1.77,2.06-4.54,3.08-6.45,4.96-13.83,2.57-15.95,2.87-25.79-8.43-1.85-2.13-3.52-4.51-4.96-6.94-.4-.68-1.43-1.87-1.49-1.98-.76-1.48-1.42-3.37-1.98-4.96s-1.07-3.24-1.49-4.96c-.71-2.95-.5-5.67-.99-7.94-.1-.46.09-1.03,0-1.49-.26-1.26-.88-1.39-.99-1.98,1.08-7.22,1.17-14.72,2.98-21.82.24-.94.27-2.75.5-3.47.4-1.27,3.53-6.58,4.46-8.93.44-1.09,1.24-1.92,1.74-2.98l-.5-.99c-3.37.08-6.98-.53-9.92,1.49-1.04-.58-.55-1.34-.74-1.98h12.15c.11-1.87.94-1.23,1.24-1.49l5.46-2.73-3.97.25c2.36-1.75,2.53-1.28,5.46-1.98.5.51,1.15,1.45,1.24,1.49.37.14,1.21-.09,1.74,0Z"/>
              <path class="cls-59" d="M131.85,291.98c1.07-.49,2.44,3.5,2.73,4.22,3.49,8.71,1.28,19.95-6.2,26.04-14.52,11.82-34.68-6.34-32.24-22.82,10.76,20.29,37.85,18.8,35.71-7.44Z"/>
              <path class="cls-43" d="M102.34,254.29c.11-.09.74-1.93,1.49-2.48l3.97-.25-5.46,2.73Z"/>
            </g>
          </g>
          <g>
            <path class="cls-17" d="M132.09,253.29c1.91.57,3.75,1.74,6.45,2.48,7.01,1.93,13.59,3.56,20.34-.99.13,2.45-1.21,4.86-1.49,7.19-.8,6.66-2.24,11.44-2.98,17.86-1.38,12.12.66,27.95-1.49,39.43-4.29,5.5-11.16,9.19-18.35,8.93,15.89-18.56,3.86-55.76-13.39-70.18,6.21-.67,6.91,6.03,10.66,8.18,3.5,2,12.05,2.32,8.68-3.47-1.62-2.78-5.79-4.14-8.93-4.46,1.12-1.52.19-1.87-.5-2.98-.31-.5-.65-1.02-.99-1.49.03-.72,1.6-.61,1.98-.5Z"/>
            <path class="cls-28" d="M139.04,275.61c1.18.26,3.06.89,4.22.5.49-.17,4.03-7.71,4.22-8.43,2.26,1.18.86,5.16.99,7.19.01.21.98.79.99.99.61,10-.33,21.32-.25,31.49-2.15-6.89-6.06-13.79-8.18-20.58-1.12-3.56-1.16-7.63-1.98-11.16Z"/>
            <path class="cls-28" d="M147.47,267.68c-.19.72-3.72,8.26-4.22,8.43-1.16.4-3.04-.24-4.22-.5-.09-.38-2.93-5.58-2.48-6.2.71-.99,9.02-.25,5.21-8.18,4.26.67,7.38,0,5.7,6.45Z"/>
          </g>
        </g>
        <g>
          <path class="cls-29" d="M207.48,335.63c.03,1,.17,1.65.74,2.48.66-1.62,1.11-3.59,2.23-4.96,2.73-3.32,5.47-3.95,8.93-.99.22,2.66,1.91,2.93,0,6.2-3.89,6.66-25.05,9.38-32.24,9.18-3-.09-5.41.12-8.43-.5-1.26-.26-3.07-1.18-4.46-1.49.12.01,2.07-.26,2.48-.25-5.8-.95,2.15-15.62,3.72-16.12,2.39-.76,3.5,1.66,5.7,1.49.87,1.01,1.84,2.31,2.48,3.47l1.49,7.69.99-2.73c2.24-4.41,3.05-9.88,6.7-13.39,5.18-.03,7.18,6.18,9.67,9.92Z"/>
          <path class="cls-17" d="M163.34,246.35c4.85,1.58,11.27,6,16.62,7.94,9.31,3.37,19.89,6.07,29.76,6.94,1.18.79.18.97.25,1.98.03.49.01,1,0,1.49-1.28,1.09-2.47,1.91-4.22,1.98-2.17.09-12.52-1.91-15.38-2.48-10.25-2.04-20.15-5.9-29.51-10.42.21-.42,1.1-6.1,1.49-7.44.82.77.94-.02.99,0Z"/>
          <path class="cls-21" d="M213.93,252.8c-.38,1.07-2.76,2.58-2.98,3.47-16.32-1.31-31.96-7.89-47.12-12.65l-.5,2.73s-.18.77-.99,0c.76-2.64,1.92-5.23,2.48-7.94,13.83,7.56,33.62,11.66,49.1,14.38Z"/>
          <path class="cls-19" d="M209.47,266.68c-.17,21.52,4.93,37.63,8.93,58.03.38,1.94,1.27,4.44,1.49,5.95.05.36-.58.53-.5,1.49-3.46-2.96-6.2-2.33-8.93.99.08-.56-.33-.41-.5-.5l5.46-3.72c-3.01-2.28-5.1-5.34-6.45-8.93-5.57-14.77-7.01-36.25-1.49-51.09.47-1.26.25-2.59,1.98-2.23Z"/>
          <path class="cls-29" d="M186.16,330.67c-2.2.17-3.31-2.25-5.7-1.49-1.57.5-9.52,15.17-3.72,16.12-.41,0-2.36.26-2.48.25-.32-.03-5.88-1.37-6.2-1.49-7.37-2.77-7.35-6.94-8.18-13.89,6.62.11,10.99,4.66,13.14,10.42.99-3.87,4.71-16.12,10.42-13.39,1.21.58,1.89,2.5,2.73,3.47Z"/>
          <path class="cls-27" d="M210.96,256.27c-.33,1.36.5,1.88.5,1.98-.08,1.14.04,2.33,0,3.47-.02.49,0,1,0,1.49h-1.49c-.06-1.01.93-1.2-.25-1.98-9.87-.88-20.45-3.57-29.76-6.94-5.34-1.94-11.76-6.36-16.62-7.94l.5-2.73c15.16,4.76,30.79,11.34,47.12,12.65Z"/>
          <g>
            <path class="cls-51" d="M209.96,264.7c-.02.9-.49,1.1-.5,1.98-1.74-.35-1.51.97-1.98,2.23-5.52,14.84-4.08,36.32,1.49,51.09,1.35,3.59,3.43,6.64,6.45,8.93l-5.46,3.72c-.96-.49-.66-2.08,0-2.73-.97-2.69-2.5,5-2.48,5.7-2.49-3.73-4.49-9.95-9.67-9.92-3.65,3.51-4.45,8.98-6.7,13.39-.23-1.83-1.63-3.42-2.48-4.96-.64-1.16-1.61-2.46-2.48-3.47s-1.52-2.89-2.73-3.47c-5.71-2.73-9.43,9.52-10.42,13.39-2.15-5.75-6.52-10.31-13.14-10.42-.11-.9-.47-1.63-.5-1.98-.71-8.85.62-18.7.5-27.77,2.58.27,2.39-7.49,0-7.44,0-7.69-1.27-15.31-.99-23.06.17-4.94,2.07-10.28.99-15.13.14-.13.96-.93.99-.99,9.36,4.51,19.26,8.37,29.51,10.42,2.85.57,13.21,2.57,15.38,2.48,1.74-.07,2.94-.89,4.22-1.98Z"/>
            <path class="cls-17" d="M209.96,332.65c.16.08.57-.06.5.5-1.12,1.37-1.57,3.34-2.23,4.96-.57-.83-.71-1.48-.74-2.48-.02-.71,1.51-8.39,2.48-5.7-.66.65-.96,2.23,0,2.73Z"/>
            <path class="cls-27" d="M191.12,339.1l-.99,2.73-1.49-7.69c.85,1.54,2.25,3.13,2.48,4.96Z"/>
            <path class="cls-46" d="M159.87,300.41c-.03-2.47,0-4.97,0-7.44,2.39-.05,2.58,7.71,0,7.44Z"/>
            <g>
              <path class="cls-32" d="M175.99,268.17c6.44-.42,22.57,2.41,24.06,10.17.57,2.98-1.3,31.92-1.98,35.71-1.58,8.77-10.36,8.29-18.1,7.19-19.32-2.73-23.22-51.82-3.97-53.07Z"/>
              <path class="cls-5" d="M189.88,299.42c6.84-.58,6.17,7.11,3.22,11.16-.31.42-5.8,5.24-6.2,5.21-5.16-3.52-4.38-15.74,2.98-16.37Z"/>
              <path class="cls-32" d="M177.48,303.39c1.71-.61,3.23,2.48,2.23,4.22-1.99,3.47-6.66-2.63-2.23-4.22Z"/>
            </g>
          </g>
        </g>
      </g>
    </g>
  </g>
</svg>