<svg fill="#cfcfcf" height="200px" width="200px" version="1.1" id="Layer_1" xmlns="http://www.w3.org/2000/svg" xmlns:xlink="http://www.w3.org/1999/xlink" viewBox="0 0 512 512" xml:space="preserve" stroke="#cfcfcf"><g id="SVGRepo_bgCarrier" stroke-width="0"></g><g id="SVGRepo_tracerCarrier" stroke-linecap="round" stroke-linejoin="round"></g><g id="SVGRepo_iconCarrier"> <g> <g> <circle cx="106.898" cy="42.141" r="42.141"></circle> </g> </g> <g> <g> <path d="M300.358,456.503V230.214h0.001c0-6.311-5.116-11.427-11.427-11.427h-13.91c3.238-4.297,4.79-9.852,3.834-15.577 c-1.848-11.076-12.322-18.556-23.404-16.707l-45.779,7.643l-0.244-48.556c-0.132-26.4-21.719-47.877-48.118-47.877 c-11.343,0-97.814,0-109.159,0c-26.399,0-47.985,21.478-48.118,47.877l-0.75,149.379c-0.056,11.23,9.002,20.378,20.231,20.435 c0.035,0.001,0.069,0.001,0.104,0.001c11.182-0.001,20.274-9.036,20.33-20.231l0.75-149.378c0,0,0-0.001,0-0.002 c0.011-2.164,1.772-3.912,3.936-3.906c2.164,0.006,3.915,1.763,3.915,3.927l0.01,341.786c0,13.475,10.925,24.4,24.399,24.4 s24.399-10.925,24.399-24.4V292.57h10.536V487.6c0,13.475,10.925,24.4,24.399,24.4s24.399-10.925,24.399-24.4 c0-322.568-0.432-138.054-0.442-341.562c0-2.305,1.833-4.191,4.136-4.257c2.304-0.066,4.242,1.713,4.373,4.014l0.364,72.443 c0.057,11.192,9.155,20.231,20.333,20.231c2.238,0-2.205,0.663,57.972-9.396c-0.037,0.375-0.058,0.756-0.058,1.141 c0,6.311,5.116,11.427,11.427,11.427h18.707V467.93c0,6.311,5.116,11.427,11.427,11.427h11.111 c0.938-8.714,4.602-16.618,10.116-22.853H300.358z"></path> </g> </g> <g> <g> <path d="M371.97,456.502c5.515,6.235,9.177,14.14,10.116,22.853h28.519c0.938-8.713,4.602-16.618,10.116-22.853H371.97z"></path> </g> </g> <g> <g> <path d="M497.288,456.502h-14.755c5.514,6.235,9.178,14.14,10.116,22.853h4.641c6.31,0,11.427-5.116,11.427-11.427 C508.713,461.618,503.598,456.502,497.288,456.502z"></path> </g> </g> <g> <g> <path d="M352.03,457.823c-3.372-1.429-7.079-2.22-10.966-2.22c-15.549,0-28.198,12.651-28.198,28.199 c0,15.549,12.65,28.198,28.198,28.198c15.514,0,28.198-12.617,28.198-28.198C369.263,472.139,362.148,462.108,352.03,457.823z M341.064,494.467c-5.88,0-10.665-4.785-10.665-10.665c0-5.881,4.785-10.665,10.665-10.665c5.881,0,10.667,4.785,10.667,10.665 C351.73,489.682,346.946,494.467,341.064,494.467z"></path> </g> </g> <g> <g> <path d="M451.626,455.603c-15.546,0-28.198,12.647-28.198,28.198c0,15.543,12.65,28.198,28.198,28.198 c15.609,0,28.198-12.735,28.198-28.198C479.824,468.249,467.169,455.603,451.626,455.603z M451.625,494.467 c-5.88,0-10.665-4.785-10.665-10.665c0-5.881,4.785-10.665,10.665-10.665c5.881,0,10.666,4.785,10.666,10.665 C462.292,489.682,457.508,494.467,451.625,494.467z"></path> </g> </g> <g> <g> <path d="M345.237,344.575h-25.758c-2.676,0-4.845,2.169-4.845,4.845v88.718c0.001,2.676,2.17,4.845,4.846,4.845h15.532h10.225 c0.348,0,0.687-0.04,1.014-0.11c2.188-0.466,3.831-2.407,3.831-4.735v-88.718C350.082,346.744,347.912,344.575,345.237,344.575z M341.501,428.246c0,1.199-0.971,2.17-2.17,2.17h-13.943c-1.198,0-2.17-0.971-2.17-2.17v-7.468c0-1.199,0.971-2.17,2.17-2.17 h13.943c1.198,0,2.17,0.971,2.17,2.17V428.246z"></path> </g> </g> <g> <g> <path d="M394.753,344.575h-25.758c-2.676,0-4.845,2.169-4.845,4.845v88.718c0,2.676,2.169,4.845,4.845,4.845h25.758 c2.676,0,4.845-2.169,4.845-4.845v-88.718C399.598,346.744,397.429,344.575,394.753,344.575z M391.015,428.246L391.015,428.246 c0,1.199-0.972,2.17-2.17,2.17h-13.943c-1.199,0-2.17-0.971-2.17-2.17v-7.468c0-1.199,0.971-2.17,2.17-2.17h13.943 c1.198,0,2.17,0.971,2.17,2.17V428.246z"></path> </g> </g> <g> <g> <path d="M444.266,344.575h-25.758c-2.676,0-4.845,2.169-4.845,4.845v88.718c0,2.676,2.169,4.845,4.845,4.845h25.758 c2.676,0,4.845-2.169,4.845-4.845v-88.718C449.111,346.744,446.942,344.575,444.266,344.575z M440.529,428.246 c0,1.199-0.971,2.17-2.17,2.17h-13.943c-1.198,0-2.17-0.971-2.17-2.17v-7.468c0-1.199,0.971-2.17,2.17-2.17h13.943 c1.199,0,2.17,0.971,2.17,2.17V428.246z"></path> </g> </g> <g> <g> <path d="M493.78,344.575h-25.758c-2.675,0-4.845,2.169-4.845,4.845v88.718c0,2.676,2.17,4.845,4.845,4.845h25.758 c2.676,0,4.845-2.169,4.845-4.845v-88.718C498.626,346.744,496.456,344.575,493.78,344.575z M490.043,428.246 c0,1.199-0.971,2.17-2.17,2.17h-13.943c-1.199,0-2.17-0.971-2.17-2.17v-7.468c0-1.199,0.971-2.17,2.17-2.17h13.943 c1.199,0,2.17,0.971,2.17,2.17V428.246z"></path> </g> </g> <g> <g> <path d="M408.508,296.07H319.79c-2.676,0-4.845,2.169-4.845,4.845v25.758c0,2.676,2.17,4.845,4.845,4.845h88.718 c2.676,0,4.845-2.169,4.845-4.845v-25.758C413.354,298.239,411.185,296.07,408.508,296.07z M400.786,320.766 c0,1.199-0.971,2.17-2.17,2.17h-7.468c-1.198,0-2.17-0.971-2.17-2.17v-13.943c0-1.198,0.971-2.17,2.17-2.17h7.468 c1.198,0,2.17,0.971,2.17,2.17V320.766z"></path> </g> </g> <g> <g> <path d="M485.562,305.034L422.828,242.3c-1.892-1.892-4.96-1.892-6.852,0l-18.213,18.214c-1.892,1.892-1.892,4.96,0,6.852 l62.734,62.734c1.892,1.892,4.96,1.892,6.852,0l18.213-18.214C487.454,309.994,487.454,306.926,485.562,305.034z M472.497,307.175 l-9.86,9.86c-0.847,0.847-2.221,0.847-3.068,0l-5.28-5.28c-0.846-0.847-0.846-2.221,0.001-3.068l9.859-9.86 c0.847-0.847,2.221-0.847,3.068,0l5.28,5.28C473.344,304.954,473.344,306.328,472.497,307.175z"></path> </g> </g> </g></svg>