<?xml version="1.0" encoding="utf-8"?>
<!-- Generator: Adobe Illustrator 27.9.4, SVG Export Plug-In . SVG Version: 9.03 Build 54784)  -->
<svg version="1.1" id="Capa_1" xmlns="http://www.w3.org/2000/svg" xmlns:xlink="http://www.w3.org/1999/xlink" x="0px" y="0px"
	 viewBox="0 0 800 800" style="enable-background:new 0 0 800 800;" xml:space="preserve">
<style type="text/css">
	.st0{fill:#909090;}
</style>
<g>
	<path class="st0" d="M696.4,84.7h-58.1V26.5c0-7.8-3.4-15.2-9.4-20.2c-5.9-5-13.8-7.2-21.5-5.9L99.3,85
		c-12.8,2.1-22.1,13.2-22.1,26.1v662.4c0,14.6,11.9,26.5,26.5,26.5h592.7c14.6,0,26.5-11.9,26.5-26.5V111.1
		C722.8,96.5,711,84.7,696.4,84.7z M130.1,133.5l455.2-75.8v608.8l-455.2,75.8V133.5z M669.9,747.1H423.7l192.4-32
		c12.8-2.1,22.1-13.2,22.1-26.1V137.6h31.7L669.9,747.1L669.9,747.1z"/>
	<path class="st0" d="M490.4,176.5l-273.4,42.3c-14.4,2.2-24.3,15.8-22.1,30.2c2,13.1,13.3,22.4,26.1,22.4c1.3,0,2.7-0.1,4.1-0.3
		l273.4-42.3c14.4-2.2,24.3-15.8,22.1-30.2C518.3,184.1,504.8,174.2,490.4,176.5z"/>
</g>
</svg>
