<?xml version="1.0" encoding="UTF-8"?>
<svg id="Layer_1" xmlns="http://www.w3.org/2000/svg" version="1.1" viewBox="0 0 91 91">
  <!-- Generator: Adobe Illustrator 29.1.0, SVG Export Plug-In . SVG Version: 2.1.0 Build 142)  -->
  <defs>
    <style>
      .st0, .st1 {
        isolation: isolate;
      }

      .st2 {
        fill: #647f94;
      }

      .st1 {
        font-family: MongolianBaiti, 'Mongolian Baiti';
        font-size: 55.5px;
      }

      .st1, .st3 {
        fill: #65b794;
      }
    </style>
  </defs>
  <g id="SVGRepo_iconCarrier">
    <path class="st2" d="M79.6,89.6H3.5c-1.8,0-3.3-1.5-3.3-3.3V5.5c-.1-1.8,1.4-3.3,3.3-3.3h48.3c1.8,0,3.3,1.5,3.3,3.3s-1.5,3.3-3.3,3.3H6.8v74.1h72.8c2.6,0,4.7-2.1,4.7-4.7v-16.1c0-1.8,1.5-3.3,3.3-3.3s3.3,1.5,3.3,3.3v16.1c0,6.3-5.1,11.3-11.3,11.3h0Z"/>
  </g>
  <g class="st0">
    <text class="st1" transform="translate(29.3 65.8) rotate(-.6) scale(2.2 1)"><tspan x="0" y="0">i</tspan></text>
  </g>
  <path class="st3" d="M64.9,2.2h24.1c.9,0,1.6,1.5,1.6,3.3s-.8,3.3-1.6,3.3h-22.5"/>
  <path class="st3" d="M90.7,5.5v35.5c0,.9-1.5,1.6-3.3,1.6s-3.3-.8-3.3-1.6V7.2"/>
</svg>