<svg fill="#000000" height="200px" width="200px" version="1.1" id="Layer_1" xmlns="http://www.w3.org/2000/svg" xmlns:xlink="http://www.w3.org/1999/xlink" viewBox="0 0 512 512" xml:space="preserve"><g id="SVGRepo_bgCarrier" stroke-width="0"></g><g id="SVGRepo_tracerCarrier" stroke-linecap="round" stroke-linejoin="round"></g><g id="SVGRepo_iconCarrier"> <g> <g> <path d="M313.191,190.638H198.809c-4.513,0-8.17,3.658-8.17,8.17v114.383c0,4.512,3.657,8.17,8.17,8.17h114.383 c4.513,0,8.17-3.658,8.17-8.17V198.809C321.362,194.296,317.705,190.638,313.191,190.638z M305.021,305.021h-98.043v-98.043 h98.043V305.021z"></path> </g> </g> <g> <g> <path d="M166.128,190.638H51.745c-4.513,0-8.17,3.658-8.17,8.17v114.383c0,4.512,3.657,8.17,8.17,8.17h114.383 c4.513,0,8.17-3.658,8.17-8.17V198.809C174.298,194.296,170.641,190.638,166.128,190.638z M157.957,305.021H59.915v-98.043h98.043 V305.021z"></path> </g> </g> <g> <g> <path d="M460.255,190.638H345.872c-4.513,0-8.17,3.658-8.17,8.17v114.383c0,4.512,3.657,8.17,8.17,8.17h114.383 c4.513,0,8.17-3.658,8.17-8.17V198.809C468.426,194.296,464.769,190.638,460.255,190.638z M452.085,305.021h-98.043v-98.043 h98.043V305.021z"></path> </g> </g> <g> <g> <path d="M313.191,337.702H198.809c-4.513,0-8.17,3.658-8.17,8.17v114.383c0,4.512,3.657,8.17,8.17,8.17h114.383 c4.513,0,8.17-3.658,8.17-8.17V345.872C321.362,341.36,317.705,337.702,313.191,337.702z M305.021,452.085h-98.043v-98.043h98.043 V452.085z"></path> </g> </g> <g> <g> <path d="M166.128,337.702H51.745c-4.513,0-8.17,3.658-8.17,8.17v114.383c0,4.512,3.657,8.17,8.17,8.17h114.383 c4.513,0,8.17-3.658,8.17-8.17V345.872C174.298,341.36,170.641,337.702,166.128,337.702z M157.957,452.085H59.915v-98.043h98.043 V452.085z"></path> </g> </g> <g> <g> <path d="M460.255,337.702H345.872c-4.513,0-8.17,3.658-8.17,8.17v114.383c0,4.512,3.657,8.17,8.17,8.17h114.383 c4.513,0,8.17-3.658,8.17-8.17V345.872C468.426,341.36,464.769,337.702,460.255,337.702z M452.085,452.085h-98.043v-98.043h98.043 V452.085z"></path> </g> </g> <g> <g> <path d="M365.844,57.192c-13.515,0-24.511,10.995-24.511,24.511s10.996,24.511,24.511,24.511s24.511-10.995,24.511-24.511 S379.358,57.192,365.844,57.192z M365.844,89.872c-4.506,0-8.17-3.665-8.17-8.17s3.665-8.17,8.17-8.17 c4.506,0,8.17,3.665,8.17,8.17S370.349,89.872,365.844,89.872z"></path> </g> </g> <g> <g> <path d="M146.156,57.192c-13.515,0-24.511,10.995-24.511,24.511s10.996,24.511,24.511,24.511 c13.515,0,24.511-10.995,24.511-24.511S159.671,57.192,146.156,57.192z M146.156,89.872c-4.506,0-8.17-3.665-8.17-8.17 s3.665-8.17,8.17-8.17c4.506,0,8.17,3.665,8.17,8.17S150.662,89.872,146.156,89.872z"></path> </g> </g> <g> <g> <path d="M503.83,0H8.17C3.657,0,0,3.658,0,8.17v495.66c0,4.512,3.657,8.17,8.17,8.17h495.66c4.513,0,8.17-3.658,8.17-8.17V8.17 C512,3.658,508.343,0,503.83,0z M495.66,147.064H106.213c-4.513,0-8.17,3.658-8.17,8.17s3.657,8.17,8.17,8.17H495.66V495.66H16.34 V163.404h57.191c4.513,0,8.17-3.658,8.17-8.17s-3.657-8.17-8.17-8.17H16.34V16.34H495.66V147.064z"></path> </g> </g> </g></svg>