<svg viewBox="0 0 21 21" xmlns="http://www.w3.org/2000/svg" fill="#000000"><g id="SVGRepo_bgCarrier" stroke-width="0"></g><g id="SVGRepo_tracerCarrier" stroke-linecap="round" stroke-linejoin="round"></g><g id="SVGRepo_iconCarrier"> <g fill="none" fill-rule="evenodd" stroke="#000000" stroke-linecap="round" stroke-linejoin="round" transform="translate(3 3)"> <path d="m2.5.5h10c1.1045695 0 2 .8954305 2 2v10c0 1.1045695-.8954305 2-2 2h-10c-1.1045695 0-2-.8954305-2-2v-10c0-1.1045695.8954305-2 2-2z"></path> <path d="m2.5 2.5h10c1.1045695 0 2 .8954305 2 2v-2c0-1-.8954305-2-2-2h-10c-1.1045695 0-2 1-2 2v2c0-1.1045695.8954305-2 2-2z" fill="#000000"></path> </g> </g></svg>