<?xml version="1.0" encoding="utf-8"?>
<!-- Generator: Adobe Illustrator 27.9.2, SVG Export Plug-In . SVG Version: 6.00 Build 0)  -->
<svg version="1.1" id="Icons" xmlns="http://www.w3.org/2000/svg" xmlns:xlink="http://www.w3.org/1999/xlink" x="0px" y="0px"
	 viewBox="0 0 24 24" style="enable-background:new 0 0 24 24;" xml:space="preserve">
<style type="text/css">
	.st0{fill:#81BB27;}
	.st1{fill:url(#SVGID_1_);}
	.st2{fill:#3D3C44;}
	.st3{fill:url(#SVGID_00000018950291477204029710000011359027175505257884_);}
</style>
<path class="st0" d="M17,11c-0.6,0-1-0.4-1-1V7c0-2.2-1.8-4-4-4S8,4.8,8,7v3c0,0.6-0.4,1-1,1s-1-0.4-1-1V7c0-3.3,2.7-6,6-6
	s6,2.7,6,6v3C18,10.6,17.6,11,17,11z"/>
<linearGradient id="SVGID_1_" gradientUnits="userSpaceOnUse" x1="12" y1="13.305" x2="12" y2="0.8891" gradientTransform="matrix(1 0 0 -1 0 23.89)">
	<stop  offset="0" style="stop-color:#FFF650"/>
	<stop  offset="1" style="stop-color:#FFAB17"/>
</linearGradient>
<path class="st1" d="M6,10.5h12c1.7,0,3,1.2,3,2.7v7.1c0,1.5-1.3,2.7-3,2.7H6c-1.7,0-3-1.2-3-2.7v-7.1C3,11.7,4.3,10.5,6,10.5z"/>
<path class="st2" d="M12,20c-0.6,0-1-0.4-1-1v-3c0-0.6,0.4-1,1-1s1,0.4,1,1v3C13,19.6,12.6,20,12,20z"/>
<linearGradient id="SVGID_00000094593742343870459560000000059029768740188816_" gradientUnits="userSpaceOnUse" x1="12" y1="10.975" x2="12" y2="6.794" gradientTransform="matrix(1 0 0 -1 0 23.89)">
	<stop  offset="0" style="stop-color:#5D5C66"/>
	<stop  offset="1" style="stop-color:#48474F"/>
</linearGradient>
<circle style="fill:url(#SVGID_00000094593742343870459560000000059029768740188816_);" cx="12" cy="15" r="2"/>
</svg>
