<?xml version="1.0" encoding="UTF-8"?>
<svg xmlns="http://www.w3.org/2000/svg" version="1.1" viewBox="0 0 276.6 46">
  <defs>
    <style>
      .cls-1 {
        fill: #fff;
      }

      .cls-2 {
        fill: #e30613;
      }
    </style>
  </defs>
  <!-- Generator: Adobe Illustrator 28.6.0, SVG Export Plug-In . SVG Version: 1.2.0 Build 709)  -->
  <g>
    <g id="Warstwa_1">
      <path class="cls-1" d="M107.2,39l-1.7,4.9c-4.1,1.4-7.7,2.1-10.8,2.1s-5.4-.7-7.1-2.1c-1.9-1.6-2.8-4.2-2.8-7.7V15.3h-3.7c3.2-1.7,4.7-4.6,4.7-8.7s0-1.6-.2-2.3v-.4C89.1,3.1,92.6,1.8,95.8,0v13.6h9.2l-.9,1.9c-.5-.1-1-.2-1.5-.2h-6.8v19c0,2.3.5,4.2,1.4,5.4,1,1.4,2.3,2.1,4.1,2.1s4.1-1,5.9-2.9M51.6,12.6l12.1-.8c.4.7.8,1.6,1.1,2.7.4,1.3.6,4.3.6,8.9,2.7-5,4.8-8.1,6.3-9.3,1.9-1.5,4.1-2.2,6.3-2.2s1.2,0,1.9.1l-1.7,6.6c-1.3-.8-2.8-1.2-4.5-1.2s-4.2.8-5.8,2.5c-1.7,1.9-2.5,4.4-2.5,7.5v11.4c0,3.1.9,5.2,2.7,6.3h-16.3c1.7-1.1,2.6-3.2,2.6-6.3v-20c0-3.2-.9-5.3-2.8-6.3h0ZM20.4,5.4l-6.1,18.5c2.7,0,4.7.2,6.1.7,1.4.5,3.9,2,7.5,4.6,0,0-7.5-23.8-7.5-23.8ZM48.2,45.2h-20.6v-.5l-1.1,1.2c1.5-.2,2.7-.7,3.5-1.7.8-1,1.2-2.1,1.2-3.5,0-2-.6-3.9-1.9-5.9-1.2-1.8-2.8-3.2-4.5-4.3-1.5-.9-3-1.6-4.5-2.1-2-.7-4.5-1.1-7.3-1.1l-3.3,9.5c-.4,1.2-.7,2.7-.9,4.6,0,1.8.6,3,1.7,3.8H0c2-1.2,3.6-3.5,4.9-6.7L16.6,7.6c.7-1.7,1-3.1,1-4s-.3-1.8-.9-2.3h16.8c-.6.5-1,1.2-1.1,2.1,0,.5.4,1.6.9,3.1l11,33.1c1,2.8,2.3,4.7,4,5.7Z"/>
      <path class="cls-2" d="M276.6,45.1h-19.9v-.5l-1.2,1.3c3,0,4.5-1.4,4.5-4.1s-.9-4.4-2.7-7.6c-1.3-2.4-3.1-4.9-5.3-7.6l-3.5,3.3v9.7c0,2.7.8,4.5,2.5,5.5h-15.7c1.6-1,2.5-3.2,2.5-6.4V7.9c0-2.8-.4-4.8-1.3-5.9-.4-.5-.9-.9-1.4-1.1l13.4-.8v28.5l10.6-10.2c1.4-1.4,2.1-2.6,2.1-3.6s-.4-1.4-1.1-1.9h11.9c-.9.3-1.9.6-2.9,1-3.1,1.3-6.1,3.4-8.8,6.3,3.3,3.8,6.1,7.8,8.3,12,1,2.1,2.6,5.2,4.7,9.2,1,1.8,2.1,3,3.3,3.7M230.6,45h-12.6c-.1-.4-.2-1-.3-1.5,0-.9-.1-3.3-.1-7.2-3.1,4-5.9,6.5-8.4,7.8-2.6,1.2-5.1,1.9-7.7,1.9-4.9,0-7.4-2.5-7.4-7.7v-19.2c0-3.3-.9-5.4-2.7-6.4l13.5-1.1v23.6c0,3.8,1.5,5.7,4.5,5.7,2.7-.6,4.7-2.1,6.2-4.3,1.4-2.1,2.1-4.5,2.1-7.4v-8.6c0-2.6-.2-4.4-.6-5.3-.4-1.1-1.2-2-2.2-2.5l13.4-.8v27.9c0,2.3.8,4,2.4,5.2h0ZM161.9,12.6l12.1-.8c.4.7.8,1.6,1.1,2.7.4,1.3.6,4.3.6,8.9,2.7-5,4.8-8.1,6.3-9.3,1.9-1.5,4.1-2.2,6.3-2.2s1.2,0,1.9.1l-1.7,6.6c-1.3-.8-2.8-1.2-4.5-1.2s-4.2.8-5.8,2.5c-1.7,1.9-2.5,4.4-2.5,7.5v11.4c0,3.1.9,5.2,2.7,6.3h-16.3c1.7-1.1,2.6-3.2,2.6-6.3v-20c0-3.2-.9-5.3-2.8-6.3h0ZM140.8,8.8c-2.9-3.6-6.1-5.5-9.7-5.5s-3,.5-4.1,1.5c-1.1,1-1.6,2.4-1.6,4.2v27.6c0,4.2,2.2,6.3,6.7,6.3s6.6-1.5,9.1-4.4c2.9-3.3,4.4-7.8,4.4-13.5s-1.6-12.1-4.9-16.2h0ZM111.2,1.3h20.8c8.7,0,15.4,2.4,20,7.3,4.1,4.4,6.1,9.8,6.1,16.4s-1.7,10.4-5.1,13.9c-3.9,4.1-9.6,6.2-17,6.2h-24.9c1.7-1.1,2.5-3.6,2.5-7.4V8.1c0-3.6-.8-5.8-2.3-6.8h0Z"/>
    </g>
  </g>
</svg>