<?xml version="1.0" encoding="utf-8"?>
<!-- Generator: Adobe Illustrator 28.0.0, SVG Export Plug-In . SVG Version: 6.00 Build 0)  -->
<svg version="1.1" id="Warstwa_1" xmlns="http://www.w3.org/2000/svg" xmlns:xlink="http://www.w3.org/1999/xlink" x="0px" y="0px"
	 viewBox="0 0 24 24" style="enable-background:new 0 0 24 24;" xml:space="preserve">
<style type="text/css">
	.st0{fill:#D3D3D3;stroke:#474747;stroke-width:0.25;stroke-miterlimit:10;}
	.st1{fill:#D3D3D3;stroke:#444444;stroke-width:0.25;stroke-miterlimit:10;}
</style>
<g id="info">
</g>
<path class="st0" d="M12,13c1.1,0,2-0.9,2-2V4c0-1.1-0.9-2-2-2s-2,0.9-2,2v7C10,12.1,10.9,13,12,13z"/>
<path class="st1" d="M19.1,4.9L19.1,4.9c-0.3-0.3-0.6-0.4-1.1-0.4c-0.8,0-1.5,0.7-1.5,1.5c0,0.4,0.2,0.8,0.4,1.1l0,0l0,0l0,0
	c1.3,1.3,2,3,2,4.9c0,3.9-3.1,7-7,7s-7-3.1-7-7c0-1.9,0.8-3.7,2.1-4.9l0,0C7.3,6.8,7.5,6.4,7.5,6c0-0.8-0.7-1.5-1.5-1.5
	c-0.4,0-0.8,0.2-1.1,0.4l0,0C3.1,6.7,2,9.2,2,12c0,5.5,4.5,10,10,10s10-4.5,10-10C22,9.2,20.9,6.7,19.1,4.9z"/>
</svg>
