<?xml version="1.0" encoding="UTF-8"?>
<svg id="Uploaded_to_svgrepo.com" xmlns="http://www.w3.org/2000/svg" version="1.1" viewBox="0 0 32 32">
  <!-- Generator: Adobe Illustrator 29.7.1, SVG Export Plug-In . SVG Version: 2.1.1 Build 8)  -->
  <defs>
    <style>
      .st0 {
        fill: #ea514a;
      }

      .st1 {
        fill: #111918;
      }
    </style>
  </defs>
  <path class="st0" d="M10.42,2.58s-6.15-.57-7.11,4.97c-2.52,14.64,10.59,7.82,10.59,10.41,0,5.51.1,11.35.1,11.35h14.99V7.29s.37-4.94-6.5-4.71c-6.07.21-12.08,0-12.08,0Z"/>
  <g id="SVGRepo_iconCarrier">
    <path class="st1" d="M8,13c.7,0,2-.52,2-3s-1.3-3-2-3-2,.52-2,3,1.3,3,2,3ZM8,8c.48,0,1,.52,1,2s-.52,2-1,2-1-.52-1-2,.52-2,1-2ZM24,1H8C4.14,1,1,5.04,1,10s3.14,9,7,9h4v11c0,.55.45,1,1,1h17c.55,0,1-.45,1-1V10c0-4.96-3.14-9-7-9ZM8,3c2.76,0,5,3.14,5,7s-2.24,7-5,7-5-3.14-5-7,2.24-7,5-7ZM13,14.42v2.58h-2.1c.85-.62,1.56-1.51,2.1-2.58ZM29,19h-1v1h1v9h-15v-9h1v-1h-1v-9h1v-1h-1.05c-.24-2.59-1.41-4.79-3.05-6h13.1c2.51,0,4.59,2.61,4.94,6h-.94v1h1v9ZM16,9h1v1h-1v-1ZM18,9h1v1h-1v-1ZM20,9h1v1h-1v-1ZM22,9h1v1h-1v-1ZM24,9h1v1h-1v-1ZM26,9h1v1h-1v-1ZM16,19h1v1h-1v-1ZM18,19h1v1h-1v-1ZM20,19h1v1h-1v-1ZM22,19h1v1h-1v-1ZM24,19h1v1h-1v-1ZM26,19h1v1h-1v-1Z"/>
  </g>
</svg>