<?xml version="1.0" encoding="UTF-8"?>
<svg id="Warstwa_1" xmlns="http://www.w3.org/2000/svg" version="1.1" viewBox="0 0 34 34">
  <!-- Generator: Adobe Illustrator 29.7.1, SVG Export Plug-In . SVG Version: 2.1.1 Build 8)  -->
  <defs>
    <style>
      .st0 {
        fill: #1d1d1b;
        stroke-width: .25px;
      }

      .st0, .st1 {
        stroke: #474747;
      }

      .st1 {
        fill: #ea514a;
        stroke-width: 2px;
      }

      .st2 {
        fill: #474747;
        fill-rule: evenodd;
      }
    </style>
  </defs>
  <g id="SVGRepo_iconCarrier">
    <g>
      <path class="st1" d="M5,1.99c0-.55.45-.99,1-.99h17.01c.55,0,1.34.27,1.78.62l3.44,2.75c.43.34.78,1.07.78,1.62v26.01c0,.55-.45,1-1,1H6c-.55,0-1-.45-1-.99V1.99Z"/>
      <path class="st2" d="M22,2h1v6h-1V2Z"/>
      <path class="st2" d="M22,7h6v1h-6v-1Z"/>
    </g>
  </g>
  <path class="st0" d="M23,2v5h5s.56-1.94-1.89-3.07-1.47-2.21-3.11-1.93Z"/>
</svg>