<?xml version="1.0" encoding="utf-8"?>
<!-- Generator: Adobe Illustrator 27.9.4, SVG Export Plug-In . SVG Version: 9.03 Build 54784)  -->
<svg version="1.1" id="Warstwa_1" xmlns="http://www.w3.org/2000/svg" xmlns:xlink="http://www.w3.org/1999/xlink" x="0px" y="0px"
	 viewBox="0 0 800 800" style="enable-background:new 0 0 800 800;" xml:space="preserve">
<style type="text/css">
	.st0{fill:none;stroke:#9D9D9C;stroke-width:47.0588;stroke-miterlimit:94.1176;}
	.st1{fill-rule:evenodd;clip-rule:evenodd;fill:#575757;stroke:#9D9D9C;stroke-miterlimit:10;}
	.st2{fill-rule:evenodd;clip-rule:evenodd;fill:#9D9D9C;stroke:#9D9D9C;stroke-miterlimit:10;}
</style>
<g>
	<g>
		<path class="st0" d="M117.6,46.9c0-12.9,10.6-23.4,23.4-23.4h400.2c12.9,0,31.5,6.5,41.8,14.7l80.9,64.7
			c10.1,8.1,18.4,25.1,18.4,38.2V753c0,12.9-10.5,23.5-23.5,23.5H141.2c-13,0-23.5-10.6-23.5-23.4V46.9z"/>
		<g>
			<path class="st1" d="M235.3,282.4h329.4v23.5H235.3V282.4z"/>
			<path class="st1" d="M235.3,352.9h329.4v23.5H235.3V352.9z"/>
			<path class="st1" d="M235.3,423.5h329.4v23.5H235.3V423.5z"/>
			<path class="st1" d="M235.3,494.1h141.2v23.5H235.3V494.1z"/>
		</g>
		<path class="st2" d="M517.6,47.1h23.5v141.2h-23.5V47.1z"/>
		<path class="st2" d="M517.6,164.7h141.2v23.5H517.6V164.7z"/>
	</g>
</g>
</svg>
