<?xml version="1.0" encoding="UTF-8"?>
<svg xmlns="http://www.w3.org/2000/svg" version="1.1" viewBox="0 0 32 32">
  <defs>
    <style>
      .cls-1 {
        fill: #65b794;
      }
    </style>
  </defs>
  <!-- Generator: Adobe Illustrator 28.7.7, SVG Export Plug-In . SVG Version: 1.2.0 Build 194)  -->
  <g>
    <g id="Uploaded_to_svgrepo.com">
      <g id="SVGRepo_iconCarrier">
        <path class="cls-1" d="M11,2C6,2,2,6,2,11s4,9,9,9,9-4,9-9S16,2,11,2ZM11,19c-4.4,0-8-3.6-8-8S6.6,3,11,3s8,3.6,8,8-3.6,8-8,8ZM21.3,18.7l-.3.3-1.3-1.3c1.7-2.2,2.6-5.2,2.2-8.3C21.2,4.7,17.5.9,12.8.1,5.3-1.1-1.1,5.3.1,12.8c.8,4.7,4.6,8.4,9.2,9,3.2.5,6.1-.4,8.3-2.2l1.3,1.3-.3.3c-.4.4-.4,1,0,1.4l7.3,7.3c1.1,1.1,2.9,1.1,4,0h0c1.1-1.1,1.1-2.9,0-4l-7.3-7.3c-.4-.4-1-.4-1.4,0ZM1,11C1,5.5,5.5,1,11,1s10,4.5,10,10-4.5,10-10,10S1,16.5,1,11ZM18.5,19.1c.2-.2.4-.4.6-.6l1.2,1.2-.6.6-1.2-1.2ZM19.4,22l2.6-2.6,7.3,7.3c.7.7.7,1.9,0,2.6h0c-.7.7-1.9.7-2.6,0l-7.3-7.3Z"/>
      </g>
    </g>
  </g>
</svg>