<?xml version="1.0" encoding="utf-8"?>
<!-- Generator: Adobe Illustrator 28.3.0, SVG Export Plug-In . SVG Version: 6.00 Build 0)  -->
<svg version="1.1" id="Layer_1" xmlns="http://www.w3.org/2000/svg" xmlns:xlink="http://www.w3.org/1999/xlink" x="0px" y="0px"
	 viewBox="0 0 512 512" style="enable-background:new 0 0 512 512;" xml:space="preserve">
<style type="text/css">
	.st0{fill:url(#SVGID_1_);stroke:#000000;stroke-miterlimit:10;}
	.st1{fill:url(#SVGID_00000106147265124889248930000007579335002767836850_);stroke:#000000;stroke-miterlimit:10;}
	.st2{fill:url(#SVGID_00000170984124748258856130000015397818497124729763_);stroke:#000000;stroke-miterlimit:10;}
	.st3{fill:url(#SVGID_00000127045766171816608040000003150392881738912953_);stroke:#000000;stroke-miterlimit:10;}
	.st4{fill:url(#SVGID_00000112621619354842629470000018261074028418906047_);stroke:#000000;stroke-miterlimit:10;}
	.st5{fill:url(#SVGID_00000124157606498455111480000004522317580345280901_);stroke:#000000;stroke-miterlimit:10;}
	.st6{fill:url(#SVGID_00000073700161546213915310000004740274111884289959_);stroke:#000000;stroke-miterlimit:10;}
</style>
<g>
	
		<linearGradient id="SVGID_1_" gradientUnits="userSpaceOnUse" x1="422.7403" y1="-5.4047" x2="232.9919" y2="323.2492" gradientTransform="matrix(1 0 0 -1 0 511.89)">
		<stop  offset="0" style="stop-color:#5FBA15"/>
		<stop  offset="0.4194" style="stop-color:#AAC811"/>
		<stop  offset="1" style="stop-color:#5FBA15"/>
	</linearGradient>
	<path class="st0" d="M434.5,72.3V412c0,33.6-27.5,61.1-61,61.1H126.7c-5.6,0-11-1-16.2-2.5c7.8,23.7,30,41.1,56.2,41.1h249.9
		c32.7,0,59.5-26.8,59.5-59.5V128.8C476.1,102.3,458.5,80,434.5,72.3z"/>
	
		<linearGradient id="SVGID_00000051377291621427801770000016659375736800331449_" gradientUnits="userSpaceOnUse" x1="351.3312" y1="63.7323" x2="89.3328" y2="517.5269" gradientTransform="matrix(1 0 0 -1 0 511.89)">
		<stop  offset="0" style="stop-color:#5FBA15"/>
		<stop  offset="0.5806" style="stop-color:#AAC811"/>
		<stop  offset="1" style="stop-color:#5FBA15"/>
	</linearGradient>
	<path style="fill:url(#SVGID_00000051377291621427801770000016659375736800331449_);stroke:#000000;stroke-miterlimit:10;" d="
		M345.2,0H95.4C62.7,0,35.9,26.8,35.9,59.5V383c0,32.7,26.8,59.5,59.5,59.5h249.9c32.7,0,59.5-26.8,59.5-59.5V59.5
		C404.7,26.8,378,0,345.2,0z M364.2,349.8c0,25.7-21.1,46.8-46.8,46.8H120.9c-25.7,0-46.8-21.1-46.8-46.8V95.4
		c0-25.7,21.1-46.8,46.8-46.8h196.6c25.7,0,46.8,21.1,46.8,46.8L364.2,349.8L364.2,349.8z"/>
	<g>
		
			<linearGradient id="SVGID_00000110460039079280182600000011433243670853472679_" gradientUnits="userSpaceOnUse" x1="276.3678" y1="367.7897" x2="233.9377" y2="441.2808" gradientTransform="matrix(1 0 0 -1 0 511.89)">
			<stop  offset="0" style="stop-color:#5FBA15"/>
			<stop  offset="0.4194" style="stop-color:#AAC811"/>
			<stop  offset="1" style="stop-color:#5FBA15"/>
		</linearGradient>
		<path style="fill:url(#SVGID_00000110460039079280182600000011433243670853472679_);stroke:#000000;stroke-miterlimit:10;" d="
			M319.8,117.5H190.5c-5.4,0-9.8-4.4-9.8-9.8V107c0-5.4,4.4-9.8,9.8-9.8h129.3c5.4,0,9.8,4.4,9.8,9.8v0.7
			C329.7,113.1,325.2,117.5,319.8,117.5z"/>
		
			<linearGradient id="SVGID_00000103237139202883726290000003721693905871821196_" gradientUnits="userSpaceOnUse" x1="250.1092" y1="294.9491" x2="190.1627" y2="398.7795" gradientTransform="matrix(1 0 0 -1 0 511.89)">
			<stop  offset="0" style="stop-color:#5FBA15"/>
			<stop  offset="0.4194" style="stop-color:#AAC811"/>
			<stop  offset="1" style="stop-color:#5FBA15"/>
		</linearGradient>
		<path style="fill:url(#SVGID_00000103237139202883726290000003721693905871821196_);stroke:#000000;stroke-miterlimit:10;" d="
			M319.8,175.2H120.4c-5.4,0-9.8-4.4-9.8-9.8v-0.7c0-5.4,4.4-9.8,9.8-9.8h199.5c5.4,0,9.8,4.4,9.8,9.8v0.7
			C329.7,170.7,325.2,175.2,319.8,175.2z"/>
		
			<linearGradient id="SVGID_00000132799897515466402150000013735328322174038915_" gradientUnits="userSpaceOnUse" x1="250.1187" y1="237.3327" x2="190.1627" y2="341.1795" gradientTransform="matrix(1 0 0 -1 0 511.89)">
			<stop  offset="0" style="stop-color:#5FBA15"/>
			<stop  offset="0.4194" style="stop-color:#AAC811"/>
			<stop  offset="1" style="stop-color:#5FBA15"/>
		</linearGradient>
		<path style="fill:url(#SVGID_00000132799897515466402150000013735328322174038915_);stroke:#000000;stroke-miterlimit:10;" d="
			M319.8,232.8H120.4c-5.4,0-9.8-4.4-9.8-9.8v-0.7c0-5.4,4.4-9.8,9.8-9.8h199.5c5.4,0,9.8,4.4,9.8,9.8v0.7
			C329.7,228.4,325.2,232.8,319.8,232.8z"/>
		
			<linearGradient id="SVGID_00000009585612633850208000000001850518510785167236_" gradientUnits="userSpaceOnUse" x1="250.1187" y1="179.6327" x2="190.1627" y2="283.4796" gradientTransform="matrix(1 0 0 -1 0 511.89)">
			<stop  offset="0" style="stop-color:#5FBA15"/>
			<stop  offset="0.4194" style="stop-color:#AAC811"/>
			<stop  offset="1" style="stop-color:#5FBA15"/>
		</linearGradient>
		<path style="fill:url(#SVGID_00000009585612633850208000000001850518510785167236_);stroke:#000000;stroke-miterlimit:10;" d="
			M319.8,290.5H120.4c-5.4,0-9.8-4.4-9.8-9.8V280c0-5.4,4.4-9.8,9.8-9.8h199.5c5.4,0,9.8,4.4,9.8,9.8v0.7
			C329.7,286.1,325.2,290.5,319.8,290.5z"/>
		
			<linearGradient id="SVGID_00000102539797151611522150000013341317687612416701_" gradientUnits="userSpaceOnUse" x1="250.1092" y1="121.9491" x2="190.1627" y2="225.7795" gradientTransform="matrix(1 0 0 -1 0 511.89)">
			<stop  offset="0" style="stop-color:#5FBA15"/>
			<stop  offset="0.4194" style="stop-color:#AAC811"/>
			<stop  offset="1" style="stop-color:#5FBA15"/>
		</linearGradient>
		<path style="fill:url(#SVGID_00000102539797151611522150000013341317687612416701_);stroke:#000000;stroke-miterlimit:10;" d="
			M319.8,348.2H120.4c-5.4,0-9.8-4.4-9.8-9.8v-0.7c0-5.4,4.4-9.8,9.8-9.8h199.5c5.4,0,9.8,4.4,9.8,9.8v0.7
			C329.7,343.7,325.2,348.2,319.8,348.2z"/>
	</g>
</g>
</svg>
