<?xml version="1.0" encoding="utf-8"?>
<!-- Generator: Adobe Illustrator 28.3.0, SVG Export Plug-In . SVG Version: 6.00 Build 0)  -->
<svg version="1.1" id="Layer_1" xmlns="http://www.w3.org/2000/svg" xmlns:xlink="http://www.w3.org/1999/xlink" x="0px" y="0px"
	 viewBox="0 0 512 512" style="enable-background:new 0 0 512 512;" xml:space="preserve">
<style type="text/css">
	.st0{fill:url(#SVGID_1_);stroke:#000000;stroke-miterlimit:10;}
	.st1{fill:url(#SVGID_00000033337441245810165180000011731631509134336140_);stroke:#000000;stroke-miterlimit:10;}
	.st2{fill:url(#SVGID_00000174596378260033528750000007548322717291696308_);stroke:#000000;stroke-miterlimit:10;}
	.st3{fill:url(#SVGID_00000065059479987341183290000004387440422903963793_);stroke:#000000;stroke-miterlimit:10;}
	.st4{fill:url(#SVGID_00000052066763098005965820000001156262011133485697_);stroke:#000000;stroke-miterlimit:10;}
	.st5{fill:url(#SVGID_00000067231776887276619890000016129460839252540346_);stroke:#000000;stroke-miterlimit:10;}
	.st6{fill:url(#SVGID_00000105417609359269022840000004518759465862114747_);stroke:#000000;stroke-miterlimit:10;}
</style>
<g>
	<linearGradient id="SVGID_1_" gradientUnits="userSpaceOnUse" x1="422.7403" y1="517.2947" x2="232.9919" y2="188.6408">
		<stop  offset="0" style="stop-color:#6AB42D"/>
		<stop  offset="2.876884e-02" style="stop-color:#8FC038"/>
		<stop  offset="0.4194" style="stop-color:#FFFFFF"/>
		<stop  offset="1" style="stop-color:#8FBF23"/>
	</linearGradient>
	<path class="st0" d="M434.5,72.3V412c0,33.6-27.5,61.1-61,61.1H126.7c-5.6,0-11-1-16.2-2.5c7.8,23.7,30,41.1,56.2,41.1h249.9
		c32.7,0,59.5-26.8,59.5-59.5V128.8C476.1,102.3,458.5,80,434.5,72.3z"/>
	
		<linearGradient id="SVGID_00000060001876143382050270000013890355985688585889_" gradientUnits="userSpaceOnUse" x1="351.3312" y1="448.1577" x2="89.3328" y2="-5.6369">
		<stop  offset="0" style="stop-color:#6AB42D"/>
		<stop  offset="2.876884e-02" style="stop-color:#8FC038"/>
		<stop  offset="0.4194" style="stop-color:#FFFFFF"/>
		<stop  offset="1" style="stop-color:#8FBF23"/>
	</linearGradient>
	<path style="fill:url(#SVGID_00000060001876143382050270000013890355985688585889_);stroke:#000000;stroke-miterlimit:10;" d="
		M345.2,0H95.4C62.7,0,35.9,26.8,35.9,59.5V383c0,32.7,26.8,59.5,59.5,59.5h249.9c32.7,0,59.5-26.8,59.5-59.5V59.5
		C404.7,26.8,378,0,345.2,0z M364.2,349.8c0,25.7-21.1,46.8-46.8,46.8H120.9c-25.7,0-46.8-21.1-46.8-46.8V95.4
		c0-25.7,21.1-46.8,46.8-46.8h196.6c25.7,0,46.8,21.1,46.8,46.8L364.2,349.8L364.2,349.8z"/>
	<g>
		
			<linearGradient id="SVGID_00000085230859831848973770000010150709840039255735_" gradientUnits="userSpaceOnUse" x1="276.3678" y1="144.1003" x2="233.9377" y2="70.6092">
			<stop  offset="0" style="stop-color:#6AB42D"/>
			<stop  offset="2.876884e-02" style="stop-color:#8FC038"/>
			<stop  offset="0.4194" style="stop-color:#FFFFFF"/>
			<stop  offset="1" style="stop-color:#8FBF23"/>
		</linearGradient>
		<path style="fill:url(#SVGID_00000085230859831848973770000010150709840039255735_);stroke:#000000;stroke-miterlimit:10;" d="
			M319.8,117.5H190.5c-5.4,0-9.8-4.4-9.8-9.8V107c0-5.4,4.4-9.8,9.8-9.8h129.3c5.4,0,9.8,4.4,9.8,9.8v0.7
			C329.7,113.1,325.2,117.5,319.8,117.5z"/>
		
			<linearGradient id="SVGID_00000087396838320077590230000013033930452890566814_" gradientUnits="userSpaceOnUse" x1="250.1092" y1="216.9409" x2="190.1627" y2="113.1104">
			<stop  offset="0" style="stop-color:#6AB42D"/>
			<stop  offset="2.876884e-02" style="stop-color:#8FC038"/>
			<stop  offset="0.4194" style="stop-color:#FFFFFF"/>
			<stop  offset="1" style="stop-color:#8FBF23"/>
		</linearGradient>
		<path style="fill:url(#SVGID_00000087396838320077590230000013033930452890566814_);stroke:#000000;stroke-miterlimit:10;" d="
			M319.8,175.2H120.4c-5.4,0-9.8-4.4-9.8-9.8v-0.7c0-5.4,4.4-9.8,9.8-9.8h199.5c5.4,0,9.8,4.4,9.8,9.8v0.7
			C329.7,170.7,325.2,175.2,319.8,175.2z"/>
		
			<linearGradient id="SVGID_00000048487723353313674110000003951509235077212860_" gradientUnits="userSpaceOnUse" x1="250.1187" y1="274.5573" x2="190.1627" y2="170.7104">
			<stop  offset="0" style="stop-color:#6AB42D"/>
			<stop  offset="2.876884e-02" style="stop-color:#8FC038"/>
			<stop  offset="0.4194" style="stop-color:#FFFFFF"/>
			<stop  offset="1" style="stop-color:#8FBF23"/>
		</linearGradient>
		<path style="fill:url(#SVGID_00000048487723353313674110000003951509235077212860_);stroke:#000000;stroke-miterlimit:10;" d="
			M319.8,232.8H120.4c-5.4,0-9.8-4.4-9.8-9.8v-0.7c0-5.4,4.4-9.8,9.8-9.8h199.5c5.4,0,9.8,4.4,9.8,9.8v0.7
			C329.7,228.4,325.2,232.8,319.8,232.8z"/>
		
			<linearGradient id="SVGID_00000024681106046379796200000016461463115510586000_" gradientUnits="userSpaceOnUse" x1="250.1187" y1="332.2573" x2="190.1627" y2="228.4104">
			<stop  offset="0" style="stop-color:#6AB42D"/>
			<stop  offset="2.876884e-02" style="stop-color:#8FC038"/>
			<stop  offset="0.4194" style="stop-color:#FFFFFF"/>
			<stop  offset="1" style="stop-color:#8FBF23"/>
		</linearGradient>
		<path style="fill:url(#SVGID_00000024681106046379796200000016461463115510586000_);stroke:#000000;stroke-miterlimit:10;" d="
			M319.8,290.5H120.4c-5.4,0-9.8-4.4-9.8-9.8V280c0-5.4,4.4-9.8,9.8-9.8h199.5c5.4,0,9.8,4.4,9.8,9.8v0.7
			C329.7,286.1,325.2,290.5,319.8,290.5z"/>
		
			<linearGradient id="SVGID_00000140004657614510531750000000076675594196585117_" gradientUnits="userSpaceOnUse" x1="250.1092" y1="389.9409" x2="190.1627" y2="286.1104">
			<stop  offset="0" style="stop-color:#6AB42D"/>
			<stop  offset="2.876884e-02" style="stop-color:#8FC038"/>
			<stop  offset="0.4194" style="stop-color:#FFFFFF"/>
			<stop  offset="1" style="stop-color:#8FBF23"/>
		</linearGradient>
		<path style="fill:url(#SVGID_00000140004657614510531750000000076675594196585117_);stroke:#000000;stroke-miterlimit:10;" d="
			M319.8,348.2H120.4c-5.4,0-9.8-4.4-9.8-9.8v-0.7c0-5.4,4.4-9.8,9.8-9.8h199.5c5.4,0,9.8,4.4,9.8,9.8v0.7
			C329.7,343.7,325.2,348.2,319.8,348.2z"/>
	</g>
</g>
</svg>
