<?xml version="1.0" encoding="utf-8"?>
<!-- Generator: Adobe Illustrator 27.9.2, SVG Export Plug-In . SVG Version: 6.00 Build 0)  -->
<svg version="1.1" id="Icons" xmlns="http://www.w3.org/2000/svg" xmlns:xlink="http://www.w3.org/1999/xlink" x="0px" y="0px"
	 viewBox="0 0 24 24" style="enable-background:new 0 0 24 24;" xml:space="preserve">
<style type="text/css">
	.st0{fill:#81BB27;}
	.st1{fill:url(#SVGID_1_);}
	.st2{fill:#3D3C44;}
	.st3{fill:url(#SVGID_00000029759255957986923590000000285243981201949631_);}
</style>
<path class="st0" d="M10.4,12.9c-0.3-0.5-0.1-1.1,0.3-1.4l2.6-1.6c1.9-1.2,2.5-3.6,1.3-5.5S10.9,2,9,3.1L6.5,4.7
	C6,5,5.4,4.8,5.1,4.4C4.8,3.9,5,3.3,5.4,3L8,1.4c2.8-1.7,6.5-0.9,8.3,2s0.9,6.5-2,8.3l-2.6,1.6C11.3,13.5,10.7,13.4,10.4,12.9z"/>
<linearGradient id="SVGID_1_" gradientUnits="userSpaceOnUse" x1="12" y1="13.305" x2="12" y2="0.8891" gradientTransform="matrix(1 0 0 -1 0 23.89)">
	<stop  offset="0" style="stop-color:#FFF650"/>
	<stop  offset="1" style="stop-color:#FFAB17"/>
</linearGradient>
<path class="st1" d="M6,10.5h12c1.7,0,3,1.2,3,2.7v7.1c0,1.5-1.3,2.7-3,2.7H6c-1.7,0-3-1.2-3-2.7v-7.1C3,11.7,4.3,10.5,6,10.5z"/>
<path class="st2" d="M12,20c-0.6,0-1-0.4-1-1v-3c0-0.6,0.4-1,1-1s1,0.4,1,1v3C13,19.6,12.6,20,12,20z"/>
<linearGradient id="SVGID_00000016067842922133518370000016492784317766732454_" gradientUnits="userSpaceOnUse" x1="12" y1="10.975" x2="12" y2="6.794" gradientTransform="matrix(1 0 0 -1 0 23.89)">
	<stop  offset="0" style="stop-color:#5D5C66"/>
	<stop  offset="1" style="stop-color:#48474F"/>
</linearGradient>
<circle style="fill:url(#SVGID_00000016067842922133518370000016492784317766732454_);" cx="12" cy="15" r="2"/>
</svg>
