<?xml version="1.0" encoding="UTF-8"?>
<svg id="Warstwa_1" xmlns="http://www.w3.org/2000/svg" version="1.1" xmlns:xlink="http://www.w3.org/1999/xlink" viewBox="0 0 841.9 595.3">
  <!-- Generator: Adobe Illustrator 29.8.4, SVG Export Plug-In . SVG Version: 2.1.1 Build 6)  -->
  <defs>
    <style>
      .st0 {
        fill: url(#Gradient_bez_nazwy_11);
      }
    </style>
    <radialGradient id="Gradient_bez_nazwy_11" data-name="Gradient bez nazwy 11" cx="423.1" cy="300.4" fx="423.1" fy="300.4" r="230.9" gradientUnits="userSpaceOnUse">
      <stop offset=".4" stop-color="#d80f16"/>
      <stop offset="1" stop-color="#1d1d1b"/>
    </radialGradient>
  </defs>
  <path class="st0" d="M511.5,80.2c6,10.4,18.3,31.7,27.4,47.4s16.4,28.6,16.2,28.8-3.7-.3-8.1-.9c-10.6-1.5-25.7-.5-37.9,2.6-12.4,3.2-29.4,11.3-40.1,19.2-15.6,11.7-31,30.6-41,50.5-2.4,4.8-4.6,8.8-4.8,8.8s-2.3-3.8-4.5-8.5c-9.8-20.1-27.7-42.2-43.7-53.7-24.9-17.9-53.8-24.9-81.2-19.6-3,.5-5.6.7-5.9.5-.3-.4,37.8-67.5,51-89.7,5.4-9-76.1,71.4-86.7,85.5-8.1,10.9-13.3,21.3-14.9,29.7-.9,5-2,7.4-5.4,11.6-16.7,20.5-27,47.9-30.3,80.1-5.6,55.9,14.5,94.7,68.5,132,3.8,2.7,19.5,12.6,34.7,21.9,42.2,26,52.9,34.1,77.9,59.1,18.1,18.2,30.6,33.9,36.6,46.2,2.1,4.3,4,7.8,4.3,7.8.4.1,1.2-1.6,1.9-3.7,2.8-7.7,12.1-20.6,27.3-37.9,23.6-26.8,51.4-49.6,89.8-73.7,40.5-25.5,54.1-35.6,69.5-51.7,18.4-19.1,29.1-40.1,32.5-63.8,1.8-12.1.8-39.7-2-53.5-5.4-27.4-16.2-50-31.7-66.7-4.8-5-6.4-7.6-7.8-12.3-5.4-19-20-36.7-66.2-80.6-14.7-14.1-28.9-27.6-31.6-29.9l-4.7-4.4,10.9,18.9Z"/>
</svg>