<svg fill="#000000" height="200px" width="200px" version="1.1" id="Layer_1" xmlns="http://www.w3.org/2000/svg" xmlns:xlink="http://www.w3.org/1999/xlink" viewBox="0 0 512 512" xml:space="preserve"><g id="SVGRepo_bgCarrier" stroke-width="0"></g><g id="SVGRepo_tracerCarrier" stroke-linecap="round" stroke-linejoin="round"></g><g id="SVGRepo_iconCarrier"> <g> <g> <path d="M501.966,49.426c-16.928,16.928-36.504,29.582-57.391,38.001c14.607,16.299,26.889,34.19,36.679,53.264 C499.683,109.052,509.933,73.965,512,38.484C508.837,42.236,505.501,45.891,501.966,49.426z"></path> </g> </g> <g> <g> <path d="M10.034,49.427C6.5,45.891,3.163,42.236,0,38.485c2.066,35.481,12.317,70.571,30.745,102.208 c9.79-19.074,22.072-36.965,36.679-53.266C46.538,79.009,26.961,66.353,10.034,49.427z"></path> </g> </g> <g> <g> <path d="M256.001,37.549C135.353,37.549,37.549,135.353,37.549,256s97.804,218.451,218.451,218.451 c120.648,0,218.451-97.804,218.451-218.451S376.648,37.549,256.001,37.549z M137.904,137.448l103.477,57.487l-16.751,30.152 L121.153,167.6L137.904,137.448z M227.257,261.749c-0.005,12.682-10.32,22.995-22.995,22.995 c-12.679,0-22.995-10.315-22.995-22.995s10.316-22.995,22.995-22.995C216.943,238.754,227.257,249.069,227.257,261.749z M256.001,399.718c-45.747,0-85.862-24.816-107.307-66.384l30.653-15.814c15.641,30.318,43.58,47.705,76.652,47.705 s61.011-17.388,76.652-47.706l30.653,15.816C341.86,374.902,301.745,399.718,256.001,399.718z M284.744,261.749 c0-12.679,10.315-22.995,22.995-22.995c12.682,0,22.995,10.315,22.995,22.995c-0.005,12.682-10.32,22.995-22.995,22.995 C295.06,284.744,284.744,274.429,284.744,261.749z M287.37,225.087l-16.751-30.152l103.477-57.487l16.751,30.152L287.37,225.087z"></path> </g> </g> </g></svg>