<?xml version="1.0" encoding="utf-8"?>
<!-- Generator: Adobe Illustrator 28.0.0, SVG Export Plug-In . SVG Version: 6.00 Build 0)  -->
<svg version="1.1" id="Layer_1" xmlns="http://www.w3.org/2000/svg" xmlns:xlink="http://www.w3.org/1999/xlink" x="0px" y="0px"
	 viewBox="0 0 50 50" style="enable-background:new 0 0 50 50;" xml:space="preserve">
<style type="text/css">
	.st0{fill:url(#SVGID_1_);stroke:#D3D3D3;stroke-width:2;stroke-linecap:round;stroke-miterlimit:10;}
	.st1{fill:none;}
	.st2{fill:url(#SVGID_00000083788387167873078890000008759010642413427861_);stroke:#D3D3D3;stroke-miterlimit:10;}
</style>
<linearGradient id="SVGID_1_" gradientUnits="userSpaceOnUse" x1="8.0294" y1="41.9705" x2="41.9706" y2="8.0294">
	<stop  offset="0" style="stop-color:#FFFFFF"/>
	<stop  offset="1" style="stop-color:#76B82A"/>
</linearGradient>
<circle class="st0" cx="25" cy="25" r="24"/>
<rect y="0" class="st1" width="50" height="50"/>
<linearGradient id="SVGID_00000126304718692490148820000002944194194534891160_" gradientUnits="userSpaceOnUse" x1="11.2174" y1="21.4261" x2="42.9739" y2="39.7607">
	<stop  offset="0.1221" style="stop-color:#FFFFFF"/>
	<stop  offset="0.9094" style="stop-color:#6B6B6B"/>
</linearGradient>
<path style="fill:url(#SVGID_00000126304718692490148820000002944194194534891160_);stroke:#D3D3D3;stroke-miterlimit:10;" d="
	M29.9,35.5c-0.1-1.6-0.1-2.7-0.1-4.2c0.7-0.4,2-2.8,2.3-4.9c0.6,0,1.5-0.6,1.7-2.8c0.1-1.2-0.4-1.9-0.8-2.1
	C34,18.7,35.9,10,29.5,9.1c-0.7-1.2-2.4-1.8-4.6-1.8c-8.9,0.2-9.9,6.7-8,14.2c-0.3,0.2-0.9,0.9-0.8,2.1c0.3,2.2,1.2,2.8,1.7,2.8
	c0.2,2.1,1.6,4.5,2.3,4.9c0,1.5,0.1,2.6-0.1,4.2c-1.3,3.4-7.7,3.7-11.5,6.9c3.9,3.9,10.2,6.7,16.9,6.7s14.5-5.3,15.8-6.7
	C37.7,39.2,31.2,38.9,29.9,35.5z"/>
</svg>
