<?xml version="1.0" encoding="UTF-8"?>
<svg id="Warstwa_1" data-name="Warstwa 1" xmlns="http://www.w3.org/2000/svg" viewBox="0 0 276.61 45.99">
  <defs>
    <style>
      .cls-1 {
        fill: #e30613;
      }

      .cls-1, .cls-2 {
        stroke-width: 0px;
      }

      .cls-2 {
        fill: #063e85;
      }
    </style>
  </defs>
  <path class="cls-2" d="m107.22,39l-1.73,4.86c-4.08,1.42-7.7,2.13-10.85,2.13s-5.41-.71-7.05-2.13c-1.86-1.6-2.8-4.15-2.8-7.65V15.31h-3.73c3.15-1.68,4.73-4.59,4.73-8.72,0-.8-.07-1.58-.2-2.33l-.13-.4c3.64-.8,7.1-2.08,10.38-3.86v13.58h9.19l-.87,1.93c-.49-.13-1-.2-1.53-.2h-6.79v19.04c0,2.35.47,4.15,1.4,5.39.98,1.42,2.33,2.13,4.06,2.13,2.13,0,4.1-.95,5.92-2.86M51.58,12.65l12.11-.8c.44.71.8,1.6,1.07,2.66.4,1.33.6,4.31.6,8.92,2.66-5.03,4.77-8.14,6.32-9.33,1.95-1.5,4.06-2.25,6.32-2.25.62,0,1.24.05,1.86.13l-1.73,6.59c-1.33-.8-2.82-1.2-4.46-1.2-2.26,0-4.19.84-5.79,2.53-1.69,1.86-2.53,4.37-2.53,7.52v11.45c0,3.11.91,5.21,2.73,6.32h-16.31c1.73-1.07,2.59-3.17,2.59-6.32v-19.97c0-3.24-.93-5.32-2.8-6.26Zm-31.22-7.25l-6.12,18.51c2.7,0,4.74.23,6.11.7,1.36.47,3.87,2.01,7.5,4.63l-7.49-23.84Zm27.82,39.8h-20.63v-.53l-1.06,1.2c1.51-.18,2.67-.74,3.49-1.7.82-.95,1.23-2.12,1.23-3.49,0-1.95-.64-3.9-1.93-5.86-1.24-1.77-2.75-3.19-4.53-4.26-1.51-.93-3.02-1.64-4.53-2.13-2.04-.71-4.48-1.07-7.32-1.07l-3.33,9.45c-.35,1.15-.67,2.68-.93,4.59,0,1.77.58,3.04,1.73,3.79H0c2-1.24,3.62-3.48,4.86-6.72L16.57,7.59c.67-1.73,1-3.06,1-3.99s-.31-1.75-.93-2.33h16.77c-.62.49-1,1.18-1.13,2.06.09.53.4,1.58.93,3.13l10.98,33.08c.98,2.8,2.31,4.68,3.99,5.66Z"/>
  <path class="cls-1" d="m276.61,45.06h-19.9v-.53l-1.2,1.26c3.02,0,4.53-1.38,4.53-4.13,0-1.91-.91-4.44-2.73-7.59-1.33-2.35-3.08-4.88-5.26-7.59l-3.53,3.34v9.71c0,2.71.84,4.55,2.53,5.53h-15.71c1.64-1.02,2.46-3.15,2.46-6.39V7.92c0-2.84-.42-4.79-1.26-5.86-.4-.49-.87-.87-1.4-1.13l13.38-.8v28.49l10.58-10.25c1.42-1.38,2.13-2.57,2.13-3.59,0-.8-.38-1.44-1.13-1.93h11.85c-.93.27-1.89.6-2.86,1-3.15,1.33-6.08,3.42-8.79,6.26,3.33,3.77,6.1,7.77,8.32,11.98,1.02,2.09,2.59,5.17,4.72,9.25.98,1.77,2.06,3.02,3.26,3.73m-46.05-.07h-12.58c-.13-.44-.24-.95-.33-1.53-.09-.93-.13-3.35-.13-7.25-3.06,3.95-5.88,6.55-8.45,7.79-2.57,1.24-5.15,1.86-7.72,1.86-4.93,0-7.39-2.55-7.39-7.65v-19.17c0-3.28-.91-5.41-2.73-6.39l13.51-1.06v23.56c0,3.77,1.51,5.66,4.53,5.66,2.66-.62,4.73-2.06,6.19-4.33,1.38-2.08,2.06-4.55,2.06-7.39v-8.59c0-2.57-.2-4.35-.6-5.32-.44-1.15-1.18-2-2.2-2.53l13.45-.8v27.95c0,2.26.8,3.99,2.4,5.19ZM161.87,12.65l12.11-.8c.44.71.8,1.6,1.07,2.66.4,1.33.6,4.31.6,8.92,2.66-5.03,4.77-8.14,6.32-9.33,1.95-1.5,4.06-2.25,6.32-2.25.62,0,1.24.05,1.86.13l-1.73,6.59c-1.33-.8-2.82-1.2-4.46-1.2-2.26,0-4.19.84-5.79,2.53-1.69,1.86-2.53,4.37-2.53,7.52v11.45c0,3.11.91,5.21,2.73,6.32h-16.31c1.73-1.07,2.59-3.17,2.59-6.32v-19.97c0-3.24-.93-5.32-2.8-6.26Zm-21.1-3.86c-2.89-3.64-6.12-5.46-9.72-5.46-1.64,0-2.99.5-4.06,1.5-1.06,1-1.6,2.39-1.6,4.16v27.55c0,4.22,2.24,6.32,6.72,6.32,3.51,0,6.55-1.46,9.12-4.39,2.93-3.33,4.39-7.83,4.39-13.51,0-6.66-1.62-12.05-4.86-16.17Zm-29.55-7.52h20.77c8.7,0,15.35,2.44,19.97,7.32,4.08,4.35,6.12,9.81,6.12,16.37,0,5.72-1.71,10.36-5.13,13.91-3.91,4.13-9.58,6.19-17.04,6.19h-24.89c1.69-1.11,2.53-3.57,2.53-7.39V8.12c0-3.55-.78-5.83-2.33-6.85Z"/>
</svg>